<svg width="25" height="25" xmlns="http://www.w3.org/2000/svg" xmlns:xlink="http://www.w3.org/1999/xlink"><defs><path id="a" d="M0 0h25v25H0z"/></defs><g fill="none" fill-rule="evenodd"><mask id="b" fill="#fff"><use xlink:href="#a"/></mask><g mask="url(#b)" fill="#C9292C" fill-rule="nonzero"><path d="M17.993 21.409 13 16.416 8.007 21.41c-1.05.788-2.627.788-3.416-.263-.788-1.051-.788-2.365 0-3.153L9.584 13 4.59 8.007c-.788-1.05-.788-2.627.263-3.416 1.051-.788 2.365-.788 3.153 0L13 9.584l4.993-4.993c1.05-.788 2.627-.788 3.416.263.788 1.051.788 2.365 0 3.153L16.416 13l4.993 4.993c.788 1.05.788 2.627-.263 3.416-.788.788-2.102.788-3.153 0z"/></g></g></svg>