<svg xmlns="http://www.w3.org/2000/svg" xmlns:xlink="http://www.w3.org/1999/xlink" viewBox="0 0 25 25" style="enable-background:new 0 0 25 25" xml:space="preserve"><defs><path id="a" d="M0 0h25v25H0z"/></defs><clipPath id="b"><use xlink:href="#a" style="overflow:visible"/></clipPath><g style="clip-path:url(#b)"><path d="M12.5 25C5.6 25 0 19.4 0 12.5 0 9.2 1.3 6 3.7 3.7c4.9-4.9 12.8-4.9 17.7 0s4.9 12.8 0 17.7C19 23.7 15.8 25 12.5 25zm0-23C6.7 2 2 6.7 2 12.5S6.7 23 12.5 23 23 18.3 23 12.5 18.3 2 12.5 2z" style="fill:#d1f0b0"/><path d="M11 15.9c.2.2.5.2.6 0l6.2-5.9c.2-.2.2-.4 0-.6l-1.3-1.2c-.2-.2-.5-.2-.6 0l-4.6 4.4-1.3-1.2c-.2-.2-.5-.2-.6 0l-1.3 1.2c-.2.2-.2.4 0 .6l2.9 2.7z" style="fill:#71b924"/></g></svg>