<?xml version="1.0" encoding="UTF-8"?>
<!DOCTYPE svg PUBLIC "-//W3C//DTD SVG 1.1//EN" "http://www.w3.org/Graphics/SVG/1.1/DTD/svg11.dtd">
<!-- Creator: CorelDRAW 2021 (64-Bit) -->
<svg xmlns="http://www.w3.org/2000/svg" xml:space="preserve" width="2480px" height="3508px" version="1.1" style="shape-rendering:geometricPrecision; text-rendering:geometricPrecision; image-rendering:optimizeQuality; fill-rule:evenodd; clip-rule:evenodd"
viewBox="0 0 2480 3507.43"
 xmlns:xlink="http://www.w3.org/1999/xlink"
 xmlns:xodm="http://www.corel.com/coreldraw/odm/2003">
 <defs>
  <style type="text/css">
   <![CDATA[
    .fil7 {fill:#AD733B}
    .fil2 {fill:#262830;fill-rule:nonzero}
    .fil0 {fill:#31343E;fill-rule:nonzero}
    .fil1 {fill:#3A3E4A;fill-rule:nonzero}
    .fil21 {fill:#404853;fill-rule:nonzero}
    .fil10 {fill:#505B67;fill-rule:nonzero}
    .fil11 {fill:#606B77;fill-rule:nonzero}
    .fil18 {fill:#606B78;fill-rule:nonzero}
    .fil12 {fill:#636F7B;fill-rule:nonzero}
    .fil20 {fill:#6A7786;fill-rule:nonzero}
    .fil17 {fill:#768290;fill-rule:nonzero}
    .fil14 {fill:#9AAABD;fill-rule:nonzero}
    .fil6 {fill:#AD733B;fill-rule:nonzero}
    .fil9 {fill:#C9292C;fill-rule:nonzero}
    .fil19 {fill:#CCD8E5;fill-rule:nonzero}
    .fil5 {fill:#D4A527;fill-rule:nonzero}
    .fil15 {fill:#D6E1EE;fill-rule:nonzero}
    .fil4 {fill:#E4B22D;fill-rule:nonzero}
    .fil8 {fill:#E84649;fill-rule:nonzero}
    .fil16 {fill:black;fill-rule:nonzero;fill-opacity:0.360784}
    .fil3 {fill:#262830;fill-rule:nonzero;fill-opacity:0.411765}
    .fil13 {fill:#363E46;fill-rule:nonzero;fill-opacity:0.611765}
   ]]>
  </style>
 </defs>
 <g id="Layer_x0020_1">
  <metadata id="CorelCorpID_0Corel-Layer"/>
  <g id="Эллипс_543">
   <g>
    <circle class="fil0" cx="1183.18" cy="1653.44" r="1056.17"/>
   </g>
  </g>
  <g id="Эллипс_543_копия_2">
   <g>
    <circle class="fil1" transform="matrix(0.7071 -0.7071 0.7071 0.7071 1186.51 1683.53)" r="785.44"/>
   </g>
  </g>
  <g id="Эллипс_543_копия_4">
   <g>
    <circle class="fil2" transform="matrix(0.7071 -0.7071 0.7071 0.7071 1186.51 1656.79)" r="785.44"/>
   </g>
  </g>
  <g id="Эллипс_543_копия_8">
   <g>
    <path class="fil3" d="M1477.3 1706.92c0,-461.48 -233.43,-835.58 -521.4,-835.58 -287.96,0 -521.4,374.1 -521.4,835.58 0,461.48 233.44,835.58 521.4,835.58 287.97,0 521.4,-374.1 521.4,-835.58z"/>
   </g>
  </g>
  <g id="Эллипс_584_копия_3">
   <g>
    <circle class="fil4" transform="matrix(0.9239 -0.3827 0.3827 0.9239 1236.71 2208.29)" r="227.28"/>
   </g>
  </g>
  <g id="Эллипс_584_копия_2">
   <g>
    <circle class="fil5" transform="matrix(0.7071 -0.7071 0.7071 0.7071 1238.32 2206.13)" r="189.17"/>
   </g>
  </g>
  <g id="ark__копия_2">
   <g>
    <path class="fil6" d="M1249.36 2131.4l-18.05 0 -68.85 156.42 26.07 0 12.7 -26.07 23.4 0 0 26.07 30.74 0 0 -26.07 23.4 0 12.7 26.07 26.07 0 -68.18 -156.42zm-35.43 104.28l26.07 -64.85 26.07 64.85 -52.14 0z"/>
   </g>
  </g>
  <g id="Эллипс_584_копия_6">
   <g>
    <circle class="fil4" cx="1574.23" cy="2111.34" r="203.88"/>
   </g>
  </g>
  <g id="Эллипс_584_копия_7">
   <g>
    <circle class="fil5" cx="1575.57" cy="2110.01" r="169.79"/>
   </g>
  </g>
  <path class="fil7" d="M1567.17 1981.22c-11.31,1.31 -21.83,6.47 -29.78,14.62 -5.97,5.91 -11.62,11.98 -17.67,17.95 -3.03,3.1 -6.09,6.13 -9.15,9.19 -3.06,3.07 -6.44,6.33 -9.61,9.55 -3.18,3.21 -5.82,6.04 -8.77,9.03 -4.59,4.59 -9.19,9.19 -13.79,13.83 -3.53,3.65 -6.97,7.41 -10.46,11.05 -2.06,2.18 -4.27,4.19 -6.21,6.48 -7.99,9.75 -12.36,21.98 -12.37,34.59 0,0.74 0,1.5 0.05,2.24 0.16,7.24 2.07,14.34 5.54,20.7 1.98,3.84 4.28,7.51 6.86,10.97 1.71,2.4 2.95,2.36 5.2,0.51 0.42,-0.36 0.83,-0.75 1.2,-1.17 2.21,-2.33 4.38,-4.65 6.63,-6.98 3.18,-3.33 6.44,-6.67 9.62,-10.04 3.18,-3.38 6.62,-7.09 9.96,-10.58 1.59,-1.71 3.28,-3.29 4.89,-4.97 3.4,-3.6 6.74,-7.32 10.15,-10.89 3.41,-3.56 6.86,-6.9 10.2,-10.39 3.34,-3.48 7.44,-7.75 11.2,-11.63 3.75,-3.87 6.94,-7.13 10.43,-10.7 4.54,-4.69 8.96,-9.5 13.45,-14.19 2.79,-2.87 5.66,-5.62 8.45,-8.45 3.88,-3.88 7.48,-7.75 11.29,-11.63 3.8,-3.87 6.62,-6.47 9.88,-9.81 7.28,-7.36 14.55,-14.76 21.81,-22.2 0.47,-0.46 0.91,-0.95 1.32,-1.47 1.78,-2.25 1.93,-2.75 -0.27,-4.34 -3.37,-2.66 -6.98,-4.99 -10.78,-6.98 -6.72,-3.15 -14.04,-4.77 -21.46,-4.77l-0.37 0c-2.47,0 -4.95,0.15 -7.41,0.46l-0.03 -0.04 0 0.06zm64.16 47.73l0 0 -0.46 0c-6.44,0 -12.55,2.83 -16.71,7.75 -0.37,0.41 -0.76,0.8 -1.16,1.16l-11.87 11.64c-3.87,3.88 -8.06,8.1 -12.13,12.17 -3.37,3.37 -6.75,6.67 -10.08,10.05 -3.33,3.37 -6.9,7.13 -10.51,10.65 -3.6,3.53 -7.44,7.23 -11.16,10.86l-13.22 13.33 -24.58 24.59c-10.86,10.9 -21.7,21.78 -32.53,32.64 -2.09,2.06 -2.13,2.32 0,4.53 5.19,5.26 10.47,10.47 15.51,15.76 3.11,3.31 7.23,5.5 11.71,6.24 4.22,0.85 8.59,0.71 12.75,-0.42 3.12,-0.77 6,-2.31 8.38,-4.46l12.87 -12.44c3.02,-2.9 6.09,-5.77 9.07,-8.72 5.97,-5.91 11.86,-11.86 17.83,-17.73 4.85,-4.77 9.81,-9.5 14.73,-14.27l20.18 -19.67c6.28,-6.16 12.6,-12.36 18.96,-18.53 1.28,-1.9 3.86,-2.41 5.76,-1.13 0.71,0.48 1.25,1.16 1.56,1.95 3.23,4.72 4.96,10.31 4.95,16.03 0,0.97 -0.05,1.95 -0.15,2.92 -0.52,5.77 -2.9,11.21 -6.77,15.51 -4.66,5.01 -9.62,9.73 -14.45,14.54 -3.45,3.41 -6.98,6.75 -10.43,10.19 -4.46,4.43 -8.84,8.92 -13.3,13.34 -0.66,0.74 -1.28,1.52 -1.97,2.21l-4.39 4.54c-3.28,3.28 -6.62,6.48 -9.85,9.77 -3.22,3.29 -6.93,7.14 -10.37,10.73 -0.31,0.35 -0.66,0.58 -0.97,0.89 -3.88,3.6 -7.45,7.22 -11.13,10.85 -1.74,1.71 -3.41,3.45 -5.12,5.16 -2.94,2.99 -5.97,5.91 -8.8,8.96 -1.74,1.82 -1.74,2.94 0.32,4.38 3.37,2.59 6.97,4.88 10.73,6.85 9.38,4.24 19.78,5.72 29.97,4.27 10.11,-1.2 19.6,-5.53 27.14,-12.37 5.74,-5.04 10.86,-10.7 16.2,-16.13 3.88,-3.88 7.76,-8.02 11.91,-12.01l11.2 -11.29c3.42,-3.45 6.78,-6.9 10.24,-10.31 3.45,-3.41 7.75,-7.48 11.62,-11.32 3.88,-3.84 7.76,-7.75 11.64,-11.86 3.09,-3.15 5.94,-6.52 8.53,-10.09 4.84,-7.3 7.86,-15.66 8.81,-24.38 0.53,-4.32 0.53,-8.7 0,-13.03 -1.15,-7.7 -3.94,-15.06 -8.18,-21.59 -3.05,-4.62 -6.7,-8.82 -10.85,-12.48 -10.74,-10.66 -21.45,-21.4 -31.95,-32.29 -4.63,-5.16 -11.23,-8.1 -18.16,-8.11l-0.14 0 -1.16 0.16 -0.02 0.01z"/>
  <g id="Эллипс_584_копия_4">
   <g>
    <circle class="fil4" transform="matrix(0.9637 -0.2669 0.2669 0.9637 1443.8 2328.61)" r="187.17"/>
   </g>
  </g>
  <g id="Эллипс_584_копия_5">
   <g>
    <circle class="fil5" transform="matrix(0.982 -0.1891 0.1891 0.982 1445.28 2327.35)" r="155.75"/>
   </g>
  </g>
  <g id="Прямоугольник2C_скругл._углы_505_копия">
   <g>
    <path class="fil8" d="M461.24 1486.33l-53.48 0c-14.7,0 -26.74,12.03 -26.74,26.74l0 193.85c0,14.71 12.04,26.74 26.74,26.74l53.48 0c14.71,0 26.74,-12.03 26.74,-26.74l0 -193.85c0,-14.71 -12.03,-26.74 -26.74,-26.74z"/>
   </g>
  </g>
  <g id="Прямоугольник2C_скругл._углы_505_копия_2">
   <g>
    <path class="fil9" d="M461.24 1499.7l-53.48 0c-14.7,0 -26.74,12.03 -26.74,26.74l0 260.7c0,14.71 12.04,26.74 26.74,26.74l53.48 0c14.71,0 26.74,-12.04 26.74,-26.74l0 -260.7c0,-14.71 -12.03,-26.74 -26.74,-26.74z"/>
   </g>
  </g>
  <g id="Эллипс_543_копия">
   <g>
    <path class="fil10" d="M1036.12 871.34c-0.67,0 -155.09,0 -155.09,0 0,0 -0.66,0 -0.66,0 -242.66,2.68 -439.18,352.95 -439.18,785.45 0,431.82 195.86,782.1 437.17,785.44 0.67,0 154.42,0 155.09,0 0.66,0 1.33,0 2,0 243.99,0 441.19,-351.61 441.19,-785.44 0,-433.83 -196.53,-785.45 -440.52,-785.45z"/>
   </g>
  </g>
  <g id="_32">
   <g>
    <ellipse class="fil11" cx="875.69" cy="1656.79" rx="441.19" ry="785.44"/>
   </g>
  </g>
  <g id="Эллипс_543_копия_10">
   <g>
    <path class="fil12" d="M1316.2 1609.33c-1.33,-48.13 -5.34,-94.93 -12.03,-140.38 0,-1.34 -0.67,-3.34 -0.67,-3.34l-562.84 939.19c0,0 1.33,0.67 2,1.33 24.73,14.04 50.81,24.07 77.54,30.09 0.67,0 2.68,0.66 2.68,0.66l493.32 -824.21c0,0 0,-2.01 0,-3.34zm-66.17 -368.33c-52.14,-147.73 -130.35,-262.7 -223.94,-322.87 -0.67,-0.66 -2,-1.33 -2,-1.33l-564.86 999.35c0,0 0,1.34 0.67,2.67 32.09,161.1 92.92,298.14 171.13,391.72 0.67,0.67 1.34,1.34 1.34,1.34l618.99 -1067.54c0,-0.66 -0.66,-2 -1.33,-3.34zm-374.34 -369.66c-239.98,0 -435.17,340.92 -441.19,766.06 0,1.34 0,3.34 0,3.34l446.54 -769.4c0,0 -3.35,0 -5.35,0z"/>
   </g>
  </g>
  <g id="Эллипс_543_копия_7">
   <g>
    <path class="fil13" d="M895.07 1479.64c-62.16,0 -112.97,91.58 -112.97,203.89 0,112.3 50.81,203.88 112.97,203.88 62.17,0 112.97,-91.58 112.97,-203.88 0,-112.31 -50.13,-203.89 -112.97,-203.89zm0.67 314.18c-33.42,0 -60.16,-48.13 -60.16,-106.95 0,-58.83 26.74,-106.96 60.16,-106.96 33.43,0 60.16,48.13 60.16,106.96 0,58.82 -26.74,106.95 -60.16,106.95z"/>
   </g>
  </g>
  <g id="Эллипс_543_копия_5">
   <g>
    <path class="fil14" d="M849.62 1479.64c0,0 -39.44,0 -40.11,0 0,0 0,0 0,0 -62.17,0.67 -112.3,91.58 -112.3,203.89 0,112.3 50.13,203.21 112.3,203.88 0,0 39.44,0 40.11,0 0,0 0.67,0 0.67,0 62.16,0 112.97,-91.58 112.97,-203.88 0,-112.31 -51.48,-203.89 -113.64,-203.89zm-10.7 307.5c-27.41,0 -50.13,-46.13 -50.13,-103.61 0,-57.49 22.72,-103.62 50.13,-103.62 27.41,0 50.14,46.13 50.14,103.62 0,57.48 -22.73,103.61 -50.14,103.61z"/>
   </g>
  </g>
  <g id="Эллипс_543_копия_6">
   <g>
    <path class="fil15" d="M808.17 1479.64c-62.16,0 -112.97,91.58 -112.97,203.89 0,112.3 50.81,203.88 112.97,203.88 62.17,0 112.97,-91.58 112.97,-203.88 0,-112.31 -50.13,-203.89 -112.97,-203.89zm0.67 314.18c-33.42,0 -60.16,-48.13 -60.16,-106.95 0,-58.83 26.74,-106.96 60.16,-106.96 33.42,0 60.16,48.13 60.16,106.96 0,58.82 -26.74,106.95 -60.16,106.95z"/>
   </g>
  </g>
  <g id="_35_2_">
   <g>
    <path class="fil16" d="M2366.36 1486.33l-227.28 0c-36.76,0 -66.84,30.08 -66.84,66.85l0 354.28c0,36.77 30.08,66.85 66.84,66.85l227.28 0c36.77,0 66.85,-30.08 66.85,-66.85l0 -354.29c0,-36.76 -30.08,-66.84 -66.85,-66.84z"/>
   </g>
  </g>
  <g id="Прямоугольник2C_скругл._углы_523_копия_2">
   <g>
    <path class="fil17" d="M2366.36 1419.48l-227.28 0c-36.76,0 -66.84,30.08 -66.84,66.85l0 354.28c0,36.77 30.08,66.85 66.84,66.85l227.28 0c36.77,0 66.85,-30.08 66.85,-66.85l0 -354.28c0,-36.77 -30.08,-66.85 -66.85,-66.85z"/>
   </g>
  </g>
  <g id="Прямоугольник2C_скругл._углы_523_копия">
   <g>
    <path class="fil18" d="M2366.36 1432.85l-227.28 0c-36.76,0 -66.84,30.08 -66.84,66.85l0 354.28c0,36.77 30.08,66.85 66.84,66.85l227.28 0c36.77,0 66.85,-30.08 66.85,-66.85l0 -354.28c0,-36.77 -30.08,-66.85 -66.85,-66.85z"/>
   </g>
  </g>
  <g id="Прямоугольник2C_скругл._углы_526">
   <g>
    <path class="fil10" d="M2373.05 1466.28l-240.65 0c-14.71,0 -26.74,12.03 -26.74,26.73l0 40.11c0,14.71 12.03,26.74 26.74,26.74l240.65 0c14.7,0 26.73,-12.03 26.73,-26.74l0 -40.11c0,-14.7 -12.03,-26.73 -26.73,-26.73z"/>
   </g>
  </g>
  <g id="Эллипс_527_копия_3">
   <g>
    <path class="fil19" d="M2185.88 1499.7c-7.36,0 -13.37,6.01 -13.37,13.37 0,7.35 6.01,13.37 13.37,13.37 7.35,0 13.37,-6.02 13.37,-13.37 0,-7.36 -6.02,-13.37 -13.37,-13.37zm46.79 0c-7.35,0 -13.37,6.01 -13.37,13.37 0,7.35 6.01,13.37 13.37,13.37 7.35,0 13.37,-6.02 13.37,-13.37 0,-7.36 -6.02,-13.37 -13.37,-13.37zm46.79 0c-7.35,0 -13.37,6.01 -13.37,13.37 0,7.35 6.02,13.37 13.37,13.37 7.36,0 13.37,-6.02 13.37,-13.37 0,-7.36 -6.02,-13.37 -13.37,-13.37zm46.79 0c-7.35,0 -13.37,6.01 -13.37,13.37 0,7.35 6.02,13.37 13.37,13.37 7.36,0 13.37,-6.02 13.37,-13.37 0,-7.36 -6.01,-13.37 -13.37,-13.37z"/>
   </g>
  </g>
  <g id="Прямоугольник2C_скругл._углы_526_копия_5">
   <g>
    <path class="fil20" d="M2165.82 1599.97l-26.74 0c-7.35,0 -13.37,6.01 -13.37,13.37l0 26.74c0,7.35 6.02,13.37 13.37,13.37l26.74 -0.01c7.35,0 13.37,-6.01 13.37,-13.37l0 -26.73c0,-7.36 -6.01,-13.37 -13.37,-13.37zm66.85 0l-26.74 0c-7.35,0 -13.37,6.01 -13.37,13.37l0 26.74c0,7.35 6.02,13.37 13.37,13.37l26.74 -0.01c7.35,0 13.37,-6.01 13.37,-13.37l0 -26.73c0,-7.36 -6.02,-13.37 -13.37,-13.37zm66.85 0l-26.74 0c-7.36,0 -13.37,6.01 -13.37,13.37l0 26.74c0,7.35 6.01,13.37 13.37,13.37l26.74 -0.01c7.35,0 13.36,-6.01 13.36,-13.37l0 -26.73c0,-7.36 -6.01,-13.37 -13.36,-13.37zm66.84 0l-26.74 0c-7.35,0 -13.37,6.01 -13.37,13.37l0 26.74c0,7.35 6.02,13.37 13.37,13.37l26.74 -0.01c7.35,0 13.37,-6.01 13.37,-13.37l0 -26.73c0,-7.36 -6.02,-13.37 -13.37,-13.37zm-200.54 66.84l-26.74 0c-7.35,0 -13.37,6.02 -13.37,13.37l0 26.74c0,7.36 6.02,13.37 13.37,13.37l26.74 0c7.35,0 13.37,-6.01 13.37,-13.37l0 -26.74c0,-7.35 -6.01,-13.37 -13.37,-13.37zm66.85 0l-26.74 0c-7.35,0 -13.37,6.02 -13.37,13.37l0 26.74c0,7.36 6.02,13.37 13.37,13.37l26.74 0c7.35,0 13.37,-6.01 13.37,-13.37l0 -26.74c0,-7.35 -6.02,-13.37 -13.37,-13.37zm66.85 0l-26.74 0c-7.36,0 -13.37,6.02 -13.37,13.37l0 26.74c0,7.36 6.01,13.37 13.37,13.37l26.74 0c7.35,0 13.36,-6.01 13.36,-13.37l0 -26.74c0,-7.35 -6.01,-13.37 -13.36,-13.37zm66.84 0l-26.74 0c-7.35,0 -13.37,6.02 -13.37,13.37l0 26.74c0,7.36 6.02,13.37 13.37,13.37l26.74 0c7.35,0 13.37,-6.01 13.37,-13.37l0 -26.74c0,-7.35 -6.02,-13.37 -13.37,-13.37zm-200.54 66.85l-26.74 0c-7.35,0 -13.37,6.02 -13.37,13.37l0 26.74c0,7.35 6.02,13.37 13.37,13.37l26.74 0c7.35,0 13.37,-6.02 13.37,-13.37l0 -26.74c0,-7.35 -6.01,-13.37 -13.37,-13.37zm66.85 0l-26.74 0c-7.35,0 -13.37,6.02 -13.37,13.37l0 26.74c0,7.35 6.02,13.37 13.37,13.37l26.74 0c7.35,0 13.37,-6.02 13.37,-13.37l0 -26.74c0,-7.35 -6.02,-13.37 -13.37,-13.37zm66.85 0l-26.74 0c-7.36,0 -13.37,6.02 -13.37,13.37l0 26.74c0,7.35 6.01,13.37 13.37,13.37l26.74 0c7.35,0 13.36,-6.02 13.36,-13.37l0 -26.74c0,-7.35 -6.01,-13.37 -13.36,-13.37zm66.84 0l-26.74 0c-7.35,0 -13.37,6.02 -13.37,13.37l0 26.74c0,7.35 6.02,13.37 13.37,13.37l26.74 0c7.35,0 13.37,-6.02 13.37,-13.37l0 -26.74c0,-7.35 -6.02,-13.37 -13.37,-13.37zm-200.54 66.85l-26.74 0c-7.35,0 -13.37,6.01 -13.37,13.37l0 26.74c0,7.35 6.02,13.37 13.37,13.37l26.74 -0.01c7.35,0 13.37,-6.01 13.37,-13.37l0 -26.73c0,-7.36 -6.01,-13.37 -13.37,-13.37zm66.85 0l-26.74 0c-7.35,0 -13.37,6.01 -13.37,13.37l0 26.74c0,7.35 6.02,13.37 13.37,13.37l26.74 -0.01c7.35,0 13.37,-6.01 13.37,-13.37l0 -26.73c0,-7.36 -6.02,-13.37 -13.37,-13.37zm66.85 0l-26.74 0c-7.36,0 -13.37,6.01 -13.37,13.37l0 26.74c0,7.35 6.01,13.37 13.37,13.37l26.74 -0.01c7.35,0 13.36,-6.01 13.36,-13.37l0 -26.73c0,-7.36 -6.01,-13.37 -13.36,-13.37zm66.84 0l-26.74 0c-7.35,0 -13.37,6.01 -13.37,13.37l0 26.74c0,7.35 6.02,13.37 13.37,13.37l26.74 -0.01c7.35,0 13.37,-6.01 13.37,-13.37l0 -26.73c0,-7.36 -6.02,-13.37 -13.37,-13.37z"/>
   </g>
  </g>
  <g id="Эллипс_539_копия_2">
   <g>
    <path class="fil21" d="M2129.06 597.27c27.4,0 50.13,-22.72 50.13,-50.13 0,-27.41 -22.73,-50.14 -50.13,-50.14 -27.41,0 -50.14,22.73 -50.14,50.14 0,27.41 22.73,50.13 50.14,50.13zm-1691.22 -46.79c-50.13,0 -90.24,40.11 -90.24,90.24 0,50.14 40.11,90.24 90.24,90.24 50.14,0 90.25,-40.1 90.25,-90.24 0,-50.13 -40.11,-90.24 -90.25,-90.24zm1801.51 2439.89c-7.35,0 -13.37,6.02 -13.37,13.37 0,7.35 6.02,13.37 13.37,13.37 7.36,0 13.37,-6.01 13.37,-13.37 0,-7.35 -6.01,-13.37 -13.37,-13.37zm-2092.29 -581.56c-51.47,0 -93.58,42.11 -93.58,93.58 0,51.48 42.11,93.59 93.58,93.59 51.47,0 93.59,-42.11 93.59,-93.59 0,-51.47 -42.12,-93.58 -93.59,-93.58zm1821.57 -86.9c-171.8,0 -310.84,139.04 -310.84,310.83 0,171.8 139.04,310.84 310.84,310.84 171.79,0 310.83,-139.04 310.83,-310.84 0,-171.79 -139.04,-310.83 -310.83,-310.83z"/>
   </g>
  </g>
  <path class="fil7" d="M1435.99 2206.03c-11.31,1.3 -21.83,6.46 -29.78,14.61 -5.97,5.91 -11.62,11.98 -17.67,17.95 -3.03,3.11 -6.09,6.13 -9.15,9.2 -3.06,3.06 -6.44,6.32 -9.62,9.54 -3.18,3.22 -5.82,6.04 -8.76,9.03 -4.6,4.6 -9.19,9.19 -13.79,13.84 -3.53,3.64 -6.98,7.41 -10.46,11.04 -2.06,2.18 -4.27,4.19 -6.21,6.48 -8,9.76 -12.37,21.98 -12.37,34.59 0,0.75 0,1.51 0.05,2.24 0.16,7.25 2.06,14.34 5.54,20.7 1.98,3.84 4.27,7.51 6.86,10.97 1.71,2.41 2.95,2.37 5.19,0.51 0.43,-0.36 0.83,-0.75 1.2,-1.16 2.22,-2.34 4.39,-4.66 6.64,-6.98 3.18,-3.34 6.43,-6.67 9.61,-10.05 3.18,-3.37 6.63,-7.09 9.97,-10.58 1.59,-1.71 3.28,-3.28 4.88,-4.96 3.41,-3.61 6.75,-7.33 10.16,-10.89 3.41,-3.57 6.86,-6.91 10.2,-10.39 3.33,-3.49 7.44,-7.76 11.2,-11.63 3.75,-3.88 6.94,-7.14 10.43,-10.7 4.53,-4.7 8.95,-9.51 13.45,-14.2 2.79,-2.87 5.66,-5.62 8.45,-8.45 3.87,-3.87 7.48,-7.75 11.28,-11.62 3.81,-3.88 6.63,-6.48 9.89,-9.82 7.28,-7.35 14.55,-14.75 21.81,-22.2 0.47,-0.46 0.91,-0.95 1.31,-1.47 1.79,-2.25 1.94,-2.75 -0.27,-4.34 -3.37,-2.65 -6.97,-4.99 -10.78,-6.98 -6.71,-3.14 -14.04,-4.77 -21.45,-4.77l-0.37 0c-2.48,0 -4.95,0.16 -7.41,0.47l-0.04 -0.04 0.01 0.06zm64.16 47.72l0 0 -0.47 0c-6.44,0 -12.55,2.84 -16.7,7.76 -0.37,0.4 -0.76,0.79 -1.17,1.16l-11.86 11.63c-3.87,3.88 -8.06,8.11 -12.14,12.18 -3.37,3.37 -6.74,6.66 -10.07,10.04 -3.33,3.38 -6.9,7.13 -10.51,10.66 -3.61,3.53 -7.44,7.22 -11.17,10.86l-13.22 13.33 -24.57 24.58c-10.86,10.9 -21.7,21.78 -32.53,32.64 -2.09,2.06 -2.13,2.33 0,4.54 5.19,5.25 10.47,10.46 15.5,15.76 3.12,3.3 7.23,5.49 11.71,6.24 4.23,0.85 8.6,0.7 12.76,-0.43 3.12,-0.77 5.99,-2.3 8.37,-4.46l12.88 -12.43c3.02,-2.9 6.08,-5.78 9.07,-8.72 5.97,-5.92 11.86,-11.87 17.83,-17.74 4.84,-4.77 9.81,-9.49 14.73,-14.26l20.18 -19.67c6.28,-6.17 12.6,-12.37 18.96,-18.54 1.28,-1.9 3.85,-2.41 5.76,-1.13 0.7,0.48 1.25,1.16 1.55,1.95 3.23,4.72 4.96,10.31 4.96,16.03 0,0.98 -0.05,1.95 -0.15,2.93 -0.52,5.76 -2.9,11.21 -6.78,15.5 -4.65,5.01 -9.61,9.74 -14.45,14.55 -3.44,3.4 -6.97,6.74 -10.43,10.19 -4.46,4.42 -8.84,8.92 -13.3,13.34 -0.65,0.73 -1.27,1.51 -1.97,2.21l-4.38 4.53c-3.28,3.29 -6.62,6.48 -9.85,9.77 -3.22,3.29 -6.93,7.14 -10.38,10.73 -0.3,0.35 -0.65,0.58 -0.96,0.89 -3.88,3.6 -7.45,7.22 -11.13,10.86 -1.74,1.7 -3.41,3.44 -5.12,5.15 -2.94,2.99 -5.97,5.91 -8.8,8.96 -1.74,1.82 -1.74,2.94 0.31,4.38 3.38,2.59 6.97,4.88 10.74,6.86 9.38,4.24 19.77,5.72 29.96,4.26 10.12,-1.2 19.61,-5.52 27.15,-12.37 5.73,-5.03 10.86,-10.7 16.2,-16.12 3.88,-3.88 7.76,-8.03 11.9,-12.02l11.21 -11.28c3.41,-3.45 6.78,-6.91 10.24,-10.32 3.45,-3.4 7.75,-7.48 11.62,-11.32 3.88,-3.84 7.76,-7.75 11.63,-11.86 3.09,-3.15 5.95,-6.52 8.54,-10.08 4.84,-7.31 7.86,-15.67 8.81,-24.38 0.53,-4.33 0.53,-8.7 0,-13.03 -1.15,-7.7 -3.94,-15.07 -8.18,-21.6 -3.05,-4.62 -6.7,-8.81 -10.85,-12.48 -10.74,-10.66 -21.45,-21.39 -31.95,-32.29 -4.63,-5.15 -11.23,-8.1 -18.16,-8.1l-0.14 0 -1.17 0.15 -0.01 0.01z"/>
 </g>
</svg>
