<?xml version="1.0" encoding="UTF-8"?>
<!DOCTYPE svg PUBLIC "-//W3C//DTD SVG 1.1//EN" "http://www.w3.org/Graphics/SVG/1.1/DTD/svg11.dtd">
<!-- Creator: CorelDRAW 2021 (64-Bit) -->
<svg xmlns="http://www.w3.org/2000/svg" xml:space="preserve" width="2480px" height="3508px" version="1.1" style="shape-rendering:geometricPrecision; text-rendering:geometricPrecision; image-rendering:optimizeQuality; fill-rule:evenodd; clip-rule:evenodd"
viewBox="0 0 2480 3507.43"
 xmlns:xlink="http://www.w3.org/1999/xlink"
 xmlns:xodm="http://www.corel.com/coreldraw/odm/2003">
 <defs>
  <style type="text/css">
   <![CDATA[
    .fil19 {fill:#AD733B}
    .fil5 {fill:#25272F;fill-rule:nonzero}
    .fil0 {fill:#404853;fill-rule:nonzero}
    .fil2 {fill:#424B56;fill-rule:nonzero}
    .fil11 {fill:#505B67;fill-rule:nonzero}
    .fil3 {fill:#55606D;fill-rule:nonzero}
    .fil13 {fill:#566271;fill-rule:nonzero}
    .fil14 {fill:#5C6876;fill-rule:nonzero}
    .fil9 {fill:#626D7A;fill-rule:nonzero}
    .fil12 {fill:#788491;fill-rule:nonzero}
    .fil8 {fill:#AAB6C5;fill-rule:nonzero}
    .fil6 {fill:#B6C4D4;fill-rule:nonzero}
    .fil16 {fill:#D4A527;fill-rule:nonzero}
    .fil17 {fill:#D52F2F;fill-rule:nonzero}
    .fil7 {fill:#D6E1EE;fill-rule:nonzero}
    .fil15 {fill:#E4B22D;fill-rule:nonzero}
    .fil18 {fill:white;fill-rule:nonzero}
    .fil10 {fill:#363F48;fill-rule:nonzero;fill-opacity:0.250980}
    .fil1 {fill:#191A20;fill-rule:nonzero;fill-opacity:0.419608}
    .fil4 {fill:#292F37;fill-rule:nonzero;fill-opacity:0.521569}
   ]]>
  </style>
 </defs>
 <g id="Layer_x0020_1">
  <metadata id="CorelCorpID_0Corel-Layer"/>
  <g id="Эллипс_539_копия_3">
   <g>
    <path class="fil0" d="M304.15 2916.84c-27.41,0 -50.13,22.73 -50.13,50.14 0,27.4 22.72,50.13 50.13,50.13 27.41,0 50.14,-22.73 50.14,-50.13 0,-27.41 -22.73,-50.14 -50.14,-50.14zm1637.74 -775.42c-50.14,0 -90.25,40.11 -90.25,90.25 0,50.13 40.11,90.24 90.25,90.24 50.13,0 90.24,-40.11 90.24,-90.24 0,-50.14 -40.11,-90.25 -90.24,-90.25zm-1748.04 -1617.68c7.36,0 13.37,-6.01 13.37,-13.37 0,-7.35 -6.01,-13.37 -13.37,-13.37 -7.35,0 -13.37,6.02 -13.37,13.37 0,7.35 6.02,13.37 13.37,13.37zm2092.3 394.39c-51.48,0 -93.59,42.12 -93.59,93.59 0,51.47 42.11,93.58 93.59,93.58 51.47,0 93.58,-42.11 93.58,-93.58 0,-51.47 -42.11,-93.59 -93.58,-93.59zm-1821.57 -347.6c-171.79,0 -310.83,139.04 -310.83,310.84 0,171.79 139.04,310.83 310.83,310.83 171.8,0 310.84,-139.04 310.84,-310.83 0,-171.8 -139.04,-310.84 -310.84,-310.84z"/>
   </g>
  </g>
  <g id="Прямоугольник2C_скругл._углы_665_копия_9">
   <g>
    <path class="fil1" d="M1310.86 1765.08l-696.54 0c-14.71,0 -26.74,12.03 -26.74,26.74l0 195.86c0,14.7 12.03,26.74 26.74,26.74l697.21 0c14.7,0 26.73,-12.04 26.73,-26.74l0 -195.86c-0.66,-14.71 -12.03,-26.74 -27.4,-26.74z"/>
   </g>
  </g>
  <g id="Прямоугольник2C_скругл._углы_665_копия_10">
   <g>
    <path class="fil2" d="M1323.56 1740.34l-721.94 0c-14.71,0 -26.74,12.04 -26.74,26.74l0 195.86c0,14.71 12.03,26.74 26.74,26.74l721.94 0c14.7,0 26.74,-12.03 26.74,-26.74l0 -195.86c0,-14.7 -12.04,-26.74 -26.74,-26.74z"/>
   </g>
  </g>
  <g id="Эллипс_667_копия_9">
   <g>
    <path class="fil3" d="M690.52 1839.95c-17.38,0 -30.75,14.03 -30.75,31.41 0,17.38 14.04,31.42 30.75,31.42 17.38,0 30.75,-14.04 30.75,-31.42 0.67,-17.38 -13.37,-31.41 -30.75,-31.41zm93.59 0c-17.38,0 -31.42,14.03 -31.42,31.41 0,17.38 14.04,31.42 31.42,31.42 17.38,0 31.42,-14.04 31.42,-31.42 -0.67,-17.38 -14.04,-31.41 -31.42,-31.41zm92.91 0c-17.38,0 -31.41,14.03 -31.41,31.41 0,17.38 14.03,31.42 31.41,31.42 17.38,0 31.42,-14.04 31.42,-31.42 0,-17.38 -14.04,-31.41 -31.42,-31.41zm93.59 0c-17.38,0 -30.75,14.03 -30.75,31.41 0,17.38 14.04,31.42 30.75,31.42 17.38,0 30.75,-14.04 30.75,-31.42 0,-17.38 -13.37,-31.41 -30.75,-31.41zm92.92 0c-17.38,0 -31.42,14.03 -31.42,31.41 0,17.38 14.04,31.42 31.42,31.42 17.38,0 31.41,-14.04 31.41,-31.42 0,-17.38 -14.03,-31.41 -31.41,-31.41zm93.58 0c-17.38,0 -30.75,14.03 -30.75,31.41 0,17.38 14.04,31.42 30.75,31.42 16.71,0 30.75,-14.04 30.75,-31.42 0.67,-17.38 -13.37,-31.41 -30.75,-31.41z"/>
   </g>
  </g>
  <g id="Прямоугольник_5">
   <g>
    <polygon class="fil4" points="955.9,1987.68 1009.38,1987.68 1009.38,1740.34 955.9,1740.34 "/>
   </g>
  </g>
  <g id="Фигура_1650_копия">
   <g>
    <path class="fil5" d="M1236.66 1599.97c-110.97,0 -260.7,36.76 -260.7,93.58l0 508.03c0,148.4 123.66,247.34 247.33,247.34 123.66,0 260.7,-72.87 260.7,-247.34l0 -508.03c0,-47.46 -136.37,-93.58 -247.33,-93.58z"/>
   </g>
  </g>
  <g id="Прямоугольник2C_скругл._углы_968">
   <g>
    <path class="fil6" d="M1377.04 1205.57l-300.81 0c-14.71,0 -26.74,12.04 -26.74,26.74l0 307.5c0,14.7 12.03,26.74 26.74,26.74l300.81 -0.01c14.7,0 26.73,-12.03 26.73,-26.74l0 -307.49c0,-14.7 -12.03,-26.74 -26.73,-26.74z"/>
   </g>
  </g>
  <g id="Прямоугольник2C_скругл._углы_968_копия_2">
   <g>
    <path class="fil7" d="M1377.04 1218.94l-300.81 0c-14.71,0 -26.74,12.04 -26.74,26.74l0 307.5c0,14.7 12.03,26.73 26.74,26.73l300.81 0c14.7,0 26.73,-12.03 26.73,-26.74l0 -307.49c0,-14.7 -12.03,-26.74 -26.73,-26.74z"/>
   </g>
  </g>
  <g id="Прямоугольник2C_скругл._углы_968_копия_3">
   <g>
    <path class="fil8" d="M1143.07 1325.9l-6.68 0c-14.71,0 -26.74,12.03 -26.74,26.74l0 6.68c0,14.71 12.03,26.74 26.74,26.74l6.68 0c14.71,0 26.74,-12.03 26.74,-26.74l0 -6.68c0,-14.71 -12.03,-26.74 -26.74,-26.74z"/>
   </g>
  </g>
  <g id="Прямоугольник2C_скругл._углы_968_копия_4">
   <g>
    <path class="fil8" d="M1330.24 1325.9l-6.68 0c-14.71,0 -26.74,12.03 -26.74,26.74l0 6.68c0,14.71 12.03,26.74 26.74,26.74l6.68 0c14.71,0 26.74,-12.03 26.74,-26.74l0 -6.68c0,-14.71 -12.03,-26.74 -26.74,-26.74z"/>
   </g>
  </g>
  <g id="Прямоугольник2C_скругл._углы_968_копия">
   <g>
    <path class="fil9" d="M1410.46 1486.33l-367.66 0c-14.7,0 -26.74,12.03 -26.74,26.74l0 106.95c0,14.71 12.04,26.74 26.74,26.74l367.66 0c14.71,0 26.74,-12.03 26.74,-26.74l0 -106.95c0,-14.71 -12.04,-26.74 -26.74,-26.74z"/>
   </g>
  </g>
  <g id="Фигура_1651_копия_2">
   <g>
    <path class="fil10" d="M1221.28 1519.75c-165.11,0 -205.22,34.09 -205.22,52.14 0,18.05 0,34.76 0,34.76 0,0 38.11,-38.1 205.22,-38.1 167.12,0 215.92,38.1 215.92,38.1 0,0 0,-14.04 0,-34.76 0,-20.72 -50.81,-52.14 -215.92,-52.14z"/>
   </g>
  </g>
  <g id="Фигура_1650">
   <g>
    <path class="fil11" d="M1236.66 1553.18c-110.97,0 -260.7,36.76 -260.7,93.58l0 508.03c0,148.4 123.66,247.33 247.33,247.33 123.66,0 260.7,-72.86 260.7,-247.33l0 -508.03c0,-47.46 -136.37,-93.58 -247.33,-93.58z"/>
   </g>
  </g>
  <g id="Фигура_1651">
   <g>
    <path class="fil12" d="M1223.29 1546.49c-199.2,0 -247.33,66.18 -247.33,100.27 0,34.09 0,66.85 0,66.85 0,0 46.12,-73.53 247.33,-73.53 201.21,0 260.7,73.53 260.7,73.53 0,0 0,-26.74 0,-66.85 0,-40.11 -61.5,-100.27 -260.7,-100.27z"/>
   </g>
  </g>
  <g id="Фигура_1651_копия">
   <g>
    <path class="fil9" d="M1223.29 1566.54c-199.2,0 -247.33,66.18 -247.33,100.27 0,34.1 0,66.85 0,66.85 0,0 46.12,-73.53 247.33,-73.53 201.21,0 260.7,73.53 260.7,73.53 0,0 0,-26.74 0,-66.85 0,-40.1 -61.5,-100.27 -260.7,-100.27z"/>
   </g>
  </g>
  <g id="Прямоугольник2C_скругл._углы_969">
   <g>
    <path class="fil13" d="M1310.19 1787.14l-160.43 0c-36.77,0 -66.85,30.08 -66.85,66.84l0 220.6c0,36.76 30.08,66.84 66.85,66.84l160.43 0c36.76,0 66.85,-30.08 66.85,-66.84l0 -220.6c0,-36.76 -30.09,-66.84 -66.85,-66.84z"/>
   </g>
  </g>
  <g id="Прямоугольник2C_скругл._углы_969_копия">
   <g>
    <path class="fil2" d="M1310.19 1787.14l-160.43 0c-36.77,0 -66.85,30.08 -66.85,66.84l0 207.23c0,36.76 30.08,66.84 66.85,66.84l160.43 0c36.76,0 66.85,-30.08 66.85,-66.84l0 -207.23c0,-36.76 -30.09,-66.84 -66.85,-66.84z"/>
   </g>
  </g>
  <g id="Forma_1">
   <g>
    <path class="fil14" d="M1260.05 2226.99l0 30.08 7.36 0 0 15.37 -22.73 0 0 -60.83 15.37 0 -22.72 -30.08 -22.73 30.08 15.37 0 0 60.83 -22.72 0 0 -16.04c5.34,-2.01 9.35,-8.02 9.35,-14.71 0,-9.36 -7.35,-16.71 -16.71,-16.71 -9.36,0 -16.71,7.35 -16.71,16.71 0,6.02 4.01,12.03 9.36,14.71l0 16.04c0,8.02 6.68,15.38 15.37,15.38l22.73 0 0 23.39c-5.35,3.34 -9.36,8.02 -9.36,14.71 0,9.36 7.35,16.71 16.71,16.71 9.36,0 16.72,-7.35 16.72,-16.71 0,-6.69 -4.02,-12.03 -9.36,-14.71l0 -23.39 22.73 0c8.02,0 15.37,-6.69 15.37,-15.38l0 -15.37 7.35 0 0 -30.08 -30.75 0z"/>
   </g>
  </g>
  <circle class="fil15" cx="1229.3" cy="1954.92" r="118.32"/>
  <circle class="fil16" cx="1228.64" cy="1954.25" r="98.26"/>
  <g id="Прямоугольник2C_скругл._углы_665_копия_8">
   <g>
    <path class="fil1" d="M2032.8 1517.75l-696.54 0c-14.71,0 -26.74,12.03 -26.74,26.74l0 195.85c0,14.71 12.03,26.74 26.74,26.74l697.21 0c14.7,0 26.74,-12.03 26.74,-26.74l0 -195.86c-0.67,-14.7 -12.04,-26.73 -27.41,-26.73z"/>
   </g>
  </g>
  <g id="Прямоугольник2C_скругл._углы_665_копия_8_1_">
   <g>
    <path class="fil17" d="M2045.5 1493.01l-721.94 0c-14.71,0 -26.74,12.04 -26.74,26.74l0 195.86c0,14.71 12.03,26.74 26.74,26.74l721.94 0c14.7,0 26.74,-12.03 26.74,-26.74l0 -195.86c0,-14.7 -12.04,-26.74 -26.74,-26.74z"/>
   </g>
  </g>
  <g id="Эллипс_667_копия_8">
   <g>
    <path class="fil18" d="M1445.89 1592.61c-17.38,0 -30.75,14.04 -30.75,31.42 0,17.38 14.04,31.42 30.75,31.42 17.38,0 30.75,-14.04 30.75,-31.42 0.66,-17.38 -13.37,-31.42 -30.75,-31.42zm93.58 0c-17.38,0 -31.42,14.04 -31.42,31.42 0,17.38 14.04,31.42 31.42,31.42 17.38,0 31.42,-14.04 31.42,-31.42 -0.67,-17.38 -14.04,-31.42 -31.42,-31.42zm92.92 0c-17.38,0 -31.42,14.04 -31.42,31.42 0,17.38 14.04,31.42 31.42,31.42 17.38,0 31.42,-14.04 31.42,-31.42 0,-17.38 -14.04,-31.42 -31.42,-31.42zm93.58 0c-17.38,0 -30.75,14.04 -30.75,31.42 0,17.38 14.04,31.42 30.75,31.42 16.71,0 30.75,-14.04 30.75,-31.42 0,-17.38 -13.37,-31.42 -30.75,-31.42zm92.92 0c-17.38,0 -31.42,14.04 -31.42,31.42 0,17.38 14.04,31.42 31.42,31.42 17.38,0 31.42,-14.04 31.42,-31.42 0,-17.38 -14.04,-31.42 -31.42,-31.42zm93.58 0c-17.38,0 -30.75,14.04 -30.75,31.42 0,17.38 14.04,31.42 30.75,31.42 17.38,0 30.75,-14.04 30.75,-31.42 0.67,-17.38 -13.37,-31.42 -30.75,-31.42z"/>
   </g>
  </g>
  <path class="fil19" d="M1224.76 1881.58c-6.46,0.75 -12.46,3.7 -17,8.35 -3.41,3.37 -6.64,6.84 -10.09,10.25 -1.73,1.77 -3.48,3.5 -5.23,5.25 -1.74,1.75 -3.67,3.61 -5.49,5.44 -1.81,1.84 -3.32,3.45 -5,5.16 -2.62,2.63 -5.25,5.25 -7.87,7.9 -2.02,2.08 -3.99,4.23 -5.98,6.31 -1.17,1.24 -2.44,2.39 -3.54,3.7 -4.57,5.57 -7.06,12.54 -7.06,19.75 0,0.42 0,0.86 0.02,1.28 0.1,4.13 1.18,8.18 3.17,11.81 1.13,2.19 2.44,4.29 3.91,6.27 0.98,1.37 1.69,1.35 2.97,0.29 0.25,-0.21 0.47,-0.43 0.69,-0.67 1.26,-1.33 2.5,-2.66 3.78,-3.98 1.82,-1.91 3.68,-3.81 5.49,-5.74 1.82,-1.92 3.79,-4.05 5.69,-6.04 0.91,-0.97 1.88,-1.87 2.79,-2.83 1.95,-2.06 3.85,-4.18 5.8,-6.22 1.95,-2.04 3.92,-3.94 5.82,-5.93 1.91,-1.99 4.25,-4.43 6.4,-6.64 2.14,-2.22 3.96,-4.08 5.95,-6.11 2.59,-2.68 5.12,-5.43 7.68,-8.11 1.59,-1.63 3.23,-3.21 4.83,-4.82 2.21,-2.21 4.27,-4.43 6.44,-6.64 2.17,-2.21 3.78,-3.7 5.64,-5.6 4.16,-4.2 8.31,-8.43 12.46,-12.68 0.26,-0.26 0.51,-0.54 0.75,-0.84 1.02,-1.28 1.1,-1.57 -0.16,-2.47 -1.92,-1.52 -3.98,-2.85 -6.15,-3.99 -3.84,-1.79 -8.02,-2.72 -12.25,-2.72l-0.21 0c-1.42,0 -2.83,0.09 -4.23,0.26l-0.02 -0.02 0 0.03zm36.63 27.25l0 0 -0.27 0c-3.67,0 -7.16,1.62 -9.53,4.43 -0.22,0.23 -0.44,0.45 -0.67,0.66l-6.77 6.64c-2.21,2.22 -4.61,4.63 -6.93,6.96 -1.92,1.92 -3.85,3.8 -5.75,5.73 -1.9,1.93 -3.94,4.07 -6,6.09 -2.06,2.01 -4.25,4.12 -6.38,6.2l-7.55 7.61 -14.03 14.03c-6.2,6.23 -12.39,12.44 -18.57,18.64 -1.19,1.17 -1.22,1.33 0,2.59 2.97,3 5.98,5.97 8.85,9 1.78,1.88 4.13,3.13 6.69,3.56 2.41,0.48 4.91,0.4 7.28,-0.25 1.78,-0.44 3.42,-1.31 4.78,-2.54l7.35 -7.1c1.73,-1.66 3.48,-3.3 5.18,-4.98 3.41,-3.37 6.77,-6.77 10.18,-10.12 2.77,-2.73 5.6,-5.43 8.41,-8.15l11.53 -11.23c3.58,-3.52 7.19,-7.06 10.82,-10.58 0.73,-1.09 2.2,-1.38 3.29,-0.65 0.4,0.28 0.71,0.66 0.88,1.12 1.85,2.69 2.84,5.88 2.84,9.15 0,0.56 -0.03,1.11 -0.09,1.67 -0.3,3.29 -1.66,6.4 -3.87,8.85 -2.66,2.86 -5.49,5.56 -8.25,8.3 -1.97,1.95 -3.98,3.86 -5.95,5.82 -2.55,2.53 -5.05,5.1 -7.6,7.62 -0.37,0.42 -0.73,0.86 -1.12,1.26l-2.5 2.59c-1.88,1.88 -3.79,3.7 -5.63,5.58 -1.84,1.88 -3.96,4.07 -5.92,6.13 -0.18,0.19 -0.38,0.32 -0.55,0.5 -2.22,2.06 -4.26,4.13 -6.36,6.2 -0.99,0.97 -1.95,1.97 -2.92,2.94 -1.68,1.71 -3.41,3.38 -5.03,5.12 -0.99,1.04 -0.99,1.68 0.18,2.5 1.93,1.48 3.98,2.79 6.13,3.91 5.36,2.43 11.29,3.27 17.11,2.44 5.78,-0.69 11.19,-3.16 15.5,-7.06 3.27,-2.88 6.2,-6.11 9.25,-9.21 2.21,-2.21 4.43,-4.58 6.79,-6.86l6.4 -6.44c1.95,-1.97 3.88,-3.94 5.85,-5.89 1.97,-1.95 4.42,-4.27 6.64,-6.47 2.21,-2.19 4.42,-4.42 6.64,-6.77 1.76,-1.79 3.39,-3.72 4.87,-5.75 2.76,-4.18 4.49,-8.95 5.03,-13.92 0.3,-2.47 0.3,-4.97 0,-7.44 -0.66,-4.4 -2.25,-8.6 -4.67,-12.33 -1.74,-2.64 -3.83,-5.04 -6.2,-7.13 -6.13,-6.08 -12.24,-12.21 -18.24,-18.44 -2.64,-2.94 -6.41,-4.62 -10.36,-4.62l-0.09 0 -0.66 0.09 -0.01 0z"/>
 </g>
</svg>
