<?xml version="1.0" encoding="UTF-8"?>
<!DOCTYPE svg PUBLIC "-//W3C//DTD SVG 1.1//EN" "http://www.w3.org/Graphics/SVG/1.1/DTD/svg11.dtd">
<!-- Creator: CorelDRAW 2021 (64-Bit) -->
<svg xmlns="http://www.w3.org/2000/svg" xml:space="preserve" width="2480px" height="3508px" version="1.1" style="shape-rendering:geometricPrecision; text-rendering:geometricPrecision; image-rendering:optimizeQuality; fill-rule:evenodd; clip-rule:evenodd"
viewBox="0 0 2480 3507.43"
 xmlns:xlink="http://www.w3.org/1999/xlink"
 xmlns:xodm="http://www.corel.com/coreldraw/odm/2003">
 <defs>
  <style type="text/css">
   <![CDATA[
    .str0 {stroke:#D6E1EE;stroke-width:13.37;stroke-linecap:round;stroke-miterlimit:22.9256}
    .str1 {stroke:#D6E1EE;stroke-width:13.37;stroke-linecap:round;stroke-linejoin:round;stroke-miterlimit:22.9256}
    .fil28 {fill:none;fill-rule:nonzero}
    .fil7 {fill:#AD733B}
    .fil17 {fill:#25272F;fill-rule:nonzero}
    .fil13 {fill:#303740;fill-rule:nonzero}
    .fil16 {fill:#3E4853;fill-rule:nonzero}
    .fil8 {fill:#3F4853;fill-rule:nonzero}
    .fil0 {fill:#404853;fill-rule:nonzero}
    .fil24 {fill:#424B56;fill-rule:nonzero}
    .fil14 {fill:#495463;fill-rule:nonzero}
    .fil4 {fill:#4C5661;fill-rule:nonzero}
    .fil3 {fill:#505B67;fill-rule:nonzero}
    .fil23 {fill:#566271;fill-rule:nonzero}
    .fil2 {fill:#606B78;fill-rule:nonzero}
    .fil20 {fill:#626D7A;fill-rule:nonzero}
    .fil15 {fill:#667483;fill-rule:nonzero}
    .fil22 {fill:#788491;fill-rule:nonzero}
    .fil25 {fill:#8898AC;fill-rule:nonzero}
    .fil19 {fill:#AAB6C5;fill-rule:nonzero}
    .fil27 {fill:#B3C5DB;fill-rule:nonzero}
    .fil18 {fill:#B6C4D4;fill-rule:nonzero}
    .fil11 {fill:#BECEE2;fill-rule:nonzero}
    .fil12 {fill:#CAD9EA;fill-rule:nonzero}
    .fil10 {fill:#CB4F51;fill-rule:nonzero}
    .fil6 {fill:#D4A527;fill-rule:nonzero}
    .fil9 {fill:#D6E1EE;fill-rule:nonzero}
    .fil5 {fill:#E4B22D;fill-rule:nonzero}
    .fil21 {fill:#363F48;fill-rule:nonzero;fill-opacity:0.250980}
    .fil26 {fill:#303740;fill-rule:nonzero;fill-opacity:0.400000}
    .fil1 {fill:black;fill-rule:nonzero;fill-opacity:0.709804}
   ]]>
  </style>
 </defs>
 <g id="Layer_x0020_1">
  <metadata id="CorelCorpID_0Corel-Layer"/>
  <path id="Эллипс_539_копия_3" class="fil0" d="M307.49 2833.28c0,-27.4 22.73,-50.13 50.14,-50.13 27.41,0 50.13,22.73 50.13,50.13 0,27.41 -22.72,50.14 -50.13,50.14 -27.41,0 -50.14,-22.73 -50.14,-50.14l0 0zm1597.63 -467.92c0,-50.14 40.11,-90.24 90.24,-90.24 50.14,0 90.25,40.1 90.25,90.24 0,50.13 -40.11,90.24 -90.25,90.24l0 0c-50.13,0 -90.24,-40.11 -90.24,-90.24zm-1697.9 -1350.3c0,-171.79 139.04,-310.83 310.84,-310.83 171.79,0 310.84,139.04 310.84,310.83 0,171.8 -139.05,310.84 -310.84,310.84 -171.8,0 -310.84,-139.04 -310.84,-310.84zm2038.82 130.35c0,-51.47 42.11,-93.58 93.58,-93.58 51.47,0 93.59,42.11 93.59,93.58 0,51.47 -42.12,93.59 -93.59,93.59 -51.47,0 -93.58,-42.12 -93.58,-93.59zm-2012.08 -501.35c0,-7.35 6.02,-13.37 13.37,-13.37 7.36,0 13.37,6.02 13.37,13.37 0,7.36 -6.01,13.37 -13.37,13.37 -7.35,0 -13.37,-6.01 -13.37,-13.37z"/>
  <path id="Прямоугольник_скругл._углы_966" class="fil1" d="M451.88 1148.75l1503.38 0c36.76,0 66.84,30.09 66.84,66.85l0 1000.02c0,36.77 -30.08,66.85 -66.84,66.85l-1503.38 0c-36.76,0 -66.84,-30.08 -66.84,-66.85l0 -1000.02c0,-36.76 30.08,-66.85 66.84,-66.85z"/>
  <path id="Прямоугольник_скругл._углы_966_копия_3" class="fil2" d="M389.05 1098.62l1629.71 0c36.77,0 66.85,30.08 66.85,66.85l0 1000.02c0,36.76 -30.08,66.84 -66.85,66.84l-1629.71 0c-36.77,0 -66.85,-30.08 -66.85,-66.84l0 -1000.02c0,-37.44 29.41,-66.85 66.85,-66.85z"/>
  <path id="Прямоугольник_скругл._углы_966_копия_2" class="fil2" d="M985.32 2313.89l443.19 0c18.71,0 33.42,14.7 33.42,33.42l0 28.08c0,18.71 -14.71,33.42 -33.42,33.42l-443.19 0c-18.72,0 -33.43,-14.71 -33.43,-33.42l0 -28.08c0,-18.72 14.71,-33.42 33.43,-33.42z"/>
  <path id="Прямоугольник_скругл._углы_966_копия" class="fil3" d="M401.08 1132.04l1611 0c22.05,0 40.1,18.05 40.1,40.11l0 862.32 0 0 -1691.21 0 0 0 0 -862.32c0,-22.06 18.05,-40.11 40.11,-40.11z"/>
  <circle id="Эллипс_969" class="fil4" cx="1203.9" cy="2131.4" r="44.12"/>
  <circle id="Эллипс_584_копия_3" class="fil5" cx="1195.88" cy="1902.11" r="118.32"/>
  <circle id="Эллипс_584_копия_2" class="fil6" cx="1195.21" cy="1901.44" r="98.26"/>
  <path class="fil7" d="M1190.35 1845.56c-5.94,0.68 -11.46,3.39 -15.63,7.67 -3.14,3.1 -6.11,6.29 -9.28,9.42 -1.59,1.63 -3.2,3.22 -4.8,4.83 -1.61,1.61 -3.38,3.32 -5.05,5.01 -1.67,1.69 -3.06,3.17 -4.6,4.74 -2.42,2.41 -4.83,4.83 -7.24,7.26 -1.85,1.92 -3.66,3.89 -5.49,5.8 -1.08,1.14 -2.25,2.2 -3.26,3.4 -4.2,5.12 -6.5,11.54 -6.5,18.16 0,0.39 0,0.79 0.03,1.18 0.08,3.8 1.08,7.53 2.91,10.86 1.04,2.02 2.24,3.95 3.6,5.76 0.89,1.27 1.55,1.25 2.72,0.27 0.23,-0.19 0.44,-0.39 0.64,-0.61 1.16,-1.22 2.3,-2.44 3.48,-3.66 1.67,-1.76 3.38,-3.5 5.05,-5.28 1.67,-1.77 3.48,-3.72 5.23,-5.55 0.83,-0.9 1.72,-1.73 2.56,-2.61 1.79,-1.89 3.54,-3.84 5.33,-5.71 1.79,-1.88 3.61,-3.63 5.36,-5.46 1.75,-1.83 3.9,-4.07 5.88,-6.11 1.97,-2.03 3.64,-3.74 5.47,-5.61 2.38,-2.47 4.7,-4.99 7.06,-7.45 1.47,-1.51 2.98,-2.95 4.44,-4.44 2.04,-2.04 3.93,-4.07 5.92,-6.1 2,-2.04 3.48,-3.4 5.19,-5.16 3.83,-3.86 7.64,-7.74 11.45,-11.65 0.25,-0.24 0.48,-0.5 0.69,-0.77 0.94,-1.19 1.02,-1.45 -0.14,-2.28 -1.77,-1.39 -3.66,-2.62 -5.66,-3.67 -3.52,-1.65 -7.37,-2.5 -11.26,-2.5l-0.19 0c-1.3,0 -2.6,0.08 -3.89,0.25l-0.02 -0.03 0 0.04zm33.68 25.05l0 0 -0.24 0c-3.38,0 -6.59,1.49 -8.77,4.07 -0.2,0.21 -0.4,0.42 -0.61,0.61l-6.23 6.11c-2.03,2.03 -4.23,4.25 -6.37,6.39 -1.77,1.77 -3.54,3.5 -5.29,5.27 -1.75,1.77 -3.62,3.75 -5.52,5.6 -1.89,1.85 -3.9,3.79 -5.86,5.7l-6.94 7 -12.9 12.9c-5.7,5.73 -11.4,11.44 -17.08,17.14 -1.1,1.08 -1.12,1.22 0,2.38 2.73,2.76 5.5,5.49 8.14,8.27 1.64,1.74 3.8,2.89 6.15,3.28 2.22,0.45 4.51,0.37 6.69,-0.22 1.64,-0.41 3.15,-1.21 4.4,-2.35l6.76 -6.52c1.58,-1.53 3.2,-3.03 4.76,-4.58 3.13,-3.11 6.23,-6.23 9.36,-9.31 2.55,-2.5 5.15,-4.99 7.74,-7.49l10.59 -10.33c3.3,-3.24 6.61,-6.49 9.95,-9.73 0.67,-1 2.03,-1.26 3.03,-0.59 0.37,0.25 0.65,0.61 0.81,1.02 1.7,2.48 2.61,5.41 2.61,8.42 0,0.51 -0.03,1.02 -0.08,1.53 -0.28,3.03 -1.53,5.89 -3.56,8.15 -2.45,2.62 -5.05,5.11 -7.59,7.63 -1.81,1.79 -3.66,3.54 -5.47,5.35 -2.34,2.32 -4.64,4.68 -6.98,7 -0.35,0.39 -0.67,0.8 -1.04,1.16l-2.3 2.38c-1.72,1.73 -3.48,3.4 -5.17,5.13 -1.69,1.73 -3.64,3.75 -5.45,5.64 -0.16,0.18 -0.34,0.3 -0.51,0.46 -2.03,1.89 -3.91,3.79 -5.84,5.7 -0.91,0.9 -1.79,1.81 -2.69,2.71 -1.54,1.57 -3.13,3.1 -4.62,4.7 -0.91,0.96 -0.91,1.54 0.17,2.3 1.77,1.36 3.66,2.56 5.64,3.6 4.92,2.23 10.38,3 15.73,2.24 5.31,-0.63 10.29,-2.9 14.25,-6.49 3.01,-2.65 5.7,-5.62 8.5,-8.47 2.04,-2.04 4.07,-4.21 6.25,-6.31l5.88 -5.92c1.8,-1.81 3.57,-3.63 5.38,-5.42 1.81,-1.79 4.07,-3.92 6.1,-5.94 2.04,-2.02 4.07,-4.07 6.11,-6.23 1.62,-1.65 3.12,-3.42 4.48,-5.29 2.54,-3.84 4.12,-8.23 4.62,-12.8 0.28,-2.27 0.28,-4.57 0,-6.84 -0.6,-4.04 -2.07,-7.91 -4.29,-11.34 -1.6,-2.42 -3.52,-4.63 -5.7,-6.55 -5.64,-5.6 -11.26,-11.23 -16.77,-16.95 -2.43,-2.71 -5.89,-4.26 -9.53,-4.26l-0.08 0 -0.61 0.08 -0.01 0.01z"/>
  <path id="Прямоугольник_скругл._углы_967_копия_6" class="fil8" d="M1532.12 1900.78c-14.71,0 -26.74,-12.04 -26.74,-26.74l0 -356.29c0,-2.68 0.67,-6.02 1.34,-8.69 -0.67,-2.01 -1.34,-4.01 -1.34,-5.35l0 0c0,-6.69 5.35,-12.7 12.7,-12.7l221.26 0c6.69,0 12.7,5.35 12.7,12.7 0,2 -0.67,4.01 -1.33,6.01 0.66,2.68 1.33,5.35 1.33,8.69l0 355.63c0,14.7 -12.03,26.74 -26.74,26.74l-193.18 0zm-593.6 0c-14.7,0 -26.74,-12.04 -26.74,-26.74l0 -501.35c0,-14.71 12.04,-26.74 26.74,-26.74l483.3 0c14.71,0 26.74,12.03 26.74,26.74l0 501.35c0,14.7 -12.03,26.74 -26.74,26.74l-483.3 0zm-176.47 0c-14.71,0 -26.74,-12.04 -26.74,-26.74l0 -369c0,-14.7 12.03,-26.73 26.74,-26.73l41.44 0c14.71,0 26.74,12.03 26.74,26.74l0 368.99c0,14.7 -12.03,26.74 -26.74,26.74l-41.44 0zm0 -441.19c-14.71,0 -26.74,-12.03 -26.74,-26.74l0 -60.16c0,-14.71 12.03,-26.74 26.74,-26.74l41.44 0c14.71,0 26.74,12.03 26.74,26.74l0 60.16c0,14.71 -12.03,26.74 -26.74,26.74l-41.44 0zm770.07 0c-14.71,0 -26.74,-12.03 -26.74,-26.74l0 -60.16c0,-14.71 12.03,-26.74 26.74,-26.74l192.52 0c14.7,0 26.73,12.03 26.73,26.74l0 60.16c0,14.71 -12.03,26.74 -26.73,26.74l-192.52 0z"/>
  <path id="Прямоугольник_скругл._углы_967" class="fil9" d="M748.68 1452.91l66.85 0c14.7,0 26.73,12.03 26.73,26.73l0 374.34c0,14.71 -12.03,26.74 -26.73,26.74l-66.85 0c-14.71,0 -26.74,-12.03 -26.74,-26.74l0 -374.34c0,-14.7 12.03,-26.73 26.74,-26.73z"/>
  <path id="Прямоугольник_скругл._углы_967_копия" class="fil10" d="M748.68 1319.21l66.85 0c14.7,0 26.73,12.04 26.73,26.74l0 60.16c0,14.71 -12.03,26.74 -26.73,26.74l-66.85 0c-14.71,0 -26.74,-12.03 -26.74,-26.74l0 -60.16c0,-14.7 12.03,-26.74 26.74,-26.74z"/>
  <path id="Эллипс_969_копия_3" class="fil11" d="M744 1794.49c0,-19.39 15.37,-34.76 34.76,-34.76 19.39,0 34.76,15.37 34.76,34.76 0,19.39 -15.37,34.76 -34.76,34.76 0,0 0,0 0,0 -19.39,-0.67 -34.76,-16.04 -34.76,-34.76zm12.7 -82.22c0,-12.03 10.03,-22.06 22.06,-22.06 12.03,0 22.06,10.03 22.06,22.06 0,12.03 -10.03,22.06 -22.06,22.06 -12.03,0 -22.06,-9.36 -22.06,-22.06l0 0zm0 -119.66c0,-12.03 10.03,-22.05 22.06,-22.05 12.03,0 22.06,10.02 22.06,22.05 0,12.04 -10.03,22.06 -22.06,22.06 -12.03,0 -22.06,-10.02 -22.06,-22.06l0 0zm0 -75.53c0,-12.03 10.03,-22.06 22.06,-22.06 12.03,0 22.06,10.03 22.06,22.06 0,12.03 -10.03,22.06 -22.06,22.06 -12.03,0 -22.06,-10.03 -22.06,-22.06l0 0z"/>
  <path id="Прямоугольник_скругл._углы_967_копия_2" class="fil9" d="M929.16 1325.9l508.04 0c14.7,0 26.74,12.03 26.74,26.74l0 501.34c0,14.71 -12.04,26.74 -26.74,26.74l-508.04 0c-14.7,0 -26.74,-12.03 -26.74,-26.74l0 -501.34c0.01,-14.71 12.04,-26.74 26.74,-26.74z"/>
  <path id="Прямоугольник_скругл._углы_968_копия_10" class="fil11" d="M1405.11 1822.57c-3.34,0 -6.02,-2.68 -6.02,-6.02 0,-3.34 2.68,-6.02 6.02,-6.02 0,0 0,0 0,0l0 0c3.34,0 6.02,2.68 6.02,6.02 0.67,3.34 -2.68,6.02 -6.02,6.02 0,0 0,0 0,0l0 0zm-62.83 0c-3.35,0 -6.02,-2.68 -6.02,-6.02 0,-3.34 2.67,-6.02 6.02,-6.02 0,0 0,0 0,0l38.1 0c3.34,0 6.01,2.68 6.01,6.02 0,3.34 -2.67,6.01 -6.01,6.01 0,0 0,0 0,0l-38.1 0.01zm-94.26 0c-3.34,0 -6.01,-2.68 -6.01,-6.02 0,-3.34 2.67,-6.02 6.01,-6.02l12.7 0c3.34,0 6.02,2.68 6.02,6.02 0,3.34 -2.68,6.01 -6.02,6.01 0,0 0,0 0,0l-12.7 0.01zm-139.04 0c-3.34,0 -6.01,-2.68 -6.01,-6.02 0,-3.34 2.67,-6.02 6.01,-6.02 0,0 0,0 0,0l56.82 0c3.34,0 6.02,2.68 6.02,6.02 0,3.34 -2.68,6.01 -6.02,6.01l-56.82 0.01zm-81.55 0c-3.34,0 -6.02,-2.68 -6.02,-6.02 0,-3.34 2.68,-6.02 6.02,-6.02l56.82 0c3.34,0 6.01,2.68 6.01,6.02 0,3.34 -2.67,6.01 -6.01,6.01 0,0 0,0 0,0l-56.82 0.01zm-56.82 0c-3.34,0 -6.02,-2.68 -6.02,-6.02 0,-3.34 2.68,-6.02 6.02,-6.02 0,0 0,0 0,0l31.42 0c3.34,0 6.01,2.68 6.01,6.02 0,3.34 -2.67,6.01 -6.01,6.01l-31.42 0.01zm434.5 -62.84c-3.34,0 -6.02,-2.67 -6.02,-6.02 0,-3.34 2.68,-6.01 6.02,-6.01l0 0c3.34,0 6.02,2.67 6.02,6.01 0,3.35 -2.68,6.02 -6.02,6.02l0 0zm-62.83 0c-3.35,0 -6.02,-2.67 -6.02,-6.02 0,-3.34 2.67,-6.01 6.02,-6.01l37.43 0c3.34,0 6.01,2.67 6.01,6.01 0,3.35 -2.67,6.02 -6.01,6.02l-37.43 0zm-94.26 0c-3.34,0 -6.01,-2.67 -6.01,-6.02 0,-3.34 2.67,-6.01 6.01,-6.01l0 0 12.7 0c3.34,0 6.02,2.67 6.02,6.01 0,3.35 -2.68,6.02 -6.02,6.02l-12.7 0zm-139.04 0c-3.34,0 -6.01,-2.67 -6.01,-6.02 0,-3.34 2.67,-6.01 6.01,-6.01l0 0 56.82 0c3.34,0 6.02,2.67 6.02,6.01 0,3.35 -2.68,6.02 -6.02,6.02l-56.82 0zm-81.55 0c-3.34,0 -6.02,-2.67 -6.02,-6.02 0,-3.34 2.68,-6.01 6.02,-6.01l56.82 0c3.34,0 6.01,2.67 6.01,6.01 0,3.35 -2.67,6.02 -6.01,6.02l-56.82 0zm-56.82 0c-3.34,0 -6.02,-2.67 -6.02,-6.02 0,-3.34 2.68,-6.01 6.02,-6.01l31.42 0c3.34,0 6.01,2.67 6.01,6.01 0,3.35 -2.67,6.02 -6.01,6.02l-31.42 0zm434.5 -62.83c-3.34,0 -6.02,-2.68 -6.02,-6.02 0,-3.34 2.68,-6.02 6.02,-6.02l0 0c3.34,0 6.02,2.68 6.02,6.02 0,3.34 -2.68,6.02 -6.02,6.02l0 0zm-62.83 0c-3.35,0 -6.02,-2.68 -6.02,-6.02 0,-3.34 2.67,-6.02 6.02,-6.02l37.43 0c3.34,0 6.01,2.68 6.01,6.02 0,3.34 -2.67,6.01 -6.01,6.01l-37.43 0.01zm-94.26 0c-3.34,0 -6.01,-2.68 -6.01,-6.02 0,-3.34 2.67,-6.02 6.01,-6.02l0 0 12.7 0c3.34,0 6.02,2.68 6.02,6.02 0,3.34 -2.68,6.01 -6.02,6.01l-12.7 0.01zm-139.04 0c-3.34,0 -6.01,-2.68 -6.01,-6.02 0,-3.34 2.67,-6.02 6.01,-6.02l0 0 56.82 0c3.34,0 6.02,2.68 6.02,6.02 0,3.34 -2.68,6.01 -6.02,6.01l-56.82 0.01zm-81.55 0c-3.34,0 -6.02,-2.68 -6.02,-6.02 0,-3.34 2.68,-6.02 6.02,-6.02l56.82 0c3.34,0 6.01,2.68 6.01,6.02 0,3.34 -2.67,6.01 -6.01,6.01l-56.82 0.01zm-56.82 0c-3.34,0 -6.02,-2.68 -6.02,-6.02 0,-3.34 2.68,-6.02 6.02,-6.02l31.42 0c3.34,0 6.01,2.68 6.01,6.02 0,3.34 -2.67,6.01 -6.01,6.01l-31.42 0.01zm434.5 -63.51c-3.34,0 -6.02,-2.67 -6.02,-6.02 0,-3.34 2.68,-6.01 6.02,-6.01l0 0c3.34,0 6.02,2.67 6.02,6.01 0,3.35 -2.68,6.02 -6.02,6.02l0 0zm-62.83 0c-3.35,0 -6.02,-2.67 -6.02,-6.02 0,-3.34 2.67,-6.01 6.02,-6.01l37.43 0c3.34,0 6.01,2.67 6.01,6.01 0,3.35 -2.67,6.02 -6.01,6.02l-37.43 0zm-94.26 0c-3.34,0 -6.01,-2.67 -6.01,-6.02 0,-3.34 2.67,-6.01 6.01,-6.01l0 0 12.7 0c3.34,0 6.02,2.67 6.02,6.01 0,3.35 -2.68,6.02 -6.02,6.02l-12.7 0zm-139.04 0c-3.34,0 -6.01,-2.67 -6.01,-6.02 0,-3.34 2.67,-6.01 6.01,-6.01l0 0 56.82 0c3.34,0 6.02,2.67 6.02,6.01 0,3.35 -2.68,6.02 -6.02,6.02l-56.82 0zm-81.55 0c-3.34,0 -6.02,-2.67 -6.02,-6.02 0,-3.34 2.68,-6.01 6.02,-6.01l56.82 0c3.34,0 6.01,2.67 6.01,6.01 0,3.35 -2.67,6.02 -6.01,6.02l-56.82 0zm-56.82 0c-3.34,0 -6.02,-2.67 -6.02,-6.02 0,-3.34 2.68,-6.01 6.02,-6.01l31.42 0c3.34,0 6.01,2.67 6.01,6.01 0,3.35 -2.67,6.02 -6.01,6.02l-31.42 0zm434.5 -62.83c-3.34,0 -6.02,-2.68 -6.02,-6.02 0,-3.34 2.68,-6.02 6.02,-6.02l0 0c3.34,0 6.02,2.68 6.02,6.02 0,3.34 -2.68,6.02 -6.02,6.02l0 0zm-62.83 0c-3.35,0 -6.02,-2.68 -6.02,-6.02 0,-3.34 2.67,-6.02 6.02,-6.02l37.43 0c3.34,0 6.01,2.68 6.01,6.02 0,3.34 -2.67,6.01 -6.01,6.01l-37.43 0.01zm-94.26 0c-3.34,0 -6.01,-2.68 -6.01,-6.02 0,-3.34 2.67,-6.02 6.01,-6.02l0 0 12.7 0c3.34,0 6.02,2.68 6.02,6.02 0,3.34 -2.68,6.01 -6.02,6.01l-12.7 0.01zm-139.04 0c-3.34,0 -6.01,-2.68 -6.01,-6.02 0,-3.34 2.67,-6.02 6.01,-6.02l0 0 56.82 0c3.34,0 6.02,2.68 6.02,6.02 0,3.34 -2.68,6.01 -6.02,6.01l-56.82 0.01zm-81.55 0c-3.34,0 -6.02,-2.68 -6.02,-6.02 0,-3.34 2.68,-6.02 6.02,-6.02l56.82 0c3.34,0 6.01,2.68 6.01,6.02 0,3.34 -2.67,6.01 -6.01,6.01l-56.82 0.01zm-56.82 0c-3.34,0 -6.02,-2.68 -6.02,-6.02 0,-3.34 2.68,-6.02 6.02,-6.02l31.42 0c3.34,0 6.01,2.68 6.01,6.02 0,3.34 -2.67,6.01 -6.01,6.01l-31.42 0.01zm434.5 -62.84c-3.34,0 -6.02,-2.67 -6.02,-6.02 0,-3.34 2.68,-6.01 6.02,-6.01l0 0c3.34,0 6.02,2.67 6.02,6.01 0,3.34 -2.68,6.02 -6.02,6.02l0 0zm-62.83 0c-3.35,0 -6.02,-2.67 -6.02,-6.02 0,-3.34 2.67,-6.01 6.02,-6.01l37.43 0c3.34,0 6.01,2.67 6.01,6.01 0,3.34 -2.67,6.02 -6.01,6.02l-37.43 0zm-94.26 0c-3.34,0 -6.01,-2.67 -6.01,-6.02 0,-3.34 2.67,-6.01 6.01,-6.01l0 0 12.7 0c3.34,0 6.02,2.67 6.02,6.01 0,3.34 -2.68,6.02 -6.02,6.02l-12.7 0zm-139.04 0c-3.34,0 -6.01,-2.67 -6.01,-6.02 0,-3.34 2.67,-6.01 6.01,-6.01l0 0 56.82 0c3.34,0 6.02,2.67 6.02,6.01 0,3.34 -2.68,6.02 -6.02,6.02l-56.82 0zm-81.55 0c-3.34,0 -6.02,-2.67 -6.02,-6.02 0,-3.34 2.68,-6.01 6.02,-6.01l56.82 0c3.34,0 6.01,2.67 6.01,6.01 0,3.34 -2.67,6.02 -6.01,6.02l-56.82 0zm-56.82 0c-3.34,0 -6.02,-2.67 -6.02,-6.02 0,-3.34 2.68,-6.01 6.02,-6.01l31.42 0c3.34,0 6.01,2.67 6.01,6.01 0,3.34 -2.67,6.02 -6.01,6.02l-31.42 0zm434.5 -62.84c-3.34,0 -6.02,-2.67 -6.02,-6.01 0,-3.34 2.68,-6.02 6.02,-6.02l0 0c3.34,0 6.02,2.68 6.02,6.02 0,3.34 -2.68,6.01 -6.02,6.01l0 0zm-62.83 0c-3.35,0 -6.02,-2.67 -6.02,-6.01 0,-3.34 2.67,-6.02 6.02,-6.02l37.43 0c3.34,0 6.01,2.68 6.01,6.02 0,3.34 -2.67,6.01 -6.01,6.01l-37.43 0zm-94.26 0c-3.34,0 -6.01,-2.67 -6.01,-6.01 0,-3.34 2.67,-6.02 6.01,-6.02l0 0 12.7 0c3.34,0 6.02,2.68 6.02,6.02 0,3.34 -2.68,6.01 -6.02,6.01l-12.7 0zm-139.04 0c-3.34,0 -6.01,-2.67 -6.01,-6.01 0,-3.34 2.67,-6.02 6.01,-6.02l0 0 56.82 0c3.34,0 6.02,2.68 6.02,6.02 0,3.34 -2.68,6.01 -6.02,6.01l-56.82 0zm-81.55 0c-3.34,0 -6.02,-2.67 -6.02,-6.01 0,-3.34 2.68,-6.02 6.02,-6.02l56.82 0c3.34,0 6.01,2.68 6.01,6.02 0,3.34 -2.67,6.01 -6.01,6.01l-56.82 0zm-56.82 0c-3.34,0 -6.02,-2.67 -6.02,-6.01 0,-3.34 2.68,-6.02 6.02,-6.02l31.42 0c3.34,0 6.01,2.68 6.01,6.02 0,3.34 -2.67,6.01 -6.01,6.01l-31.42 0zm434.5 -62.83c-3.34,0 -6.02,-2.68 -6.02,-6.02l0 0 0 0c0,-3.34 2.68,-6.01 6.02,-6.01l0 0 0 0c3.34,0 6.02,2.67 6.02,6.01l0 0 0 0c0.67,3.34 -2.68,6.02 -6.02,6.02 0,0 0,0 0,0l0 0zm-62.83 0c-3.35,0 -6.02,-2.68 -6.02,-6.02 0,0 0,0 0,0l0 0c0,-3.34 2.67,-6.01 6.02,-6.01l37.43 0c3.34,0 6.01,2.67 6.01,6.01l0 0 0 0c0,3.34 -2.67,6.02 -6.01,6.02l0 0 -37.43 0zm-94.26 0c-3.34,0 -6.01,-2.68 -6.01,-6.02 0,0 0,0 0,0l0 0c0,-3.34 2.67,-6.01 6.01,-6.01l0 0 12.7 0c3.34,0 6.02,2.67 6.02,6.01l0 0 0 0c0,3.34 -2.68,6.02 -6.02,6.02 0,0 0,0 0,0l-12.7 0zm-139.04 0c-3.34,0 -6.01,-2.68 -6.01,-6.02l0 0 0 0c0,-3.34 2.67,-6.01 6.01,-6.01l0 0 56.82 0c3.34,0 6.02,2.67 6.02,6.01l0 0 0 0c0,3.34 -2.68,6.02 -6.02,6.02 0,0 0,0 0,0l-56.82 0zm-81.55 0c-3.34,0 -6.02,-2.68 -6.02,-6.02l0 0 0 0c0,-3.34 2.68,-6.01 6.02,-6.01l0 0 56.82 0c3.34,0 6.01,2.67 6.01,6.01l0 0 0 0c0,3.34 -2.67,6.02 -6.01,6.02 0,0 0,0 0,0l-56.82 0zm-56.82 0c-3.34,0 -6.02,-2.68 -6.02,-6.02 0,0 0,0 0,0l0 0c0,-3.34 2.68,-6.01 6.02,-6.01l0 0 31.42 0c3.34,0 6.01,2.67 6.01,6.01l0 0 0 0c0,3.34 -2.67,6.02 -6.01,6.02l0 0 -31.42 0z"/>
  <path id="Прямоугольник_скругл._углы_967_копия_3" class="fil9" d="M1517.41 1466.28l220.6 0c14.7,0 26.73,12.03 26.73,26.73l0 354.29c0,14.71 -12.03,26.74 -26.73,26.74l-220.6 0c-14.7,0 -26.74,-12.03 -26.74,-26.74l0 -354.29c0,-14.7 12.04,-26.73 26.74,-26.73z"/>
  <path id="Прямоугольник_скругл._углы_969_копия_2" class="fil11" d="M1574.9 1797.16c0,-6.68 5.35,-12.7 12.7,-12.7 7.36,0 12.7,5.35 12.7,12.7 0,7.36 -5.34,12.71 -12.7,12.71l0 0c-6.68,0 -12.7,-5.35 -12.7,-12.71zm44.12 6.69c-3.34,0 -6.02,-2.67 -6.02,-6.02 0,-3.34 2.68,-6.01 6.02,-6.01l0 0 88.24 0c3.34,0 6.01,2.67 6.01,6.01 0,3.34 -2.67,6.02 -6.01,6.02l-88.24 0zm-88.24 -31.42c0,-17.38 14.04,-31.42 31.42,-31.42 17.38,0 31.42,14.04 31.42,31.42 0,0.67 0,1.34 0,2.01 -10.7,-5.35 -24.07,-0.67 -29.42,10.69 -2.67,6.02 -2.67,12.7 0,18.72 -0.66,0 -1.33,0 -2,0 -16.71,0 -31.42,-14.04 -31.42,-31.42l0 0zm88.24 12.7c-3.34,0 -6.02,-2.67 -6.02,-6.01 0,-3.35 2.68,-6.02 6.02,-6.02l0 0 37.43 0c3.35,0 6.02,2.67 6.02,6.02 0,3.34 -2.67,6.01 -6.02,6.01l-37.43 0zm-44.12 -107.62c0,-6.68 5.35,-12.7 12.7,-12.7 7.36,0 12.7,5.35 12.7,12.7 0,7.35 -5.34,12.7 -12.7,12.7l0 0c-6.68,0 -12.7,-5.35 -12.7,-12.7zm44.12 6.68c-3.34,0 -6.02,-2.67 -6.02,-6.01l0 0c0,-3.34 2.68,-6.02 6.02,-6.02l0 0 88.24 0c3.34,0 6.01,2.67 6.01,6.02l0 0c0,3.34 -2.67,6.01 -6.01,6.01l-88.24 0zm-88.24 -31.41c0,-17.38 14.04,-31.42 31.42,-31.42 17.38,0 31.42,14.04 31.42,31.42 0,0.66 0,1.33 0,2 -2.68,-1.34 -6.02,-2 -9.36,-2 -12.03,0 -22.06,10.02 -22.06,22.05l0 0c0,3.35 0.67,6.69 2,9.36 -0.66,0 -1.33,0 -2,0 -17.38,0 -31.42,-14.03 -31.42,-31.41l0 0zm88.24 12.7c-3.34,0 -6.02,-2.68 -6.02,-6.02 0,-3.34 2.68,-6.01 6.02,-6.01l0 0 37.43 -0.01c3.35,0 6.02,2.68 6.02,6.02 0,3.34 -2.67,6.02 -6.02,6.02l-37.43 0z"/>
  <path id="Прямоугольник_скругл._углы_969_копия_3" class="fil11" d="M1550.17 1514.4l56.82 0c3.34,0 6.01,2.68 6.01,6.02l0 0c0,3.34 -2.67,6.02 -6.01,6.02l-56.82 0c-3.34,0 -6.02,-2.68 -6.02,-6.02l0 0c-0.67,-3.34 2.67,-6.02 6.02,-6.02z"/>
  <path id="Прямоугольник_скругл._углы_969_копия_4" class="fil11" d="M1663.14 1514.4l56.82 0c3.34,0 6.01,2.68 6.01,6.02l0 0c0,3.34 -2.67,6.02 -6.01,6.02l-56.82 0c-3.34,0 -6.02,-2.68 -6.02,-6.02l0 0c0,-3.34 2.68,-6.02 6.02,-6.02z"/>
  <path id="Фигура_1664" class="fil12" d="M1537.47 1557.85l0 -6.01 201.87 0 0 6.01 -201.87 0zm94.25 -12.03l0 -50.13 6.02 0 0 50.13 -6.02 0z"/>
  <path id="Прямоугольник_скругл._углы_967_копия_3-2" class="fil13" d="M1520.09 1318.54l217.25 0c14.7,0 26.74,12.04 26.74,26.74l0 60.16c0,14.71 -12.04,26.74 -26.74,26.74l-217.25 0c-14.71,0 -26.74,-12.03 -26.74,-26.74l0 -60.16c0,-14.7 12.03,-26.74 26.74,-26.74z"/>
  <path id="Прямоугольник_скругл._углы_969_копия_7" class="fil14" d="M1550.17 1394.08c-3.34,0 -6.02,-2.67 -6.02,-6.01 0,-3.35 2.68,-6.02 6.02,-6.02l119.65 0c3.34,0 6.02,2.67 6.02,6.01 0,3.35 -2.68,6.02 -6.02,6.02l-119.65 0zm0 -24.73c-3.34,0 -6.02,-2.68 -6.02,-6.02 0,-3.34 2.68,-6.01 6.02,-6.01l56.82 0c3.34,0 6.01,2.67 6.01,6.01 0,3.34 -2.67,6.02 -6.01,6.02l-56.82 0z"/>
  <path id="_2" class="fil15" d="M1490.67 1833.93l274.07 0 0 0 0 66.85c0,14.7 -12.03,26.74 -26.73,26.74l-220.6 0c-14.7,0 -26.74,-12.04 -26.74,-26.74l0 -66.85 0 0z"/>
  <path id="Прямоугольник_скругл._углы_968_копия_6" class="fil16" d="M1490.67 1847.3l274.07 0 0 0 0 40.11c0,14.7 -12.03,26.74 -26.73,26.74l-220.6 0c-14.7,0 -26.74,-12.04 -26.74,-26.74l0 -40.11 0 0z"/>
  <path id="Фигура_1650_копия" class="fil17" d="M1490.67 2385.41c0,72.87 58.83,131.69 131.69,131.69 66.18,0 139.04,-38.77 139.04,-131.69l0 -270.72c0,-25.41 -72.86,-50.14 -131.69,-50.14 -58.82,0 -139.04,19.39 -139.04,50.14l0 270.72z"/>
  <path id="Прямоугольник_скругл._углы_968" class="fil18" d="M1556.85 1853.98l135.7 0c14.71,0 26.74,12.04 26.74,26.74l0 139.04c0,14.71 -12.03,26.74 -26.74,26.74l-135.7 0c-14.7,0 -26.74,-12.03 -26.74,-26.74l0 -139.04c0,-14.7 12.04,-26.74 26.74,-26.74z"/>
  <path id="Прямоугольник_скругл._углы_968_копия_2" class="fil9" d="M1556.85 1861.34l135.7 0c14.71,0 26.74,12.03 26.74,26.74l0 139.04c0,14.7 -12.03,26.74 -26.74,26.74l-135.7 -0.01c-14.7,0 -26.74,-12.03 -26.74,-26.73l0 -139.05c0,-14.7 12.04,-26.73 26.74,-26.73z"/>
  <circle id="Прямоугольник_скругл._углы_968_копия_3" class="fil19" cx="1578.24" cy="1934.2" r="16.04"/>
  <circle id="Прямоугольник_скругл._углы_968_копия_4" class="fil19" cx="1677.84" cy="1934.2" r="16.04"/>
  <path id="Прямоугольник_скругл._углы_968_копия" class="fil20" d="M1538.8 2003.72l171.13 0c14.71,0 26.74,12.03 26.74,26.74l0 32.09c0,14.7 -12.03,26.73 -26.74,26.73l-171.13 0c-14.7,0 -26.74,-12.03 -26.74,-26.74l0 -32.08c0,-14.71 12.04,-26.74 26.74,-26.74z"/>
  <path id="Фигура_1651_копия_2" class="fil21" d="M1512.06 2049.18c0,-9.36 21.39,-28.08 109.63,-28.08 88.24,0 114.98,16.71 114.98,28.08l0 18.71c0,0 -26.07,-20.72 -114.98,-20.72 -88.9,0 -109.63,20.72 -109.63,20.72l0 -18.71z"/>
  <path id="Фигура_1650" class="fil3" d="M1490.67 2360.01c0,72.86 58.83,131.69 131.69,131.69 66.18,0 139.04,-38.77 139.04,-131.69l0 -270.73c0,-25.4 -72.86,-50.13 -131.69,-50.13 -58.82,0 -139.04,19.38 -139.04,50.13l0 270.73z"/>
  <path id="Фигура_1651" class="fil22" d="M1490.67 2089.28c0,-18.05 25.4,-53.47 131.69,-53.47 106.29,0 139.04,32.08 139.04,53.47l0 35.43c0,0 -31.42,-39.44 -139.04,-39.44 -107.62,0 -131.69,39.44 -131.69,39.44l0 -35.43z"/>
  <path id="Фигура_1651_копия" class="fil20" d="M1490.67 2099.98c0,-18.05 25.4,-53.48 131.69,-53.48 106.29,0 139.04,32.09 139.04,53.48l0 35.43c0,0 -31.42,-39.44 -139.04,-39.44 -107.62,0 -131.69,39.44 -131.69,39.44l0 -35.43z"/>
  <path id="Прямоугольник_скругл._углы_969" class="fil23" d="M1617.68 2161.48l26.74 0c36.77,0 66.85,30.08 66.85,66.84l0 53.48c0,36.77 -30.08,66.85 -66.85,66.85l-26.74 0c-36.76,0 -66.85,-30.08 -66.85,-66.85l0 -53.48c0.01,-36.76 30.09,-66.84 66.85,-66.84z"/>
  <path id="Прямоугольник_скругл._углы_969_копия" class="fil24" d="M1617.68 2161.48l26.74 0c36.77,0 66.85,30.08 66.85,66.84l0 46.13c0,36.76 -30.08,66.84 -66.85,66.84l-26.74 0c-36.76,0 -66.85,-30.08 -66.85,-66.84l0.01 -46.13c0,-36.76 30.08,-66.84 66.84,-66.84z"/>
  <path id="Прямоугольник_6_копия" class="fil25" d="M1651.1 2301.85l0 -26.73 26.74 0 0 8.02c0,10.02 -8.02,18.71 -18.71,18.71l0 0 -8.03 0zm-33.42 0l0 -26.73 26.74 0 0 26.73 -26.74 0zm-14.7 0c-10.03,0 -18.72,-8.02 -18.72,-18.71l0 0 0 -8.02 26.74 0 0 26.73 -8.02 0zm-18.72 -33.42l0 -26.74 26.74 0 0 26.74 -26.74 0zm33.42 0l0 -60.16 44.12 0c8.69,0 16.04,7.35 16.04,16.04l0 44.12 -60.16 0zm-33.42 -33.42l0 -8.02c0,-10.03 8.02,-18.72 18.72,-18.72l0 0 8.02 0 0 26.74 -26.74 0z"/>
  <path id="Прямоугольник_скругл._углы_968_копия_7" class="fil26" d="M1490.67 1860.67l274.07 0 0 0 0 20.05c0,14.71 -12.03,26.74 -26.73,26.74l-220.6 0c-14.7,0 -26.74,-12.03 -26.74,-26.74l0 -20.05 0 0z"/>
  <path id="Прямоугольник_скругл._углы_968_копия_8" class="fil27" d="M1490.67 1833.93l274.07 0 0 0 0 20.05c0,14.71 -12.03,26.74 -26.73,26.74l-220.6 0c-14.7,0 -26.74,-12.03 -26.74,-26.74l0 -20.05 0 0z"/>
  <path id="Фигура_1665" class="fil28 str0" d="M1570.89 2308.54l0 0c-172.46,156.42 -370.33,-54.82 -371,-237.97"/>
  <path id="Фигура_1666" class="fil28 str1" d="M1240.67 2112.01c0,0 -36.77,-48.8 -44.79,-47.46 -8.02,1.34 -20.72,60.83 -20.72,60.83"/>
 </g>
</svg>
