<?xml version="1.0" encoding="UTF-8"?>
<!DOCTYPE svg PUBLIC "-//W3C//DTD SVG 1.0//EN" "http://www.w3.org/TR/2001/REC-SVG-20010904/DTD/svg10.dtd">
<!-- Creator: CorelDRAW 2021 (64-Bit) -->
<svg xmlns="http://www.w3.org/2000/svg" xml:space="preserve" width="2480px" height="3508px" version="1.0" style="shape-rendering:geometricPrecision; text-rendering:geometricPrecision; image-rendering:optimizeQuality; fill-rule:evenodd; clip-rule:evenodd"
viewBox="0 0 2480 3507.43"
 xmlns:xlink="http://www.w3.org/1999/xlink"
 xmlns:xodm="http://www.corel.com/coreldraw/odm/2003">
 <defs>
  <style type="text/css">
   <![CDATA[
    .fil0 {fill:none}
    .fil1 {fill:white;fill-rule:nonzero}
   ]]>
  </style>
 </defs>
 <g id="Layer_x0020_1">
  <metadata id="CorelCorpID_0Corel-Layer"/>
  <rect class="fil0" x="144.07" y="666.16" width="2269.6" height="2325.06"/>
  <g id="_2205675958320">
   <g>
    <path class="fil1" d="M1217.98 2255.14c6.4,3.01 12.98,5.62 19.72,7.8l2.86 0.95c6.41,1.97 12.94,3.5 19.55,4.61l3.03 0c13.75,2.13 27.74,2.13 41.49,0l3.17 0c6.51,-1.07 12.93,-2.55 19.26,-4.45l3.65 -1.11c6.38,-2.06 12.65,-4.51 18.76,-7.32l2.7 -1.27c6.17,-3.01 12.16,-6.35 17.97,-10.02l1.43 -0.79c6.1,-3.95 11.98,-8.19 17.64,-12.73l3.35 -2.69c5.51,-4.57 10.81,-9.5 15.89,-14.8l3.5 -3.49c5.26,-5.41 10.49,-11.14 15.9,-17.17l2.23 -2.87c4.77,-5.83 9.38,-11.92 13.83,-18.29l1.59 -2.21c-51.25,-2.94 -101.91,-12.46 -150.73,-28.31 -6.73,-2.13 -13.94,-2.13 -20.67,0 -48.85,15.97 -99.58,25.59 -150.89,28.62 23.65,36.23 56.31,65.71 94.77,85.54l0 0z"/>
    <path class="fil1" d="M879.3 1984.84c0.6,6.74 1.62,13.43 3.03,20.04l0.79 3.65c1.5,6.42 3.41,12.74 5.73,18.93l1.27 3.01c5.01,12.92 11.98,24.98 20.67,35.77l2.06 2.56c4.14,5.04 8.6,9.82 13.36,14.3l2.86 2.71c5.04,4.45 10.35,8.59 15.9,12.39l2.55 1.75c5.43,3.69 11.05,7.09 16.85,10.19l2.07 1.11c6.2,3.17 12.72,6.04 19.23,8.75l4.46 1.74c6.57,2.44 13.35,4.61 20.35,6.52l5.25 1.27c7.15,1.92 14.47,3.5 22.1,4.77l3.82 0c6.99,1.16 14.15,2.07 21.47,2.7l3.49 0c-5.72,-11.12 -11.02,-22.73 -15.91,-34.82 -3.73,-7.95 -0.31,-17.41 7.63,-21.15 4.62,-2.18 10.01,-1.99 14.48,0.49 3.26,1.67 5.85,4.43 7.32,7.78 4.23,10.07 8.74,19.78 13.51,29.1 6.3,12.37 19.39,19.76 33.23,18.76 27.95,-1.9 55.7,-5.99 83,-12.24 4.58,-1.23 7.29,-5.94 6.06,-10.52 -0.62,-2.32 -2.18,-4.26 -4.31,-5.38 -23.53,-10.66 -46.91,-22.42 -69.8,-35.78 -94.38,-52.07 -175.29,-125.46 -236.27,-214.33l-0.96 2.06c-3.5,7.65 -6.69,15.11 -9.38,22.59l0 1.59c-2.87,7.63 -5.25,15.89 -7.32,22.89l-1.12 3.82c-1.9,7.31 -3.44,14.58 -4.61,21.78l0 3.82c-1.11,7.21 -1.85,14.49 -2.23,21.78 0,0 0,1.11 0,1.59 -0.37,6.89 -0.37,13.79 0,20.66 -0.79,1.12 -0.79,1.92 -0.63,3.35l0 0z"/>
    <path class="fil1" d="M1286.51 1547.75l-2.23 0c-44.12,15.51 -86.7,35.1 -127.2,58.51 -91.71,50.75 -169.96,122.72 -228.16,209.88 -3.72,5.93 -3.72,13.46 0,19.39 21.72,34.56 47.27,66.57 76.16,95.41 -4.51,-34.85 -6.74,-69.97 -6.69,-105.1 0,-9.86 0,-19.71 0,-29.42 0.18,-3.71 1.63,-7.26 4.13,-10.01 6.11,-6.32 16.17,-6.51 22.49,-0.41 3.18,3.06 4.94,7.29 4.86,11.69 0,9.45 0,18.93 0,28.46 -0.01,43.07 3.67,86.05 10.98,128.48 1.28,7.17 5.05,13.64 10.66,18.29 33.15,27.39 68.58,51.91 105.89,73.29 86.9,51.98 184.5,83.41 285.41,91.91 13.72,0.49 26.48,-7.09 32.59,-19.41 12.75,-26.01 23.39,-53.02 31.79,-80.76 1.27,-4.12 -1.04,-8.48 -5.16,-9.74 -2.43,-0.74 -5.08,-0.26 -7.08,1.31 -21.67,15.84 -44.12,30.59 -67.25,44.2 -7.16,4.13 -14.47,7.95 -21.79,11.76 -3.6,1.93 -7.82,2.38 -11.76,1.28 -8.32,-2.8 -12.81,-11.82 -10,-20.14 1.26,-3.74 3.85,-6.86 7.29,-8.8 7,-3.7 13.94,-7.57 20.83,-11.61 37.65,-21.72 73.35,-46.67 106.7,-74.56 4.89,-4.07 8.26,-9.67 9.53,-15.91 7.21,-42.92 10.74,-86.38 10.49,-129.9 0,-11.55 0,-23.05 0,-34.49 -0.06,-8.79 7,-15.97 15.78,-16.05 3.28,-0.02 6.49,0.96 9.19,2.84 3.42,2.84 5.5,7 5.73,11.46 0,11.76 0.79,23.52 0.79,35.44 1.89,107.76 -21.42,214.48 -68.05,311.64l3.49 0c7.32,-0.74 14.47,-1.63 21.47,-2.7l3.65 0c7.63,-1.26 14.95,-3.01 22.27,-4.93l5.08 -1.27c7,-1.9 13.78,-4.13 20.35,-6.67l4.46 -1.75c6.67,-2.71 13.2,-5.57 19.39,-8.75l2.07 -1.11c5.85,-3.14 11.53,-6.59 17.02,-10.34l2.55 -1.59c5.54,-3.86 10.85,-8.06 15.89,-12.57l2.86 -2.69c4.76,-4.48 9.21,-9.26 13.36,-14.31l2.06 -2.55c8.69,-10.79 15.67,-22.86 20.68,-35.78l1.27 -3.02c2.32,-6.17 4.22,-12.49 5.73,-18.91l0.79 -3.65c1.38,-6.36 2.38,-12.79 3.01,-19.25 0,-0.95 0,-1.75 0,-2.7 0.39,-6.89 0.39,-13.79 0,-20.67 0,0 0,-1.12 0,-1.6 -0.17,-7.59 -0.75,-15.18 -1.73,-22.73l0 -3.81c-1.17,-7.22 -2.71,-14.48 -4.62,-21.79l-1.43 -3.66c-2.06,-7.47 -4.46,-15.1 -7.31,-22.73l0 -1.91c-2.71,-7.47 -5.88,-14.95 -9.38,-22.42l-0.96 -2.08c-10.63,16.52 -22.15,32.45 -34.51,47.72 -4.49,5.27 -12.41,5.91 -17.7,1.42 -2.58,-2.19 -4.17,-5.35 -4.4,-8.74 0,-3.82 0,-7.32 0,-10.65 -0.18,-3.05 0.77,-6.07 2.71,-8.43 24.82,-32.47 24.09,-77.73 -1.75,-109.39 -54.84,-66.83 -121.64,-122.84 -197.01,-165.2 -20.02,-11.45 -40.07,-21.79 -60.1,-31.81 13.36,-4.76 28.14,-9.53 44.36,-13.83 10.6,5.52 21.21,11.3 31.8,17.33 30.21,17.42 59.26,36.75 86.97,57.88 -9.78,-36.94 -23.43,-72.75 -40.7,-106.85 -5.07,-10.17 -15.66,-16.4 -27.03,-15.89 -54.59,3.42 -108.44,14.5 -159.95,32.91l-0.63 2.54 0 0zm-129.11 142.15l0 0 52.31 17.96c3.56,1.27 5.42,5.17 4.16,8.73 -0.34,0.96 -0.89,1.85 -1.62,2.56l-34.34 34.34c-2.66,2.69 -6.99,2.69 -9.67,0.03 -0.73,-0.73 -1.29,-1.6 -1.62,-2.57l-18.29 -52.31c-1.36,-3.52 0.4,-7.48 3.93,-8.83 1.66,-0.65 3.5,-0.61 5.14,0.09l0 0zm-59.31 142.3l0 0c-3.38,-1.69 -4.76,-5.78 -3.08,-9.16 0.66,-1.33 1.74,-2.42 3.08,-3.08l49.61 -24.33c3.39,-1.66 7.48,-0.28 9.16,3.12 0.45,0.91 0.69,1.92 0.7,2.92l0 48.66c-0.05,3.77 -3.15,6.79 -6.92,6.74 -1.02,-0.02 -2.03,-0.26 -2.94,-0.71l-49.61 -24.16 0 0zm111.3 112.26l0 0 -51.99 17.81c-3.6,1.13 -7.44,-0.86 -8.59,-4.46 -0.43,-1.34 -0.43,-2.78 0,-4.13l17.97 -52.31c1.26,-3.57 5.17,-5.43 8.73,-4.17 0.97,0.34 1.83,0.89 2.56,1.62l34.34 34.34c2.61,2.74 2.52,7.06 -0.21,9.66 -0.79,0.77 -1.75,1.33 -2.81,1.64l0 0zm105.73 18.6l0 0 -24.33 49.61c-1.68,3.38 -5.78,4.75 -9.16,3.08 -1.33,-0.67 -2.41,-1.75 -3.08,-3.08l-24.32 -49.61c-1.67,-3.39 -0.27,-7.49 3.11,-9.16 0.91,-0.45 1.92,-0.69 2.93,-0.7l48.65 0c3.78,0.05 6.8,3.15 6.75,6.92 -0.02,1.02 -0.26,2.02 -0.7,2.94l0.15 0zm97.15 0l0 0 -52.31 -17.97c-3.55,-1.26 -5.43,-5.18 -4.17,-8.73 0.35,-0.96 0.9,-1.84 1.63,-2.55l34.35 -34.36c2.66,-2.67 6.99,-2.68 9.66,-0.01 0.73,0.72 1.28,1.6 1.62,2.56l17.81 51.04c1.68,3.38 0.31,7.49 -3.06,9.17 -1.89,0.94 -4.11,0.96 -6.01,0.06l0.48 0.79 0 0zm58.98 -142.31l0 0c3.39,1.69 4.76,5.78 3.09,9.17 -0.67,1.33 -1.75,2.4 -3.09,3.07l-49.6 24.33c-3.39,1.68 -7.49,0.28 -9.15,-3.11 -0.44,-0.91 -0.7,-1.91 -0.71,-2.93l0 -49.44c0.05,-3.78 3.15,-6.8 6.94,-6.75 1.01,0.01 2,0.25 2.92,0.7l49.6 24.96 0 0zm-111.29 -112.25l0 0 51.83 -18.6c3.6,-1.14 7.44,0.85 8.59,4.45 0.43,1.34 0.43,2.79 0,4.14l-17.96 52.31c-1.27,3.55 -5.17,5.43 -8.74,4.16 -0.95,-0.34 -1.84,-0.9 -2.55,-1.62l-34.34 -34.35c-2.55,-2.78 -2.35,-7.11 0.44,-9.66 0.74,-0.67 1.62,-1.17 2.58,-1.47l0.15 0.64 0 0zm20.03 117.34l0 0c0,52.69 -42.71,95.4 -95.4,95.4 -52.67,0 -95.4,-42.72 -95.4,-95.4 0,-52.69 42.73,-95.39 95.4,-95.39 52.69,0 95.4,42.7 95.4,95.39zm-89.35 -186.18l0 0 24.33 49.6c1.66,3.39 0.26,7.49 -3.11,9.16 -0.92,0.45 -1.92,0.69 -2.94,0.7l-48.65 0c-3.77,-0.05 -6.79,-3.15 -6.74,-6.93 0.01,-1.02 0.25,-2.01 0.7,-2.93l24.32 -49.6c1.78,-3.34 5.91,-4.61 9.24,-2.85 1.21,0.64 2.21,1.64 2.85,2.85l0 0z"/>
    <path class="fil1" d="M880.89 1714.55l0 3.81c1.17,7.2 2.71,14.47 4.61,21.79l1.12 3.81c2.07,7.63 4.46,15.89 7.32,22.89l0 1.59c2.86,7.48 6.03,14.95 9.38,22.58l0.94 2.08c30.82,-46.15 67.85,-87.83 110.04,-123.87 10.45,-53.77 28.14,-105.87 52.63,-154.87 -50.68,2.04 -99.31,20.58 -138.5,52.79l-1.9 1.75c-5,4.66 -9.68,9.65 -13.99,14.95l-1.75 2.21c-8.71,10.86 -15.67,22.97 -20.67,35.94l-1.27 3.03c-2.32,6.17 -4.23,12.49 -5.73,18.91l-0.79 3.66c-1.39,6.35 -2.4,12.77 -3.03,19.24 0,0.8 0,1.75 0,2.55 -0.37,6.87 -0.37,13.77 0,20.66 0,0 0,1.12 0,1.6 0.12,7.65 0.66,15.29 1.59,22.89l0 0.01z"/>
    <path class="fil1" d="M1141.49 1577.97c22.91,-13.21 46.12,-25.13 69.65,-35.63 4.13,-2.65 5.33,-8.17 2.66,-12.3 -1.07,-1.68 -2.68,-2.95 -4.57,-3.6 -13.25,-2.96 -26.35,-5.45 -39.27,-7.47 -8.63,-1.64 -14.3,-9.96 -12.66,-18.59 0.43,-2.24 1.33,-4.35 2.64,-6.22 3.48,-4.74 9.28,-7.2 15.11,-6.35 34.08,5.19 67.67,13.12 100.49,23.68 5.79,1.85 12.01,1.85 17.79,0 49.38,-16.14 100.63,-25.83 152.49,-28.77l-0.95 -1.27c-4.88,-7.01 -9.92,-13.63 -15.11,-19.89l-1.42 -1.9c-5.25,-6.19 -10.5,-12.08 -15.91,-17.64l-3.02 -3.02c-5.4,-5.3 -10.7,-10.29 -15.9,-14.95l-3.01 -2.39c-5.91,-4.99 -12.05,-9.66 -18.45,-13.99l-1.12 0c-5.83,-4.06 -11.88,-7.77 -18.12,-11.12l-2.55 -1.29c-6.1,-2.81 -12.36,-5.25 -18.76,-7.31l-3.65 -1.11c-6.31,-1.89 -12.74,-3.39 -19.24,-4.46l-3.19 0c-12.44,-1.75 -25.07,-1.75 -37.51,0l-4.46 0c-4.77,0 -9.38,1.6 -14.15,2.71l-2.55 0c-5.39,1.47 -10.69,3.22 -15.89,5.25l-3.81 1.59c-4.35,1.8 -8.71,3.76 -13.05,5.88l-3.34 1.6c-5.18,2.74 -10.49,5.76 -15.9,9.05l-2.38 1.6c-4.34,2.96 -8.7,6.15 -13.03,9.53l-3.03 2.38c-10.21,8.75 -19.73,18.27 -28.45,28.47l-2.23 2.55c-9.67,11.1 -18.59,22.85 -26.71,35.13l-1.12 1.59c-28.74,45.02 -50.2,94.28 -63.6,145.97 27.83,-21.09 56.99,-40.37 87.28,-57.71l0 0z"/>
    <path class="fil1" d="M1559.83 1673.2c39.73,35.1 74.65,75.31 103.82,119.57 7.57,-16.13 13.74,-32.89 18.45,-50.08l0 -2.39c2.02,-7.73 3.65,-15.38 4.93,-22.9l0 -2.7c1.19,-7.52 2,-15.13 2.38,-22.73 0.42,-7.21 0.42,-14.42 0,-21.64 0,0 0,-1.42 0,-2.06 -0.58,-6.78 -1.6,-13.53 -3.01,-20.19l0 -3.5c-1.5,-6.42 -3.42,-12.74 -5.73,-18.92l-1.28 -2.86c-5.01,-12.91 -11.98,-24.99 -20.67,-35.78l-1.9 -2.54c-4.2,-5.05 -8.72,-9.84 -13.52,-14.31l-2.87 -2.7c-5.03,-4.51 -10.34,-8.71 -15.89,-12.56l-2.54 -1.75c-5.54,-3.75 -11.27,-7.2 -17.18,-10.34l-2.23 -1.75c-6.19,-3.19 -12.72,-6.04 -19.55,-8.74l-4.3 -1.75c-6.57,-2.44 -13.41,-4.67 -20.51,-6.68l-5.09 -1.28c-7.3,-1.9 -14.62,-3.49 -22.25,-4.92l-3.66 0c-7.11,-1.16 -14.41,-2.12 -21.94,-2.87l-3.19 0c23.68,47.23 40.99,97.38 51.52,149.14 1.07,3.64 3.24,6.87 6.21,9.23l0 0z"/>
   </g>
  </g>
 </g>
</svg>
