<?xml version="1.0" encoding="utf-8"?>
<!-- Generator: Adobe Illustrator 26.0.3, SVG Export Plug-In . SVG Version: 6.00 Build 0)  -->
<svg version="1.1" id="Layer_1" xmlns="http://www.w3.org/2000/svg" xmlns:xlink="http://www.w3.org/1999/xlink" x="0px" y="0px"
	 viewBox="0 0 1855.28 1596.89" style="enable-background:new 0 0 1855.28 1596.89;" xml:space="preserve">
<style type="text/css">
	.st0{fill-rule:evenodd;clip-rule:evenodd;fill:#56616F;}
	.st1{fill-rule:evenodd;clip-rule:evenodd;fill:#404853;}
	.st2{fill-rule:evenodd;clip-rule:evenodd;fill:#778391;}
	.st3{fill-rule:evenodd;clip-rule:evenodd;fill:#606B78;}
	.st4{fill-rule:evenodd;clip-rule:evenodd;fill:#E4B22D;}
	.st5{fill-rule:evenodd;clip-rule:evenodd;fill:#D4A527;}
	.st6{fill-rule:evenodd;clip-rule:evenodd;fill:#AD733B;}
	.st7{opacity:0.651;fill-rule:evenodd;clip-rule:evenodd;}
	
		.st8{opacity:0.3804;fill-rule:evenodd;clip-rule:evenodd;fill:none;stroke:#444D59;stroke-width:11.52;stroke-linecap:round;stroke-linejoin:round;stroke-miterlimit:22.9256;stroke-dasharray:23.04,34.56;}
	.st9{opacity:0.3882;fill-rule:evenodd;clip-rule:evenodd;}
	.st10{fill-rule:evenodd;clip-rule:evenodd;fill:#697584;}
	.st11{fill-rule:evenodd;clip-rule:evenodd;fill:#48525E;}
	.st12{fill-rule:evenodd;clip-rule:evenodd;fill:#3E4049;}
	.st13{fill-rule:evenodd;clip-rule:evenodd;fill:#3F4751;}
</style>
<ellipse class="st0" cx="156.44" cy="531.88" rx="153.87" ry="153.92"/>
<path class="st1" d="M347.91,1542.79c0-28.62,23.2-51.82,51.82-51.82s51.83,23.2,51.83,51.82s-23.21,51.83-51.83,51.83
	S347.91,1571.41,347.91,1542.79L347.91,1542.79z M1108.03,1220.32c0-6.34,5.18-11.52,11.51-11.52c6.34,0,11.52,5.18,11.52,11.52
	s-5.18,11.52-11.52,11.52C1113.22,1231.84,1108.03,1226.65,1108.03,1220.32L1108.03,1220.32z M422.77,336.38
	c0-42.96,34.79-77.74,77.74-77.74s77.74,34.78,77.74,77.74c0,42.96-34.78,77.74-77.74,77.74
	C457.55,414.13,422.77,379.34,422.77,336.38L422.77,336.38z M1511.13,48.46c0-23.84,19.35-43.18,43.18-43.18
	c23.84,0,43.19,19.35,43.19,43.18c0,23.84-19.35,43.19-43.19,43.19C1530.48,91.65,1511.13,72.3,1511.13,48.46z"/>
<path class="st2" d="M1361.41,488.98v-69.11c0-51.76-28.39-86.38-80.62-86.38H601.28c-49.58,0-97.89,22.34-97.89,80.62v74.86
	H1361.41z"/>
<path class="st3" d="M1361.41,506.26v-69.11c0-51.77-28.39-86.38-80.62-86.38H601.28c-49.58,0-74.86,22.34-74.86,80.62v74.86
	H1361.41L1361.41,506.26z"/>
<ellipse transform="matrix(0.7071 -0.7071 0.7071 0.7071 -52.3348 724.9299)" class="st4" cx="848.9" cy="425.64" rx="155.48" ry="155.48"/>
<ellipse transform="matrix(0.7071 -0.7071 0.7071 0.7071 -51.8813 723.8349)" class="st5" cx="847.81" cy="424.54" rx="129.57" ry="129.57"/>
<path class="st6" d="M836.59,316.38c-9.77,1.13-18.86,5.58-25.73,12.62c-5.15,5.11-10.04,10.35-15.27,15.51
	c-2.61,2.68-5.26,5.3-7.91,7.94c-2.64,2.65-5.56,5.46-8.3,8.24c-2.75,2.78-5.03,5.22-7.57,7.8c-3.97,3.98-7.95,7.95-11.92,11.96
	c-3.05,3.14-6.03,6.4-9.04,9.54c-1.78,1.88-3.69,3.62-5.37,5.6c-6.91,8.43-10.68,18.99-10.68,29.89c0,0.64,0,1.3,0.04,1.93
	c0.14,6.26,1.78,12.39,4.79,17.88c1.71,3.32,3.69,6.49,5.92,9.48c1.47,2.08,2.54,2.05,4.48,0.44c0.37-0.31,0.72-0.64,1.03-1
	c1.91-2.02,3.79-4.03,5.74-6.04c2.75-2.88,5.56-5.76,8.3-8.67c2.75-2.92,5.73-6.14,8.61-9.14c1.37-1.48,2.83-2.84,4.22-4.29
	c2.95-3.12,5.83-6.33,8.77-9.41c2.95-3.08,5.93-5.96,8.82-8.98c2.88-3.01,6.43-6.7,9.67-10.04c3.25-3.35,6-6.17,9.02-9.25
	c3.92-4.06,7.74-8.21,11.62-12.26c2.42-2.48,4.9-4.86,7.3-7.3c3.35-3.34,6.46-6.69,9.75-10.04c3.29-3.34,5.72-5.6,8.54-8.48
	c6.29-6.35,12.57-12.75,18.84-19.18c0.41-0.41,0.79-0.82,1.14-1.28c1.54-1.94,1.67-2.38-0.24-3.75c-2.91-2.3-6.02-4.31-9.31-6.03
	c-5.8-2.71-12.14-4.12-18.54-4.12h-0.31c-2.14,0-4.27,0.13-6.4,0.4l-0.03-0.03L836.59,316.38L836.59,316.38L836.59,316.38z
	 M892.02,357.61L892.02,357.61L892.02,357.61l1.01-0.14h0.13c5.98,0,11.68,2.55,15.69,7.01c9.07,9.41,18.32,18.69,27.6,27.9
	c3.59,3.16,6.73,6.79,9.37,10.78c3.67,5.65,6.07,12.01,7.07,18.66c0.46,3.73,0.46,7.51,0,11.26c-0.82,7.52-3.43,14.74-7.61,21.06
	c-2.24,3.08-4.71,5.99-7.38,8.72c-3.34,3.55-6.7,6.92-10.05,10.24c-3.35,3.32-7.06,6.84-10.04,9.78c-2.98,2.95-5.89,5.93-8.84,8.91
	l-9.68,9.75c-3.58,3.45-6.94,7.03-10.28,10.39c-4.62,4.68-9.04,9.58-14,13.93c-6.51,5.91-14.72,9.65-23.45,10.68
	c-8.8,1.26-17.78-0.02-25.88-3.68c-3.26-1.7-6.36-3.68-9.28-5.92c-1.78-1.24-1.78-2.21-0.27-3.79c2.44-2.63,5.06-5.16,7.6-7.74
	c1.48-1.48,2.92-2.98,4.42-4.45c3.18-3.13,6.26-6.26,9.62-9.38c0.27-0.26,0.57-0.47,0.83-0.77c2.98-3.11,6.18-6.43,8.97-9.27
	c2.78-2.84,5.67-5.6,8.51-8.44l3.78-3.92c0.61-0.6,1.14-1.27,1.7-1.9c3.85-3.82,7.64-7.7,11.49-11.53c2.98-2.98,6.04-5.86,9.02-8.81
	c4.18-4.15,8.46-8.24,12.48-12.56c3.35-3.71,5.41-8.42,5.86-13.4c0.09-0.84,0.13-1.69,0.13-2.54c0.01-4.93-1.49-9.77-4.28-13.85
	c-0.26-0.68-0.74-1.27-1.34-1.68c-1.64-1.1-3.87-0.67-4.98,0.98c-5.49,5.33-10.95,10.68-16.37,16.01l-17.44,17
	c-4.25,4.12-8.54,8.2-12.73,12.32c-5.16,5.08-10.24,10.21-15.4,15.32c-2.58,2.55-5.23,5.02-7.84,7.54l-11.12,10.74
	c-2.06,1.86-4.54,3.19-7.23,3.85c-3.6,0.98-7.37,1.11-11.03,0.38c-3.87-0.65-7.42-2.54-10.12-5.39c-4.35-4.57-8.91-9.08-13.4-13.62
	c-1.84-1.9-1.81-2.14,0-3.91c9.35-9.38,18.72-18.78,28.1-28.2l21.23-21.24l11.42-11.52c3.22-3.14,6.53-6.33,9.65-9.38
	c3.11-3.05,6.2-6.29,9.08-9.21c2.88-2.92,5.8-5.77,8.71-8.68c3.52-3.52,7.14-7.17,10.49-10.52l10.24-10.05c0.35-0.32,0.69-0.65,1-1
	c3.59-4.24,8.87-6.7,14.44-6.7H892.02L892.02,357.61z"/>
<ellipse transform="matrix(0.7071 -0.7071 0.7071 0.7071 38.2817 840.0474)" class="st4" cx="1033.17" cy="373.81" rx="155.48" ry="155.48"/>
<ellipse transform="matrix(0.7071 -0.7071 0.7071 0.7071 38.7352 838.9525)" class="st5" cx="1032.07" cy="372.72" rx="129.57" ry="129.57"/>
<path class="st7" d="M503.39,1024.53c0,43.13,22.45,92.14,97.89,92.14h691.02c47.11,0,92.14-32.08,92.14-97.9V569.6
	c0-35.3-13.7-86.38-86.38-86.38H578.25c-20.96,0-46.07-17.38-46.07-40.3c0-6.62-28.79-13.59-28.79,11.51L503.39,1024.53
	L503.39,1024.53L503.39,1024.53z"/>
<path class="st6" d="M1025.77,271.33c-9.77,1.13-18.86,5.59-25.73,12.62c-5.16,5.11-10.04,10.35-15.27,15.51
	c-2.62,2.68-5.26,5.3-7.91,7.94c-2.64,2.65-5.56,5.47-8.3,8.25c-2.75,2.78-5.03,5.22-7.58,7.8c-3.97,3.98-7.94,7.94-11.91,11.96
	c-3.05,3.15-6.03,6.4-9.05,9.54c-1.78,1.88-3.69,3.62-5.36,5.6c-6.91,8.42-10.68,18.98-10.68,29.88c0,0.64,0,1.31,0.04,1.93
	c0.14,6.26,1.78,12.39,4.79,17.88c1.71,3.32,3.69,6.49,5.92,9.49c1.48,2.08,2.55,2.04,4.49,0.44c0.37-0.31,0.72-0.64,1.03-1
	c1.91-2.02,3.79-4.02,5.73-6.03c2.75-2.89,5.56-5.76,8.31-8.68c2.75-2.92,5.72-6.13,8.61-9.14c1.37-1.48,2.83-2.83,4.22-4.29
	c2.94-3.11,5.83-6.33,8.77-9.41c2.95-3.08,5.93-5.97,8.81-8.98c2.89-3.01,6.43-6.71,9.68-10.05c3.25-3.34,6-6.17,9.01-9.25
	c3.92-4.05,7.74-8.2,11.62-12.26c2.42-2.48,4.89-4.85,7.3-7.3c3.34-3.35,6.47-6.7,9.75-10.04c3.29-3.35,5.72-5.6,8.54-8.48
	c6.29-6.35,12.58-12.75,18.85-19.18c0.41-0.4,0.78-0.82,1.13-1.27c1.54-1.95,1.68-2.38-0.23-3.76c-2.91-2.29-6.02-4.31-9.31-6.03
	c-5.8-2.71-12.14-4.12-18.54-4.12h-0.31c-2.15,0-4.28,0.13-6.4,0.41l-0.03-0.04L1025.77,271.33L1025.77,271.33z M1081.2,312.56
	L1081.2,312.56L1081.2,312.56l1.01-0.14h0.12c5.99,0.01,11.69,2.55,15.69,7.01c9.07,9.41,18.32,18.69,27.61,27.9
	c3.58,3.16,6.73,6.79,9.37,10.79c3.67,5.64,6.07,12,7.07,18.65c0.46,3.74,0.46,7.52,0,11.26c-0.83,7.53-3.43,14.75-7.6,21.07
	c-2.24,3.08-4.71,5.99-7.38,8.71c-3.35,3.56-6.71,6.93-10.05,10.25c-3.35,3.32-7.06,6.84-10.04,9.79c-2.99,2.94-5.89,5.93-8.85,8.91
	l-9.68,9.74c-3.58,3.45-6.94,7.04-10.28,10.39c-4.62,4.69-9.05,9.58-14,13.93c-6.52,5.92-14.72,9.65-23.45,10.69
	c-8.8,1.26-17.78-0.02-25.88-3.68c-3.26-1.7-6.36-3.69-9.28-5.92c-1.78-1.24-1.78-2.21-0.28-3.79c2.45-2.63,5.06-5.15,7.61-7.74
	c1.48-1.47,2.92-2.98,4.42-4.45c3.18-3.14,6.26-6.26,9.62-9.38c0.27-0.27,0.57-0.47,0.83-0.77c2.98-3.11,6.18-6.43,8.97-9.28
	c2.78-2.84,5.67-5.6,8.51-8.44l3.79-3.91c0.6-0.61,1.14-1.27,1.7-1.91c3.85-3.82,7.64-7.7,11.49-11.52c2.98-2.98,6.03-5.86,9.02-8.8
	c4.17-4.15,8.46-8.24,12.48-12.56c3.35-3.72,5.41-8.41,5.86-13.4c0.08-0.84,0.13-1.68,0.13-2.53c0.01-4.94-1.49-9.77-4.28-13.84
	c-0.26-0.69-0.74-1.28-1.34-1.69c-1.64-1.1-3.87-0.67-4.98,0.98c-5.49,5.33-10.95,10.69-16.37,16.01l-17.44,17
	c-4.25,4.12-8.54,8.2-12.73,12.32c-5.16,5.08-10.25,10.21-15.4,15.32c-2.58,2.55-5.23,5.03-7.84,7.54l-11.12,10.74
	c-2.05,1.87-4.54,3.19-7.24,3.86c-3.59,0.97-7.36,1.1-11.02,0.37c-3.87-0.65-7.42-2.54-10.12-5.39c-4.35-4.57-8.91-9.08-13.4-13.61
	c-1.84-1.91-1.81-2.14,0-3.91c9.35-9.38,18.72-18.79,28.1-28.21l21.23-21.23l11.42-11.52c3.22-3.14,6.53-6.34,9.64-9.38
	c3.12-3.04,6.2-6.29,9.08-9.21s5.79-5.77,8.71-8.68c3.52-3.52,7.13-7.16,10.49-10.52l10.24-10.05c0.35-0.32,0.69-0.65,1-1
	c3.59-4.25,8.87-6.7,14.44-6.71H1081.2L1081.2,312.56z"/>
<path class="st2" d="M503.39,978.46c0,43.13,22.45,92.14,97.89,92.14h691.02c47.11,0,92.14-32.08,92.14-97.89V523.54
	c0-35.3-13.7-86.38-86.38-86.38H578.25c-20.96,0-47.91-16.47-47.91-39.39c0-6.62-26.95-14.51-26.95,10.6L503.39,978.46
	L503.39,978.46L503.39,978.46z"/>
<path class="st3" d="M503.39,978.46c0,43.13,22.45,92.14,97.89,92.14h691.02c47.11,0,92.14-32.08,92.14-97.89v-431.9
	c0-35.3-13.7-86.38-86.38-86.38c-72.67,0-706.8-0.8-727.76-0.8c-41.23,0-64.32-31.16-64.32-55.91c0-6.62-3.05-2.42-3.05,4.89
	C502.93,409.92,503.39,935.33,503.39,978.46L503.39,978.46L503.39,978.46z"/>
<path class="st8" d="M520.66,961.18c15.66,34.49,33.74,57.59,80.62,57.59H1252c37.2,0,80.62-25.52,80.62-63.34V569.6
	c0-17.39-14.74-57.59-51.83-57.59h-708.3c-17.33,0-43.82-11.29-62.94-27.87"/>
<path class="st9" d="M1395.96,713.56c0.98-11.75-7.78-22.05-19.52-23.03c-1.16-0.11-2.36-0.11-3.51,0h-86.38
	c-52.4,1.78-93.52,45.49-92.14,97.9c0,65.99,50.1,97.89,92.14,97.89h86.38c12.09,0.64,22.4-8.58,23.03-20.67
	c0.06-0.8,0.06-1.55,0-2.36V713.56L1395.96,713.56z"/>
<path class="st2" d="M1407.47,696.29c0.98-11.74-7.77-22.06-19.52-23.03c-1.16-0.12-2.36-0.12-3.52,0h-92.14
	c-52.4,1.78-93.52,45.49-92.13,97.89c0,65.99,50.09,97.9,92.13,97.9h92.14c12.1,0.63,22.4-8.58,23.03-20.67
	c0.06-0.81,0.06-1.56,0-2.36V696.29L1407.47,696.29z"/>
<path class="st10" d="M1407.47,707.81c0.98-11.75-7.77-22.06-19.52-23.04c-1.16-0.11-2.36-0.11-3.52,0h-86.38
	c-52.4,1.79-93.52,45.49-92.14,97.9c0,65.99,44.34,86.38,86.38,86.38h92.14c0,0,23.03-11.23,23.03-23.03V707.81z"/>
<path class="st11" d="M1292.3,774.03c0-14.27-11.64-25.91-25.91-25.91s-25.91,11.64-25.91,25.91c0,14.27,11.64,25.91,25.91,25.91
	S1292.3,788.3,1292.3,774.03z"/>
<circle class="st12" cx="1726.33" cy="1011.22" r="125.77"/>
<g>
	<g>
		<path class="st13" d="M903.42,913.81c2.42,1.13,4.89,2.11,7.43,2.93l1.07,0.36c2.42,0.74,4.88,1.32,7.37,1.74h1.13
			c5.18,0.8,10.46,0.8,15.63,0h1.2c2.45-0.41,4.87-0.97,7.25-1.68l1.38-0.42c2.41-0.77,4.77-1.7,7.07-2.75l1.02-0.48
			c2.32-1.13,4.58-2.39,6.77-3.77l0.53-0.3c2.29-1.49,4.52-3.08,6.65-4.79l1.25-1.02c2.08-1.72,4.07-3.57,5.99-5.57l1.32-1.32
			c1.97-2.04,3.95-4.19,5.99-6.47l0.84-1.07c1.8-2.2,3.53-4.49,5.21-6.89l0.6-0.83c-19.31-1.11-38.39-4.69-56.78-10.67
			c-2.53-0.8-5.25-0.8-7.78,0c-18.41,6.02-37.51,9.64-56.84,10.78C876.64,895.24,888.94,906.34,903.42,913.81L903.42,913.81z"/>
		<path class="st13" d="M775.84,811.99c0.23,2.54,0.61,5.06,1.14,7.54l0.3,1.38c0.57,2.42,1.28,4.8,2.16,7.12l0.48,1.14
			c1.88,4.87,4.51,9.41,7.79,13.47l0.78,0.96c1.55,1.9,3.24,3.7,5.02,5.39l1.08,1.02c1.9,1.67,3.9,3.24,5.99,4.67l0.96,0.65
			c2.04,1.4,4.16,2.67,6.35,3.84l0.78,0.42c2.33,1.19,4.79,2.27,7.25,3.29l1.67,0.66c2.48,0.91,5.03,1.73,7.67,2.45l1.97,0.48
			c2.7,0.72,5.45,1.31,8.33,1.79H837c2.63,0.44,5.33,0.78,8.08,1.02h1.32c-2.16-4.19-4.15-8.56-5.99-13.12
			c-1.4-2.99-0.12-6.56,2.87-7.97c1.74-0.82,3.77-0.75,5.45,0.18c1.23,0.64,2.21,1.67,2.76,2.93c1.6,3.8,3.29,7.46,5.08,10.97
			c2.38,4.66,7.3,7.45,12.52,7.07c10.52-0.71,20.98-2.26,31.26-4.61c1.72-0.46,2.75-2.24,2.29-3.96c-0.24-0.88-0.82-1.6-1.63-2.03
			c-8.87-4.01-17.67-8.44-26.29-13.48c-35.55-19.61-66.02-47.26-89-80.74l-0.36,0.78c-1.31,2.87-2.51,5.69-3.53,8.51v0.6
			c-1.08,2.87-1.98,5.99-2.75,8.62l-0.42,1.43c-0.72,2.76-1.3,5.5-1.74,8.2v1.44c-0.42,2.72-0.7,5.46-0.84,8.2c0,0,0,0.42,0,0.6
			c-0.14,2.6-0.14,5.19,0,7.79C775.79,811.15,775.79,811.45,775.84,811.99L775.84,811.99z"/>
		<path class="st13" d="M929.23,647.35h-0.84c-16.62,5.84-32.66,13.22-47.91,22.04c-34.55,19.12-64.02,46.22-85.95,79.06
			c-1.39,2.24-1.39,5.07,0,7.3c8.19,13.02,17.81,25.07,28.69,35.94c-1.7-13.13-2.53-26.36-2.51-39.59c0-3.71,0-7.43,0-11.08
			c0.06-1.4,0.62-2.74,1.55-3.77c2.3-2.39,6.09-2.45,8.47-0.16c1.19,1.16,1.86,2.75,1.83,4.41c0,3.56,0,7.12,0,10.72
			c-0.01,16.22,1.38,32.41,4.13,48.4c0.48,2.7,1.9,5.14,4.01,6.89c12.49,10.32,25.84,19.55,39.89,27.61
			c32.73,19.58,69.49,31.42,107.51,34.62c5.17,0.19,9.98-2.67,12.28-7.3c4.81-9.8,8.81-19.98,11.98-30.43
			c0.48-1.54-0.4-3.19-1.94-3.67c-0.91-0.28-1.91-0.1-2.67,0.49c-8.16,5.97-16.62,11.52-25.33,16.65c-2.69,1.56-5.45,2.99-8.2,4.43
			c-1.36,0.72-2.95,0.89-4.43,0.48c-3.14-1.06-4.82-4.46-3.77-7.59c0.47-1.41,1.46-2.59,2.75-3.32c2.63-1.39,5.25-2.85,7.84-4.37
			c14.18-8.18,27.62-17.58,40.19-28.09c1.85-1.53,3.11-3.65,3.59-5.99c2.72-16.17,4.04-32.54,3.95-48.94c0-4.35,0-8.69,0-12.99
			c-0.02-3.32,2.63-6.02,5.94-6.04c1.24-0.01,2.45,0.36,3.47,1.07c1.29,1.07,2.08,2.63,2.16,4.31c0,4.43,0.3,8.87,0.3,13.35
			c0.71,40.6-8.07,80.79-25.64,117.39h1.31c2.76-0.28,5.45-0.62,8.09-1.01h1.37c2.87-0.48,5.63-1.14,8.38-1.86l1.92-0.48
			c2.63-0.72,5.19-1.56,7.66-2.51l1.67-0.66c2.52-1.02,4.97-2.09,7.31-3.29l0.77-0.42c2.21-1.18,4.35-2.48,6.41-3.89l0.96-0.6
			c2.08-1.46,4.09-3.04,5.99-4.73l1.08-1.02c1.79-1.69,3.47-3.49,5.03-5.39l0.78-0.96c3.27-4.06,5.9-8.61,7.79-13.48l0.48-1.14
			c0.87-2.33,1.59-4.71,2.15-7.12l0.3-1.38c0.53-2.39,0.9-4.81,1.14-7.25c0-0.36,0-0.66,0-1.02c0.14-2.6,0.14-5.19,0-7.78
			c0,0,0-0.42,0-0.6c-0.07-2.86-0.28-5.72-0.66-8.56v-1.44c-0.44-2.71-1.02-5.45-1.74-8.2l-0.54-1.37
			c-0.77-2.81-1.67-5.69-2.75-8.56v-0.72c-1.02-2.81-2.21-5.63-3.53-8.45l-0.36-0.78c-4.01,6.22-8.34,12.22-13,17.97
			c-1.69,1.99-4.68,2.23-6.67,0.54c-0.98-0.83-1.58-2.02-1.66-3.29c0-1.44,0-2.76,0-4.01c-0.08-1.16,0.29-2.29,1.02-3.18
			c9.35-12.23,9.08-29.27-0.66-41.21c-20.65-25.17-45.82-46.27-74.21-62.23c-7.55-4.31-15.1-8.2-22.64-11.98
			c5.03-1.8,10.61-3.59,16.71-5.21c3.99,2.08,7.99,4.25,11.98,6.53c11.38,6.56,22.32,13.84,32.76,21.8
			c-3.68-13.91-8.83-27.41-15.33-40.24c-1.91-3.83-5.9-6.18-10.18-5.99c-20.57,1.28-40.84,5.46-60.25,12.4L929.23,647.35
			L929.23,647.35L929.23,647.35z M880.6,700.9L880.6,700.9l19.7,6.76c1.34,0.47,2.04,1.94,1.57,3.29c-0.13,0.37-0.34,0.7-0.61,0.97
			l-12.94,12.94c-1,1-2.63,1.01-3.65,0.01c-0.27-0.28-0.48-0.6-0.61-0.97l-6.89-19.7c-0.52-1.33,0.15-2.82,1.47-3.33
			C879.29,700.62,879.98,700.63,880.6,700.9L880.6,700.9L880.6,700.9z M858.26,754.49L858.26,754.49c-1.28-0.63-1.79-2.18-1.16-3.44
			c0.26-0.5,0.66-0.92,1.16-1.16l18.69-9.17c1.28-0.63,2.82-0.1,3.44,1.17c0.17,0.35,0.26,0.73,0.27,1.11v18.32
			c-0.02,1.42-1.18,2.56-2.61,2.54c-0.38-0.01-0.77-0.1-1.1-0.26L858.26,754.49L858.26,754.49L858.26,754.49z M900.19,796.78
			L900.19,796.78l-19.58,6.71c-1.36,0.43-2.8-0.32-3.23-1.68c-0.16-0.5-0.16-1.04,0-1.55l6.76-19.71c0.47-1.34,1.94-2.04,3.29-1.57
			c0.37,0.13,0.69,0.34,0.97,0.62l12.94,12.94c0.98,1.03,0.95,2.65-0.08,3.64C900.94,796.45,900.58,796.66,900.19,796.78
			L900.19,796.78L900.19,796.78z M940.01,803.79L940.01,803.79l-9.16,18.69c-0.63,1.27-2.18,1.79-3.44,1.16
			c-0.51-0.26-0.92-0.66-1.16-1.16l-9.17-18.69c-0.63-1.28-0.1-2.82,1.17-3.45c0.35-0.17,0.72-0.26,1.1-0.26h18.33
			c1.42,0.02,2.56,1.18,2.54,2.61c-0.01,0.38-0.1,0.76-0.27,1.1H940.01L940.01,803.79z M976.61,803.79L976.61,803.79l-19.71-6.77
			c-1.34-0.47-2.04-1.94-1.57-3.29c0.13-0.36,0.34-0.69,0.62-0.96l12.94-12.94c1-1.01,2.63-1.01,3.64-0.01
			c0.27,0.27,0.49,0.6,0.61,0.96l6.71,19.23c0.64,1.27,0.12,2.82-1.16,3.45c-0.71,0.36-1.54,0.36-2.26,0.02L976.61,803.79
			L976.61,803.79L976.61,803.79z M998.83,750.19L998.83,750.19c1.28,0.63,1.79,2.17,1.16,3.45c-0.25,0.5-0.66,0.91-1.16,1.16
			l-18.68,9.16c-1.27,0.63-2.82,0.1-3.45-1.17c-0.17-0.34-0.26-0.72-0.26-1.1v-18.62c0.02-1.42,1.18-2.57,2.61-2.54
			c0.38,0.01,0.76,0.1,1.1,0.26L998.83,750.19L998.83,750.19L998.83,750.19z M956.9,707.9L956.9,707.9l19.53-7.01
			c1.36-0.44,2.8,0.32,3.23,1.67c0.16,0.5,0.16,1.05,0,1.56l-6.76,19.7c-0.48,1.34-1.95,2.05-3.29,1.57
			c-0.36-0.13-0.69-0.34-0.96-0.61l-12.94-12.94c-0.96-1.05-0.88-2.68,0.16-3.64c0.28-0.26,0.61-0.44,0.97-0.55L956.9,707.9
			L956.9,707.9L956.9,707.9z M964.45,752.1L964.45,752.1c0,19.85-16.09,35.94-35.93,35.94c-19.84,0-35.93-16.1-35.93-35.94
			c0-19.85,16.09-35.93,35.93-35.93C948.36,716.17,964.45,732.25,964.45,752.1L964.45,752.1z M930.79,681.97L930.79,681.97
			l9.16,18.69c0.63,1.28,0.1,2.82-1.17,3.45c-0.34,0.17-0.72,0.26-1.1,0.26h-18.33c-1.42-0.02-2.56-1.19-2.54-2.61
			c0-0.38,0.09-0.76,0.26-1.1l9.17-18.69c0.67-1.25,2.22-1.73,3.48-1.07C930.18,681.13,930.55,681.51,930.79,681.97L930.79,681.97z"
			/>
		<path class="st13" d="M776.44,710.17v1.44c0.44,2.72,1.02,5.45,1.74,8.2l0.42,1.44c0.78,2.87,1.68,5.99,2.75,8.62v0.6
			c1.08,2.81,2.28,5.63,3.53,8.51l0.36,0.77c11.61-17.38,25.56-33.07,41.45-46.66c3.93-20.25,10.6-39.88,19.82-58.34
			c-19.1,0.77-37.41,7.76-52.17,19.88l-0.72,0.66c-1.88,1.75-3.64,3.64-5.27,5.63l-0.66,0.84c-3.28,4.09-5.9,8.65-7.79,13.54
			l-0.48,1.13c-0.88,2.32-1.59,4.71-2.16,7.13l-0.3,1.37c-0.52,2.39-0.9,4.82-1.14,7.25c0,0.29,0,0.65,0,0.95
			c-0.14,2.6-0.14,5.2,0,7.79c0,0,0,0.43,0,0.6C775.89,704.44,776.09,707.32,776.44,710.17L776.44,710.17z"/>
		<path class="st13" d="M874.61,658.73c8.62-4.97,17.37-9.46,26.23-13.42c1.56-1,2-3.08,1-4.63c-0.41-0.64-1.01-1.11-1.72-1.36
			c-4.99-1.12-9.92-2.06-14.79-2.81c-3.25-0.62-5.38-3.75-4.77-7.01c0.16-0.84,0.49-1.64,1-2.34c1.3-1.79,3.49-2.71,5.68-2.39
			c12.84,1.96,25.49,4.94,37.85,8.92c2.18,0.7,4.52,0.7,6.71,0c18.6-6.08,37.9-9.73,57.43-10.84l-0.35-0.48
			c-1.84-2.63-3.74-5.13-5.69-7.48l-0.54-0.72c-1.97-2.33-3.95-4.55-5.99-6.65l-1.13-1.14c-2.04-1.99-4.04-3.87-5.99-5.63
			l-1.13-0.91c-2.22-1.88-4.54-3.64-6.95-5.26h-0.42c-2.19-1.53-4.47-2.93-6.82-4.19l-0.96-0.48c-2.29-1.06-4.66-1.98-7.07-2.76
			l-1.38-0.41c-2.38-0.72-4.8-1.28-7.25-1.68h-1.2c-4.69-0.66-9.44-0.66-14.13,0h-1.68c-1.79,0-3.53,0.6-5.33,1.02h-0.95
			c-2.03,0.55-4.03,1.21-5.99,1.97l-1.43,0.6c-1.64,0.68-3.28,1.42-4.91,2.22l-1.26,0.6c-1.96,1.03-3.95,2.18-5.99,3.41l-0.89,0.6
			c-1.64,1.12-3.28,2.31-4.91,3.59l-1.14,0.89c-3.85,3.29-7.43,6.88-10.72,10.72l-0.84,0.96c-3.65,4.18-7.01,8.61-10.07,13.24
			l-0.42,0.59c-10.82,16.96-18.91,35.51-23.96,54.98C852.21,672.52,863.19,665.26,874.61,658.73L874.61,658.73z"/>
		<path class="st13" d="M1032.19,694.6c14.96,13.22,28.12,28.36,39.11,45.04c2.85-6.07,5.17-12.39,6.94-18.86v-0.9
			c0.77-2.91,1.38-5.79,1.86-8.62v-1.02c0.45-2.83,0.76-5.69,0.9-8.56c0.16-2.71,0.16-5.43,0-8.15c0,0,0-0.54,0-0.78
			c-0.23-2.55-0.61-5.09-1.14-7.61v-1.31c-0.56-2.42-1.28-4.81-2.15-7.13l-0.48-1.07c-1.89-4.87-4.52-9.41-7.79-13.48l-0.72-0.96
			c-1.58-1.9-3.29-3.7-5.09-5.39l-1.08-1.01c-1.9-1.7-3.89-3.28-5.98-4.73l-0.96-0.66c-2.08-1.42-4.24-2.72-6.46-3.89l-0.84-0.66
			c-2.34-1.2-4.79-2.28-7.37-3.29l-1.61-0.66c-2.47-0.92-5.06-1.75-7.72-2.52l-1.92-0.47c-2.75-0.72-5.51-1.32-8.38-1.86h-1.38
			c-2.67-0.44-5.43-0.8-8.26-1.08h-1.19c8.91,17.79,15.43,36.68,19.4,56.18C1030.26,692.5,1031.07,693.71,1032.19,694.6
			L1032.19,694.6z"/>
	</g>
</g>
</svg>
