<?xml version="1.0" encoding="utf-8"?>
<!-- Generator: Adobe Illustrator 26.0.3, SVG Export Plug-In . SVG Version: 6.00 Build 0)  -->
<svg version="1.1" id="Layer_1" xmlns="http://www.w3.org/2000/svg" xmlns:xlink="http://www.w3.org/1999/xlink" x="0px" y="0px"
	 viewBox="0 0 1869.52 1583.65" style="enable-background:new 0 0 1869.52 1583.65;" xml:space="preserve">
<style type="text/css">
	.st0{fill-rule:evenodd;clip-rule:evenodd;fill:#404853;}
	.st1{fill-rule:evenodd;clip-rule:evenodd;fill:#778391;}
	.st2{fill-rule:evenodd;clip-rule:evenodd;fill:#606B78;}
	.st3{opacity:0.6784;fill-rule:evenodd;clip-rule:evenodd;}
	.st4{fill-rule:evenodd;clip-rule:evenodd;fill:#505B67;}
	.st5{fill-rule:evenodd;clip-rule:evenodd;fill:#4C5661;}
	.st6{fill-rule:evenodd;clip-rule:evenodd;fill:none;stroke:#D6E1EE;stroke-width:11.34;stroke-miterlimit:22.9256;}
	.st7{fill-rule:evenodd;clip-rule:evenodd;fill:#E4B22D;}
	.st8{fill-rule:evenodd;clip-rule:evenodd;fill:#D4A527;}
	.st9{fill-rule:evenodd;clip-rule:evenodd;fill:#AD733B;}
	.st10{fill-rule:evenodd;clip-rule:evenodd;fill:#3F4853;}
	.st11{fill-rule:evenodd;clip-rule:evenodd;fill:#D6E1EE;}
	.st12{fill-rule:evenodd;clip-rule:evenodd;fill:#CB4F51;}
	.st13{fill-rule:evenodd;clip-rule:evenodd;fill:#BECEE2;}
	.st14{fill-rule:evenodd;clip-rule:evenodd;fill:#CAD9EA;}
	.st15{fill-rule:evenodd;clip-rule:evenodd;fill:#303740;}
	.st16{fill-rule:evenodd;clip-rule:evenodd;fill:#495463;}
	.st17{opacity:0.6;fill-rule:evenodd;clip-rule:evenodd;fill:#23242C;}
	
		.st18{opacity:0.6588;fill-rule:evenodd;clip-rule:evenodd;fill:none;stroke:#444D59;stroke-width:11.34;stroke-linecap:round;stroke-linejoin:round;stroke-miterlimit:22.9256;stroke-dasharray:22.68,34.02;}
	.st19{opacity:0.349;fill-rule:evenodd;clip-rule:evenodd;}
	.st20{fill-rule:evenodd;clip-rule:evenodd;fill:#697584;}
	.st21{fill-rule:evenodd;clip-rule:evenodd;fill:#48525E;}
	.st22{fill-rule:evenodd;clip-rule:evenodd;fill:#3F4751;}
</style>
<path class="st0" d="M351.71,1525.42c0-28.35,22.68-51.04,51.04-51.04c28.35,0,51.04,22.69,51.04,51.04
	c0,28.36-22.69,51.04-51.04,51.04C374.39,1576.46,351.71,1553.78,351.71,1525.42L351.71,1525.42z M1724.03,1377.98
	c0-6.23,5.1-11.34,11.34-11.34s11.34,5.11,11.34,11.34c0,6.24-5.1,11.35-11.34,11.35S1724.03,1384.22,1724.03,1377.98
	L1724.03,1377.98z M368.72,337.4c0-42.53,34.03-76.56,76.56-76.56c42.52,0,76.55,34.03,76.55,76.56c0,42.53-34.03,76.55-76.55,76.55
	C402.75,413.96,368.72,379.93,368.72,337.4L368.72,337.4z M1497.2,53.87c0-23.25,19.28-42.53,42.53-42.53
	c23.25,0,42.53,19.28,42.53,42.53c0,23.25-19.28,42.53-42.53,42.53C1516.48,96.39,1497.2,77.12,1497.2,53.87z"/>
<path class="st1" d="M568.33,636.81v-44.8c0-33.46-18.15-55.57-52.17-55.57H78.38c-31.76,0-62.95,7.36-62.95,45.36s0,55.01,0,55.01
	L568.33,636.81L568.33,636.81z"/>
<path class="st2" d="M568.33,648.16v-44.8c0-33.46-18.15-55.57-52.17-55.57H78.38c-31.76,0-50.47,12.47-50.47,49.9
	c-0.57,17.02,0.56,33.46,2.26,50.48H568.33z"/>
<path class="st3" d="M468.53,377.09h1275.35c31.19,0,56.71,25.52,56.71,56.71v848.34c0,31.19-25.52,56.71-56.71,56.71H468.53
	c-31.19,0-56.71-25.51-56.71-56.71V433.8C411.82,402.62,437.34,377.09,468.53,377.09z"/>
<path class="st2" d="M415.22,334.56h1382.53c31.19,0,56.71,25.52,56.71,56.71v848.35c0,31.19-25.52,56.71-56.71,56.71H415.22
	c-31.19,0-56.71-25.52-56.71-56.71V391.27C358.51,359.51,383.47,334.56,415.22,334.56z"/>
<path class="st2" d="M921.05,1365.5h375.97c15.89,0,28.36,12.47,28.36,28.36v23.81c0,15.88-12.47,28.36-28.36,28.36H921.05
	c-15.88,0-28.35-12.48-28.35-28.36v-23.81C892.7,1377.98,905.17,1365.5,921.05,1365.5z"/>
<path class="st4" d="M424.3,361.22h1368.92c18.71,0,34.03,15.32,34.03,34.03v729.82H390.27V395.24
	C390.27,376.53,405.58,361.22,424.3,361.22L424.3,361.22L424.3,361.22z"/>
<circle class="st5" cx="1106.48" cy="1210.7" r="37.42"/>
<path class="st6" d="M224.68,537.58c0-411.7,552.33-528.51,817.15-203.01"/>
<path class="st6" d="M1005.55,323.79c0,0,37.43,20.42,42.53,15.88c5.1-4.54-5.11-42.53-5.11-42.53"/>
<ellipse transform="matrix(0.7071 -0.7071 0.7071 0.7071 -17.1917 913.4272)" class="st7" cx="1094.01" cy="477.47" rx="100.37" ry="100.37"/>
<ellipse transform="matrix(0.9873 -0.1588 0.1588 0.9873 -61.8595 179.6994)" class="st8" cx="1093.45" cy="476.9" rx="83.36" ry="83.36"/>
<path class="st9" d="M1091.11,413.54c-6.11,0.7-11.79,3.49-16.08,7.89c-3.23,3.19-6.28,6.47-9.55,9.7
	c-1.64,1.67-3.29,3.31-4.94,4.96c-1.66,1.66-3.48,3.42-5.2,5.16c-1.71,1.73-3.14,3.26-4.73,4.88c-2.48,2.48-4.96,4.96-7.45,7.47
	c-1.9,1.97-3.77,4-5.66,5.96c-1.11,1.18-2.3,2.26-3.35,3.5c-4.31,5.27-6.68,11.86-6.68,18.67c0,0.41,0,0.82,0.02,1.21
	c0.09,3.91,1.12,7.75,2.99,11.18c1.07,2.07,2.31,4.05,3.7,5.92c0.92,1.3,1.59,1.27,2.8,0.27c0.23-0.2,0.45-0.41,0.65-0.63
	c1.19-1.25,2.36-2.51,3.58-3.77c1.72-1.8,3.48-3.6,5.2-5.42c1.71-1.82,3.58-3.83,5.38-5.71c0.85-0.92,1.77-1.78,2.64-2.68
	c1.84-1.94,3.64-3.95,5.48-5.88c1.84-1.92,3.7-3.73,5.5-5.61c1.8-1.88,4.02-4.19,6.04-6.28c2.03-2.09,3.75-3.86,5.63-5.78
	c2.45-2.54,4.84-5.14,7.27-7.66c1.51-1.55,3.05-3.04,4.56-4.57c2.09-2.09,4.04-4.19,6.1-6.28c2.05-2.09,3.58-3.5,5.33-5.3
	c3.94-3.98,7.86-7.97,11.78-11.98c0.25-0.26,0.49-0.52,0.71-0.8c0.97-1.22,1.05-1.49-0.14-2.35c-1.82-1.43-3.77-2.69-5.82-3.77
	c-3.63-1.7-7.58-2.57-11.59-2.57h-0.2c-1.34,0-2.67,0.08-4,0.26l-0.02-0.02L1091.11,413.54L1091.11,413.54L1091.11,413.54z
	 M1125.75,439.31L1125.75,439.31L1125.75,439.31l0.64-0.09h0.08c3.74,0,7.31,1.59,9.81,4.38c5.67,5.88,11.44,11.68,17.25,17.44
	c2.24,1.97,4.21,4.24,5.86,6.74c2.29,3.53,3.8,7.51,4.42,11.66c0.28,2.33,0.28,4.7,0,7.04c-0.52,4.7-2.14,9.22-4.76,13.16
	c-1.4,1.93-2.94,3.75-4.61,5.45c-2.09,2.22-4.19,4.33-6.28,6.4c-2.09,2.08-4.42,4.28-6.28,6.11c-1.87,1.85-3.69,3.71-5.53,5.57
	l-6.04,6.09c-2.24,2.15-4.33,4.39-6.43,6.49c-2.89,2.93-5.66,5.99-8.75,8.71c-4.07,3.7-9.2,6.03-14.66,6.68
	c-5.51,0.79-11.12-0.02-16.18-2.3c-2.04-1.07-3.98-2.3-5.8-3.7c-1.11-0.77-1.11-1.38-0.17-2.36c1.53-1.65,3.17-3.22,4.76-4.84
	c0.92-0.92,1.82-1.87,2.76-2.78c1.99-1.96,3.92-3.92,6.02-5.86c0.16-0.17,0.35-0.29,0.52-0.48c1.86-1.94,3.86-4.02,5.6-5.8
	c1.74-1.77,3.55-3.49,5.32-5.27l2.36-2.44c0.38-0.38,0.7-0.8,1.06-1.19c2.41-2.39,4.77-4.82,7.18-7.21c1.87-1.86,3.77-3.66,5.63-5.5
	c2.61-2.6,5.29-5.15,7.81-7.85c2.09-2.32,3.37-5.26,3.65-8.37c0.06-0.52,0.08-1.05,0.08-1.58c0-3.09-0.93-6.11-2.68-8.66
	c-0.16-0.43-0.46-0.79-0.84-1.05c-1.03-0.69-2.42-0.42-3.1,0.61c-3.44,3.33-6.85,6.68-10.24,10.01l-10.9,10.62
	c-2.65,2.57-5.34,5.13-7.96,7.7c-3.23,3.17-6.41,6.38-9.63,9.58c-1.6,1.59-3.26,3.14-4.9,4.71l-6.94,6.71
	c-1.29,1.16-2.84,1.99-4.52,2.41c-2.25,0.61-4.6,0.69-6.89,0.23c-2.41-0.4-4.64-1.59-6.32-3.37c-2.72-2.86-5.57-5.67-8.37-8.51
	c-1.15-1.18-1.13-1.33,0-2.44c5.84-5.86,11.7-11.74,17.56-17.62l13.27-13.27l7.14-7.2c2.01-1.96,4.08-3.95,6.03-5.86
	c1.95-1.9,3.88-3.94,5.68-5.76c1.79-1.82,3.61-3.6,5.44-5.42c2.2-2.2,4.46-4.48,6.56-6.57l6.4-6.29c0.22-0.2,0.43-0.41,0.63-0.63
	c2.24-2.65,5.54-4.19,9.02-4.19H1125.75L1125.75,439.31z"/>
<path class="st10" d="M1385.48,1007.68c-12.47,0-22.68-10.21-22.68-22.68V683.31c0-2.26,0.57-5.1,1.13-7.36
	c-2.83-5.11-0.56-11.91,4.54-14.18c1.7-0.56,3.41-1.13,5.11-1.13h187.13c5.67,0,10.77,4.54,10.77,10.78c0,1.7-0.56,3.4-1.13,5.1
	c0.57,2.27,1.13,4.54,1.13,7.37v301.69c0,12.47-10.21,22.68-22.68,22.68h-163.32L1385.48,1007.68L1385.48,1007.68L1385.48,1007.68
	L1385.48,1007.68z M883.06,1007.12c-12.47,0-22.68-10.21-22.68-22.69V560.26c0-12.47,10.21-22.68,22.68-22.68h408.86
	c12.47,0,22.68,10.21,22.68,22.68V985c0,12.47-10.21,22.68-22.68,22.68L883.06,1007.12L883.06,1007.12L883.06,1007.12z
	 M728.25,1007.12c-12.48,0-22.69-10.21-22.69-22.69V671.97c0-12.47,10.21-22.68,22.69-22.68h34.59c12.47,0,22.68,10.21,22.68,22.68
	v312.46c0,12.48-10.2,22.69-22.68,22.69H728.25L728.25,1007.12z M1385.48,633.41c-12.47,0-22.68-10.21-22.68-22.69v-50.47
	c0-12.47,10.21-22.68,22.68-22.68h162.75c12.48,0,22.69,10.21,22.69,22.68v50.47c0,12.48-10.21,22.69-22.69,22.69H1385.48
	L1385.48,633.41z M728.25,633.41c-12.48,0-22.69-10.21-22.69-22.69v-50.47c0-12.47,10.21-22.68,22.69-22.68h34.59
	c12.47,0,22.68,10.21,22.68,22.68v50.47c0,12.48-10.2,22.69-22.68,22.69H728.25z"/>
<path class="st11" d="M717.47,633.41h56.15c12.47,0,22.68,10.21,22.68,22.68v312.46c0,12.48-10.21,22.69-22.68,22.69h-56.15
	c-12.47,0-22.68-10.21-22.68-22.69V656.09C694.79,643.62,705,633.41,717.47,633.41z"/>
<path class="st12" d="M717.47,521.13h56.15c12.47,0,22.68,10.21,22.68,22.69v51.03c0,12.48-10.21,22.69-22.68,22.69h-56.15
	c-12.47,0-22.68-10.21-22.68-22.69v-51.03C694.79,531.34,705,521.13,717.47,521.13z"/>
<path class="st13" d="M716.34,924.89c0-16.44,13.04-29.49,29.49-29.49c16.44,0,29.49,13.05,29.49,29.49
	c0,16.45-13.05,29.49-29.49,29.49C729.38,953.81,716.34,940.76,716.34,924.89L716.34,924.89z M727.12,855.14
	c0-10.21,8.51-18.71,18.71-18.71c10.21,0,18.71,8.51,18.71,18.71c0,10.21-8.51,18.71-18.71,18.71
	C735.05,873.85,727.12,865.91,727.12,855.14L727.12,855.14z M727.12,753.63c0-10.21,8.51-18.71,18.71-18.71
	c10.21,0,18.71,8.51,18.71,18.71c0,10.21-8.51,18.71-18.71,18.71C735.05,772.34,727.12,763.84,727.12,753.63L727.12,753.63z
	 M727.12,689.55c0-10.21,8.51-18.71,18.71-18.71c10.21,0,18.71,8.51,18.71,18.71c0,10.21-8.51,18.71-18.71,18.71
	C735.05,708.26,727.12,699.76,727.12,689.55z"/>
<path class="st11" d="M872.29,521.13h429.84c12.47,0,22.68,10.21,22.68,22.69v424.73c0,12.48-10.21,22.69-22.68,22.69H872.29
	c-12.48,0-22.69-10.21-22.69-22.69V543.82C849.6,531.34,859.81,521.13,872.29,521.13z"/>
<path class="st13" d="M1277.17,948.71c-2.83,0-5.1-2.27-5.1-5.11c0-2.84,2.26-5.1,5.1-5.1c2.83,0,5.11,2.26,5.11,5.1
	C1282.28,946.43,1280.01,948.71,1277.17,948.71L1277.17,948.71z M1223.87,948.71c-2.83,0-5.11-2.27-5.11-5.11
	c0-2.84,2.27-5.1,5.11-5.1h31.76c2.84,0,5.1,2.26,5.1,5.1c0,2.83-2.26,5.11-5.1,5.11H1223.87L1223.87,948.71z M1143.91,948.71
	c-2.83,0-5.11-2.27-5.11-5.11c0-2.84,2.27-5.1,5.11-5.1h10.77c2.83,0,5.11,2.26,5.11,5.1c0,2.83-2.27,5.11-5.11,5.11H1143.91
	L1143.91,948.71z M1025.96,948.71c-2.84,0-5.1-2.27-5.1-5.11c0-2.84,2.26-5.1,5.1-5.1h48.2c2.83,0,5.1,2.26,5.1,5.1
	c0,2.83-2.26,5.11-5.1,5.11H1025.96L1025.96,948.71z M956.78,948.71c-2.83,0-5.11-2.27-5.11-5.11c0-2.84,2.27-5.1,5.11-5.1h48.19
	c2.83,0,5.11,2.26,5.11,5.1c0,2.83-2.27,5.11-5.11,5.11H956.78L956.78,948.71z M908.58,948.71c-2.84,0-5.11-2.27-5.11-5.11
	c0-2.84,2.27-5.1,5.11-5.1h26.65c2.84,0,5.11,2.26,5.11,5.1c0,2.83-2.27,5.11-5.11,5.11H908.58L908.58,948.71z M1277.17,895.4
	c-2.83,0-5.1-2.27-5.1-5.11c0-2.83,2.26-5.1,5.1-5.1c2.83,0,5.11,2.26,5.11,5.1C1282.28,893.13,1280.01,895.4,1277.17,895.4
	L1277.17,895.4z M1223.87,895.4c-2.83,0-5.11-2.27-5.11-5.11c0-2.83,2.27-5.1,5.11-5.1h32.32c2.83,0,5.1,2.26,5.1,5.1
	c0,2.83-2.26,5.11-5.1,5.11H1223.87L1223.87,895.4z M1143.91,895.4c-2.83,0-5.11-2.27-5.11-5.11c0-2.83,2.27-5.1,5.11-5.1h10.77
	c2.83,0,5.11,2.26,5.11,5.1c0,2.83-2.27,5.11-5.11,5.11H1143.91L1143.91,895.4z M1025.96,895.4c-2.84,0-5.1-2.27-5.1-5.11
	c0-2.83,2.26-5.1,5.1-5.1h48.2c2.83,0,5.1,2.26,5.1,5.1c0,2.83-2.26,5.11-5.1,5.11H1025.96L1025.96,895.4z M956.78,895.4
	c-2.83,0-5.11-2.27-5.11-5.11c0-2.83,2.27-5.1,5.11-5.1h48.19c2.83,0,5.11,2.26,5.11,5.1c0,2.83-2.27,5.11-5.11,5.11H956.78
	L956.78,895.4z M908.58,895.4c-2.84,0-5.11-2.27-5.11-5.11c0-2.83,2.27-5.1,5.11-5.1h26.65c2.84,0,5.11,2.26,5.11,5.1
	c0,2.83-2.27,5.11-5.11,5.11H908.58L908.58,895.4z M1277.17,842.09c-2.83,0-5.1-2.26-5.1-5.1c0-2.83,2.26-5.11,5.1-5.11
	c2.83,0,5.11,2.27,5.11,5.11S1280.01,842.09,1277.17,842.09L1277.17,842.09z M1223.87,842.09c-2.83,0-5.11-2.26-5.11-5.1
	c0-2.83,2.27-5.11,5.11-5.11h31.76c2.84,0,5.1,2.27,5.1,5.11s-2.26,5.1-5.1,5.1H1223.87L1223.87,842.09z M1143.91,842.09
	c-2.83,0-5.11-2.26-5.11-5.1c0-2.83,2.27-5.11,5.11-5.11h10.77c2.83,0,5.11,2.27,5.11,5.11s-2.27,5.1-5.11,5.1H1143.91
	L1143.91,842.09z M1025.96,842.09c-2.84,0-5.1-2.26-5.1-5.1c0-2.83,2.26-5.11,5.1-5.11h48.2c2.83,0,5.1,2.27,5.1,5.11
	s-2.26,5.1-5.1,5.1H1025.96L1025.96,842.09z M956.78,842.09c-2.83,0-5.11-2.26-5.11-5.1c0-2.83,2.27-5.11,5.11-5.11h48.19
	c2.83,0,5.11,2.27,5.11,5.11s-2.27,5.1-5.11,5.1H956.78L956.78,842.09z M908.58,842.09c-2.84,0-5.11-2.26-5.11-5.1
	c0-2.83,2.27-5.11,5.11-5.11h26.65c2.84,0,5.11,2.27,5.11,5.11s-2.27,5.1-5.11,5.1H908.58L908.58,842.09z M1277.17,788.22
	c-2.83,0-5.1-2.26-5.1-5.1c0-2.84,2.26-5.11,5.1-5.11c2.83,0,5.11,2.27,5.11,5.11C1282.28,785.96,1280.01,788.22,1277.17,788.22
	L1277.17,788.22z M1223.87,788.22c-2.83,0-5.11-2.26-5.11-5.1c0-2.84,2.27-5.11,5.11-5.11h31.76c2.84,0,5.1,2.27,5.1,5.11
	c0,2.83-2.26,5.1-5.1,5.1H1223.87L1223.87,788.22z M1143.91,788.22c-2.83,0-5.11-2.26-5.11-5.1c0-2.84,2.27-5.11,5.11-5.11h10.77
	c2.83,0,5.11,2.27,5.11,5.11c0,2.83-2.27,5.1-5.11,5.1H1143.91L1143.91,788.22z M1025.96,788.22c-2.84,0-5.1-2.26-5.1-5.1
	c0-2.84,2.26-5.11,5.1-5.11h48.2c2.83,0,5.1,2.27,5.1,5.11c0,2.83-2.26,5.1-5.1,5.1H1025.96L1025.96,788.22z M956.78,788.22
	c-2.83,0-5.11-2.26-5.11-5.1c0-2.84,2.27-5.11,5.11-5.11h48.19c2.83,0,5.11,2.27,5.11,5.11c0,2.83-2.27,5.1-5.11,5.1H956.78
	L956.78,788.22z M908.58,788.22c-2.84,0-5.11-2.26-5.11-5.1c0-2.84,2.27-5.11,5.11-5.11h26.65c2.84,0,5.11,2.27,5.11,5.11
	c0,2.83-2.27,5.1-5.11,5.1H908.58L908.58,788.22z M1277.17,734.92c-2.83,0-5.1-2.26-5.1-5.1c0-2.84,2.26-5.11,5.1-5.11
	c2.83,0,5.11,2.27,5.11,5.11C1282.84,732.65,1280.01,734.92,1277.17,734.92L1277.17,734.92z M1223.87,734.92
	c-2.83,0-5.11-2.26-5.11-5.1c0-2.84,2.27-5.11,5.11-5.11h32.32c2.83,0,5.1,2.27,5.1,5.11c0,2.83-2.26,5.1-5.1,5.1H1223.87
	L1223.87,734.92z M1143.91,734.92c-2.83,0-5.11-2.26-5.11-5.1c0-2.84,2.27-5.11,5.11-5.11h10.77c2.83,0,5.11,2.27,5.11,5.11
	c0,2.83-2.27,5.1-5.11,5.1H1143.91L1143.91,734.92z M1025.96,734.92c-2.84,0-5.1-2.26-5.1-5.1c0-2.84,2.26-5.11,5.1-5.11h48.2
	c2.83,0,5.1,2.27,5.1,5.11c0,2.83-2.26,5.1-5.1,5.1H1025.96L1025.96,734.92z M956.78,734.92c-2.83,0-5.11-2.26-5.11-5.1
	c0-2.84,2.27-5.11,5.11-5.11h48.19c2.83,0,5.11,2.27,5.11,5.11c0,2.83-2.27,5.1-5.11,5.1H956.78L956.78,734.92z M908.58,734.92
	c-2.84,0-5.11-2.26-5.11-5.1c0-2.84,2.27-5.11,5.11-5.11h26.65c2.84,0,5.11,2.27,5.11,5.11c0,2.83-2.27,5.1-5.11,5.1H908.58
	L908.58,734.92z M1277.17,681.62c-2.83,0-5.1-2.27-5.1-5.11s2.26-5.1,5.1-5.1c2.83,0,5.11,2.26,5.11,5.1
	C1282.84,679.34,1280.01,681.62,1277.17,681.62L1277.17,681.62z M1223.87,681.62c-2.83,0-5.11-2.27-5.11-5.11s2.27-5.1,5.11-5.1
	h32.32c2.83,0,5.1,2.26,5.1,5.1c0,2.83-2.26,5.11-5.1,5.11H1223.87L1223.87,681.62z M1143.91,681.62c-2.83,0-5.11-2.27-5.11-5.11
	s2.27-5.1,5.11-5.1h10.77c2.83,0,5.11,2.26,5.11,5.1c0,2.83-2.27,5.11-5.11,5.11H1143.91L1143.91,681.62z M1025.96,681.62
	c-2.84,0-5.1-2.27-5.1-5.11s2.26-5.1,5.1-5.1h48.2c2.83,0,5.1,2.26,5.1,5.1c0,2.83-2.26,5.11-5.1,5.11H1025.96L1025.96,681.62z
	 M956.78,681.62c-2.83,0-5.11-2.27-5.11-5.11s2.27-5.1,5.11-5.1h48.19c2.83,0,5.11,2.26,5.11,5.1c0,2.83-2.27,5.11-5.11,5.11H956.78
	L956.78,681.62z M908.58,681.62c-2.84,0-5.11-2.27-5.11-5.11s2.27-5.1,5.11-5.1h26.65c2.84,0,5.11,2.26,5.11,5.1
	c0,2.83-2.27,5.11-5.11,5.11H908.58L908.58,681.62z M1277.17,628.31c-2.83,0-5.1-2.26-5.1-5.1c0-2.83,2.26-5.11,5.1-5.11
	c2.83,0,5.11,2.27,5.11,5.11C1282.28,626.04,1280.01,628.31,1277.17,628.31L1277.17,628.31L1277.17,628.31z M1223.87,628.31
	c-2.83,0-5.11-2.26-5.11-5.1c0-2.83,2.27-5.11,5.11-5.11h31.76c2.84,0,5.1,2.27,5.1,5.11c0,2.83-2.26,5.1-5.1,5.1H1223.87
	L1223.87,628.31z M1143.91,628.31c-2.83,0-5.11-2.26-5.11-5.1c0-2.83,2.27-5.11,5.11-5.11h10.77c2.83,0,5.11,2.27,5.11,5.11
	c0,2.83-2.27,5.1-5.11,5.1H1143.91L1143.91,628.31z M1025.96,628.31c-2.84,0-5.1-2.26-5.1-5.1c0-2.83,2.26-5.11,5.1-5.11h48.2
	c2.83,0,5.1,2.27,5.1,5.11c0,2.83-2.26,5.1-5.1,5.1H1025.96L1025.96,628.31z M956.78,628.31c-2.83,0-5.11-2.26-5.11-5.1
	c0-2.83,2.27-5.11,5.11-5.11h48.19c2.83,0,5.11,2.27,5.11,5.11c0,2.83-2.27,5.1-5.11,5.1H956.78L956.78,628.31z M908.58,628.31
	c-2.84,0-5.11-2.26-5.11-5.1c0-2.83,2.27-5.11,5.11-5.11h26.65c2.84,0,5.11,2.27,5.11,5.11c0,2.83-2.27,5.1-5.11,5.1H908.58
	L908.58,628.31z M1277.17,575c-2.83,0-5.1-2.26-5.1-5.1c0-2.83,2.26-5.11,5.1-5.11c2.83,0,5.11,2.27,5.11,5.11
	C1282.84,572.74,1280.01,575,1277.17,575L1277.17,575z M1223.87,575c-2.83,0-5.11-2.26-5.11-5.1c0-2.83,2.27-5.11,5.11-5.11h31.76
	c2.84,0,5.1,2.27,5.1,5.11c0,2.84-2.26,5.1-5.1,5.1H1223.87L1223.87,575z M1143.91,575c-2.83,0-5.11-2.26-5.11-5.1
	c0-2.83,2.27-5.11,5.11-5.11h10.77c2.83,0,5.11,2.27,5.11,5.11c0,2.84-2.27,5.1-5.11,5.1H1143.91L1143.91,575z M1025.96,575
	c-2.84,0-5.1-2.26-5.1-5.1c0-2.83,2.26-5.11,5.1-5.11h48.2c2.83,0,5.1,2.27,5.1,5.11c0,2.84-2.26,5.1-5.1,5.1H1025.96L1025.96,575z
	 M956.78,575c-2.83,0-5.11-2.26-5.11-5.1c0-2.83,2.27-5.11,5.11-5.11h48.19c2.83,0,5.11,2.27,5.11,5.11c0,2.84-2.27,5.1-5.11,5.1
	H956.78L956.78,575z M908.58,575c-2.84,0-5.11-2.26-5.11-5.1c0-2.83,2.27-5.11,5.11-5.11h26.65c2.84,0,5.11,2.27,5.11,5.11
	c0,2.84-2.27,5.1-5.11,5.1H908.58z"/>
<path class="st11" d="M1374.71,644.18h184.3c12.47,0,22.69,10.21,22.69,22.69v301.68c0,12.48-10.21,22.69-22.69,22.69h-184.3
	c-12.47,0-22.68-10.21-22.68-22.69V666.87C1352.03,654.4,1362.23,644.18,1374.71,644.18z"/>
<path class="st13" d="M1421.21,927.16c0-5.67,4.54-10.78,10.78-10.78c6.23,0,10.77,4.54,10.77,10.78c0,6.23-4.54,10.77-10.77,10.77
	C1426.32,937.93,1421.21,933.39,1421.21,927.16L1421.21,927.16z M1383.79,906.17L1383.79,906.17c0,14.74,12.47,26.65,26.65,26.65
	c0.57,0,1.14,0,1.7,0c-2.26-5.11-2.26-10.78,0-15.88c4.54-9.65,15.88-13.61,24.95-9.08c0-0.57,0-1.13,0-1.7
	c0-14.74-11.91-26.65-26.66-26.65C1395.7,879.53,1383.79,891.43,1383.79,906.17L1383.79,906.17z M1458.64,932.83
	c-2.83,0-5.1-2.27-5.1-5.11c0-2.84,2.26-5.1,5.1-5.1h74.86c2.83,0,5.1,2.26,5.1,5.1c0,2.83-2.26,5.11-5.1,5.11H1458.64
	L1458.64,932.83z M1458.64,916.95c-2.83,0-5.1-2.27-5.1-5.11c0-2.83,2.26-5.1,5.1-5.1h31.76c2.83,0,5.11,2.26,5.11,5.1
	c0,2.83-2.27,5.11-5.11,5.11H1458.64L1458.64,916.95z M1421.21,825.65c0-5.67,4.54-10.78,10.78-10.78c6.23,0,10.77,4.54,10.77,10.78
	c0,6.23-4.54,10.77-10.77,10.77C1426.32,836.42,1421.21,831.89,1421.21,825.65L1421.21,825.65z M1458.64,831.32
	c-2.83,0-5.1-2.27-5.1-5.11c0-2.84,2.26-5.1,5.1-5.1h74.86c2.83,0,5.1,2.26,5.1,5.1c0,2.83-2.26,5.11-5.1,5.11H1458.64
	L1458.64,831.32z M1383.79,804.67c0,14.74,11.91,26.65,26.65,26.65c0.57,0,1.14,0,1.7,0c-1.13-2.27-1.7-5.11-1.7-7.94
	c0-10.21,8.51-18.71,18.71-18.71c2.83,0,5.68,0.57,7.94,1.7c0-0.57,0-1.13,0-1.7c0-14.74-11.91-26.66-26.66-26.66
	C1395.7,778.01,1383.79,789.92,1383.79,804.67L1383.79,804.67z M1458.64,815.45c-2.83,0-5.1-2.27-5.1-5.11c0-2.83,2.26-5.1,5.1-5.1
	h31.76c2.83,0,5.11,2.26,5.11,5.1c0,2.83-2.27,5.11-5.11,5.11H1458.64z"/>
<path class="st13" d="M1400.23,687.29h48.2c2.83,0,5.11,2.26,5.11,5.1c0,2.83-2.27,5.11-5.11,5.11h-48.2c-2.83,0-5.1-2.27-5.1-5.11
	C1394.56,689.55,1397.39,687.29,1400.23,687.29z"/>
<path class="st13" d="M1496.06,687.29h48.2c2.83,0,5.11,2.26,5.11,5.1c0,2.83-2.27,5.11-5.11,5.11h-48.2c-2.83,0-5.1-2.27-5.1-5.11
	S1493.23,687.29,1496.06,687.29z"/>
<path class="st14" d="M1389.46,724.14v-5.1h171.26v5.1H1389.46L1389.46,724.14z M1469.41,713.93v-42.53h5.1v42.53H1469.41z"/>
<path class="st15" d="M1374.71,521.13h184.3c12.47,0,22.69,10.21,22.69,22.69v51.03c0,12.48-10.21,22.69-22.69,22.69h-184.3
	c-12.47,0-22.68-10.21-22.68-22.69v-51.03C1352.03,531.34,1362.23,521.13,1374.71,521.13z"/>
<path class="st16" d="M1400.23,585.21c-2.83,0-5.1-2.26-5.1-5.1c0-2.83,2.26-5.11,5.1-5.11h101.51c2.83,0,5.1,2.27,5.1,5.11
	s-2.26,5.1-5.1,5.1H1400.23L1400.23,585.21z M1400.23,564.23c-2.83,0-5.1-2.26-5.1-5.1c0-2.83,2.26-5.1,5.1-5.1h48.2
	c2.83,0,5.11,2.26,5.11,5.1c0,2.84-2.27,5.1-5.11,5.1H1400.23z"/>
<circle class="st7" cx="237.73" cy="595.99" r="100.37"/>
<ellipse transform="matrix(0.9239 -0.3827 0.3827 0.9239 -209.8038 136.0823)" class="st8" cx="237.16" cy="595.42" rx="83.36" ry="83.36"/>
<path class="st9" d="M232.46,525.93c-6.11,0.7-11.79,3.49-16.09,7.89c-3.22,3.19-6.27,6.46-9.54,9.69
	c-1.64,1.68-3.29,3.31-4.94,4.96c-1.65,1.66-3.47,3.41-5.19,5.15c-1.72,1.74-3.14,3.26-4.73,4.88c-2.48,2.48-4.96,4.96-7.45,7.48
	c-1.9,1.97-3.76,4-5.65,5.96c-1.11,1.18-2.3,2.26-3.35,3.5c-4.31,5.27-6.68,11.87-6.68,18.68c0,0.4,0,0.81,0.02,1.21
	c0.09,3.91,1.12,7.74,2.99,11.17c1.07,2.07,2.31,4.06,3.7,5.93c0.92,1.3,1.59,1.27,2.8,0.28c0.23-0.2,0.45-0.41,0.64-0.63
	c1.2-1.26,2.37-2.51,3.59-3.77c1.72-1.8,3.47-3.6,5.19-5.42c1.72-1.82,3.58-3.83,5.38-5.71c0.86-0.92,1.77-1.77,2.63-2.68
	c1.85-1.95,3.65-3.95,5.48-5.88c1.85-1.93,3.71-3.73,5.51-5.61c1.8-1.88,4.02-4.19,6.04-6.29c2.03-2.09,3.75-3.85,5.63-5.77
	c2.45-2.54,4.84-5.13,7.26-7.66c1.51-1.54,3.06-3.03,4.57-4.56c2.09-2.09,4.04-4.19,6.09-6.28c2.06-2.09,3.58-3.5,5.34-5.3
	c3.93-3.97,7.86-7.97,11.78-11.98c0.26-0.25,0.5-0.52,0.71-0.8c0.97-1.21,1.04-1.49-0.15-2.34c-1.82-1.44-3.76-2.7-5.81-3.77
	c-3.63-1.7-7.58-2.57-11.59-2.57h-0.2c-1.34,0-2.67,0.08-4,0.25l-0.02-0.02L232.46,525.93L232.46,525.93L232.46,525.93z
	 M267.1,551.69L267.1,551.69L267.1,551.69l0.63-0.08h0.08c3.74,0,7.3,1.59,9.8,4.37c5.67,5.89,11.45,11.68,17.25,17.44
	c2.24,1.98,4.21,4.24,5.86,6.74c2.29,3.52,3.8,7.5,4.42,11.65c0.28,2.34,0.28,4.7,0,7.04c-0.52,4.7-2.14,9.22-4.76,13.16
	c-1.4,1.92-2.95,3.74-4.61,5.45c-2.09,2.22-4.19,4.33-6.29,6.4c-2.09,2.07-4.41,4.27-6.28,6.11c-1.86,1.84-3.68,3.7-5.53,5.57
	l-6.04,6.1c-2.24,2.15-4.34,4.39-6.43,6.49c-2.89,2.93-5.66,5.98-8.75,8.71c-4.07,3.7-9.2,6.03-14.66,6.68
	c-5.51,0.79-11.12-0.01-16.18-2.3c-2.04-1.07-3.98-2.3-5.8-3.7c-1.11-0.78-1.11-1.39-0.17-2.37c1.53-1.64,3.17-3.23,4.76-4.84
	c0.92-0.92,1.82-1.86,2.76-2.78c1.99-1.97,3.91-3.91,6.01-5.86c0.17-0.16,0.36-0.29,0.52-0.47c1.86-1.94,3.86-4.02,5.6-5.8
	c1.74-1.78,3.55-3.5,5.32-5.27l2.37-2.45c0.38-0.38,0.71-0.8,1.07-1.19c2.41-2.39,4.77-4.82,7.18-7.2c1.87-1.87,3.77-3.67,5.63-5.5
	c2.61-2.6,5.29-5.15,7.8-7.85c2.1-2.33,3.38-5.26,3.66-8.38c0.05-0.52,0.08-1.05,0.08-1.57c0-3.09-0.93-6.1-2.68-8.66
	c-0.17-0.43-0.46-0.79-0.84-1.05c-1.03-0.7-2.42-0.42-3.11,0.61c-3.43,3.33-6.84,6.67-10.23,10l-10.9,10.62
	c-2.66,2.58-5.34,5.13-7.96,7.7c-3.23,3.17-6.41,6.39-9.63,9.58c-1.6,1.59-3.26,3.14-4.9,4.71l-6.95,6.71
	c-1.28,1.16-2.83,1.99-4.52,2.41c-2.24,0.61-4.61,0.69-6.89,0.23c-2.41-0.41-4.64-1.58-6.32-3.37c-2.72-2.86-5.57-5.68-8.37-8.51
	c-1.16-1.19-1.13-1.33,0-2.44c5.84-5.86,11.7-11.74,17.56-17.62l13.27-13.27l7.14-7.2c2.01-1.97,4.08-3.96,6.03-5.86
	c1.94-1.91,3.88-3.93,5.67-5.75c1.8-1.82,3.62-3.61,5.45-5.42c2.2-2.2,4.46-4.48,6.56-6.58l6.4-6.28c0.22-0.2,0.43-0.41,0.62-0.63
	c2.25-2.65,5.55-4.18,9.02-4.19H267.1L267.1,551.69z"/>
<path class="st17" d="M15.43,970.82c0,27.79,14.74,59.54,62.95,59.54h445.15c30.62,0,59.54-20.42,59.54-62.95V689.55
	c0-22.68-9.08-55.57-55.58-55.57H63.64c-13.61,0-29.49-11.34-29.49-26.09c0-4.53-18.71-8.51-18.71,7.37L15.43,970.82L15.43,970.82
	L15.43,970.82z"/>
<path class="st1" d="M15.43,935.66c0,27.79,14.74,59.54,62.95,59.54h445.15c30.62,0,59.54-20.42,59.54-62.95V660.07
	c0-22.69-9.08-55.57-55.58-55.57H63.64c-13.61,0-32.89-10.21-32.89-24.95c0.56-11.91-15.32-17.01-15.32-0.57
	C15.43,595.42,15.43,907.88,15.43,935.66L15.43,935.66L15.43,935.66z"/>
<path class="st2" d="M15.43,946.43c0,27.79,14.74,59.55,62.95,59.55h445.15c30.62,0,59.54-20.42,59.54-62.95v-272.2
	c0-22.68-9.08-55.57-55.58-55.57H63.64c-26.66,0-44.8-18.71-44.8-33.45c0-1.7-3.97-3.4-3.97-3.4S15.43,918.65,15.43,946.43
	L15.43,946.43L15.43,946.43z"/>
<path class="st18" d="M23.38,949.28c5.67,8.51,13.04,15.88,20.98,22.11c7.94,3.4-2.84,7.37,34.02,7.37h419.07
	c23.81,0,52.17-16.44,52.17-40.83V689.55c0-11.34-9.64-36.85-33.46-36.85H59.67c-11.91,0-22.68-6.24-29.49-15.89
	c-0.56-0.56,5.11,5.11,3.41,2.83c-1.7-2.26-10.78-13.6-11.34-19.85"/>
<path class="st19" d="M590.45,781.99c0.56-7.37-5.11-14.18-12.48-14.74c-0.56,0-1.7,0-2.26,0h-55.57
	c-34.03,1.13-60.11,29.49-59.54,62.94c0,42.53,32.32,62.95,59.54,62.95h55.57c7.94,0.57,14.17-5.67,14.74-13.04c0-0.56,0-1.13,0-1.7
	V781.99z"/>
<path class="st1" d="M597.82,770.64c0.56-7.36-5.11-14.17-12.48-14.74c-0.56,0-1.7,0-2.26,0h-59.54
	c-34.03,1.13-60.11,29.48-59.54,62.94c0,42.53,32.32,62.95,59.54,62.95h59.54c7.93,0.57,14.17-5.67,14.74-13.04c0-0.57,0-1.13,0-1.7
	V770.64z"/>
<path class="st20" d="M597.82,777.45c0.56-7.37-5.11-13.61-12.48-14.17c-0.56,0-1.7,0-2.26,0H527.5
	c-34.03,1.13-60.11,28.35-59.54,61.24c0,41.4,32.32,61.25,59.54,61.25h55.57c7.93,0.57,14.17-5.67,14.74-13.04c0-0.57,0-1.13,0-1.7
	V777.45L597.82,777.45z"/>
<ellipse class="st21" cx="507.09" cy="820.55" rx="17.01" ry="16.45"/>
<g>
	<g>
		<path class="st22" d="M271.46,928.62c1.59,0.75,3.22,1.39,4.9,1.93l0.71,0.24c1.6,0.49,3.22,0.87,4.86,1.14h0.75
			c3.42,0.53,6.9,0.53,10.31,0h0.79c1.62-0.26,3.22-0.63,4.78-1.1l0.91-0.28c1.59-0.51,3.15-1.12,4.67-1.82l0.67-0.32
			c1.54-0.74,3.02-1.58,4.47-2.48l0.35-0.2c1.52-0.98,2.98-2.03,4.39-3.16l0.83-0.68c1.36-1.13,2.68-2.35,3.95-3.68l0.87-0.87
			c1.3-1.34,2.61-2.76,3.95-4.27l0.56-0.71c1.18-1.45,2.33-2.96,3.43-4.54l0.4-0.56c-12.73-0.73-25.33-3.09-37.46-7.03
			c-1.67-0.53-3.46-0.53-5.13,0c-12.14,3.97-24.75,6.36-37.5,7.11C253.79,916.37,261.91,923.69,271.46,928.62L271.46,928.62z"/>
		<path class="st22" d="M187.3,861.45c0.15,1.67,0.41,3.33,0.75,4.97l0.2,0.92c0.38,1.59,0.85,3.16,1.43,4.7l0.31,0.75
			c1.25,3.21,2.98,6.2,5.14,8.89l0.51,0.63c1.03,1.26,2.14,2.44,3.32,3.55l0.71,0.67c1.25,1.1,2.57,2.14,3.95,3.08l0.64,0.44
			c1.35,0.91,2.75,1.76,4.19,2.53l0.52,0.28c1.54,0.79,3.16,1.5,4.78,2.18l1.1,0.44c1.64,0.6,3.32,1.14,5.06,1.62l1.31,0.31
			c1.78,0.47,3.59,0.87,5.49,1.18h0.95c1.74,0.28,3.52,0.51,5.34,0.67h0.87c-1.42-2.76-2.75-5.65-3.95-8.65
			c-0.93-1.98-0.08-4.34,1.89-5.26c1.16-0.54,2.49-0.49,3.6,0.12c0.81,0.41,1.46,1.1,1.82,1.93c1.06,2.51,2.17,4.91,3.36,7.23
			c1.57,3.08,4.82,4.91,8.26,4.66c6.94-0.47,13.85-1.49,20.62-3.04c1.14-0.31,1.82-1.48,1.51-2.62c-0.15-0.57-0.54-1.06-1.07-1.34
			c-5.85-2.65-11.65-5.57-17.35-8.89c-23.45-12.94-43.55-31.18-58.71-53.27l-0.24,0.52c-0.87,1.89-1.66,3.75-2.33,5.61v0.39
			c-0.71,1.9-1.31,3.95-1.82,5.69l-0.28,0.95c-0.47,1.82-0.85,3.62-1.15,5.41v0.95c-0.28,1.79-0.46,3.6-0.56,5.41c0,0,0,0.27,0,0.39
			c-0.09,1.71-0.09,3.43,0,5.14C187.26,860.9,187.26,861.09,187.3,861.45L187.3,861.45z"/>
		<path class="st22" d="M288.49,752.83h-0.56c-10.96,3.86-21.55,8.72-31.61,14.54c-22.79,12.61-42.23,30.5-56.7,52.15
			c-0.92,1.48-0.92,3.34,0,4.82c5.4,8.59,11.75,16.54,18.93,23.71c-1.12-8.66-1.67-17.38-1.67-26.12c0-2.44,0-4.9,0-7.3
			c0.05-0.93,0.41-1.81,1.03-2.49c1.52-1.57,4.02-1.62,5.59-0.1c0.8,0.76,1.23,1.82,1.22,2.91c0,2.34,0,4.7,0,7.07
			c-0.01,10.7,0.91,21.38,2.72,31.93c0.31,1.78,1.25,3.39,2.65,4.54c8.24,6.81,17.05,12.91,26.32,18.22
			c21.59,12.91,45.85,20.73,70.92,22.84c3.41,0.13,6.58-1.76,8.1-4.82c3.17-6.47,5.82-13.18,7.9-20.08
			c0.32-1.02-0.26-2.11-1.28-2.42c-0.61-0.19-1.26-0.07-1.76,0.32c-5.38,3.94-10.96,7.61-16.71,10.99c-1.78,1.03-3.6,1.97-5.42,2.92
			c-0.9,0.48-1.94,0.59-2.93,0.32c-2.07-0.7-3.18-2.94-2.48-5.01c0.31-0.93,0.96-1.7,1.82-2.18c1.73-0.92,3.47-1.88,5.17-2.89
			c9.35-5.4,18.23-11.6,26.51-18.53c1.21-1,2.06-2.4,2.37-3.95c1.79-10.67,2.67-21.47,2.61-32.29c0-2.86,0-5.73,0-8.57
			c-0.02-2.18,1.73-3.97,3.91-3.98c0.82-0.01,1.62,0.24,2.29,0.71c0.85,0.71,1.36,1.74,1.43,2.84c0,2.93,0.19,5.85,0.19,8.81
			c0.46,26.77-5.32,53.29-16.91,77.45h0.87c1.82-0.19,3.59-0.41,5.33-0.67h0.91c1.9-0.32,3.72-0.75,5.53-1.22l1.27-0.31
			c1.73-0.47,3.42-1.03,5.05-1.66l1.1-0.44c1.67-0.67,3.29-1.39,4.82-2.17l0.52-0.28c1.45-0.78,2.87-1.63,4.22-2.57l0.64-0.4
			c1.37-0.96,2.69-2,3.95-3.12l0.71-0.67c1.18-1.11,2.3-2.3,3.32-3.56l0.51-0.63c2.16-2.68,3.89-5.68,5.14-8.9l0.31-0.75
			c0.58-1.54,1.05-3.1,1.42-4.7l0.2-0.91c0.35-1.58,0.6-3.17,0.75-4.78c0-0.24,0-0.44,0-0.67c0.1-1.71,0.1-3.43,0-5.14
			c0,0,0-0.28,0-0.4c-0.05-1.88-0.19-3.77-0.44-5.65v-0.94c-0.28-1.79-0.67-3.6-1.14-5.42l-0.36-0.91c-0.51-1.86-1.1-3.76-1.82-5.66
			v-0.47c-0.67-1.86-1.46-3.71-2.33-5.57l-0.23-0.51c-2.65,4.1-5.5,8.06-8.58,11.85c-1.12,1.31-3.08,1.48-4.4,0.36
			c-0.64-0.55-1.04-1.34-1.1-2.17c0-0.95,0-1.82,0-2.65c-0.05-0.76,0.19-1.51,0.67-2.09c6.17-8.07,5.99-19.32-0.43-27.19
			c-13.63-16.61-30.23-30.52-48.96-41.05c-4.98-2.84-9.96-5.41-14.93-7.9c3.32-1.18,6.99-2.37,11.02-3.44
			c2.64,1.37,5.27,2.81,7.9,4.31c7.51,4.33,14.72,9.13,21.62,14.38c-2.44-9.18-5.83-18.08-10.12-26.55
			c-1.26-2.53-3.89-4.08-6.71-3.95c-13.57,0.85-26.95,3.61-39.76,8.18L288.49,752.83L288.49,752.83L288.49,752.83z M256.41,788.15
			L256.41,788.15l13,4.46c0.89,0.31,1.35,1.28,1.04,2.17c-0.08,0.24-0.22,0.46-0.41,0.64l-8.54,8.54c-0.66,0.67-1.73,0.67-2.4,0.01
			c-0.18-0.18-0.31-0.4-0.41-0.64l-4.55-13c-0.33-0.88,0.1-1.86,0.98-2.2C255.54,787.97,256,787.98,256.41,788.15L256.41,788.15
			L256.41,788.15z M241.67,823.52L241.67,823.52c-0.84-0.42-1.18-1.44-0.76-2.27c0.16-0.34,0.44-0.61,0.76-0.77l12.32-6.04
			c0.85-0.41,1.86-0.07,2.28,0.78c0.11,0.23,0.17,0.47,0.17,0.73v12.09c-0.02,0.94-0.78,1.69-1.72,1.67
			c-0.26-0.01-0.5-0.06-0.74-0.17L241.67,823.52L241.67,823.52z M269.33,851.42L269.33,851.42l-12.92,4.42
			c-0.89,0.28-1.85-0.21-2.14-1.1c-0.1-0.33-0.1-0.69,0-1.03l4.47-13c0.31-0.88,1.28-1.35,2.17-1.03c0.24,0.08,0.46,0.22,0.64,0.4
			l8.54,8.54c0.64,0.68,0.62,1.76-0.05,2.41C269.83,851.2,269.59,851.33,269.33,851.42L269.33,851.42L269.33,851.42z M295.6,856.04
			L295.6,856.04l-6.04,12.33c-0.42,0.83-1.44,1.18-2.28,0.77c-0.33-0.17-0.6-0.44-0.77-0.77l-6.04-12.33
			c-0.41-0.84-0.07-1.86,0.77-2.28c0.23-0.11,0.48-0.16,0.73-0.17h12.09c0.94,0.02,1.7,0.78,1.68,1.72
			c-0.01,0.25-0.07,0.5-0.17,0.73L295.6,856.04L295.6,856.04L295.6,856.04z M319.75,856.04L319.75,856.04l-13-4.47
			c-0.88-0.31-1.35-1.28-1.03-2.17c0.08-0.24,0.22-0.46,0.4-0.63l8.54-8.54c0.66-0.66,1.74-0.66,2.41,0c0.18,0.18,0.31,0.4,0.4,0.64
			l4.42,12.68c0.42,0.84,0.08,1.86-0.76,2.28c-0.47,0.23-1.02,0.24-1.49,0.01L319.75,856.04L319.75,856.04L319.75,856.04z
			 M334.4,820.67L334.4,820.67c0.84,0.42,1.18,1.43,0.77,2.27c-0.16,0.34-0.44,0.6-0.77,0.77l-12.32,6.04
			c-0.84,0.42-1.86,0.07-2.28-0.77c-0.11-0.23-0.17-0.47-0.17-0.73v-12.29c0.02-0.94,0.78-1.69,1.72-1.68
			c0.25,0.01,0.5,0.07,0.73,0.18L334.4,820.67L334.4,820.67L334.4,820.67z M306.75,792.77L306.75,792.77l12.88-4.62
			c0.89-0.28,1.85,0.21,2.14,1.1c0.1,0.34,0.1,0.7,0,1.03l-4.47,13.01c-0.31,0.89-1.28,1.35-2.17,1.03
			c-0.24-0.09-0.46-0.22-0.64-0.4l-8.54-8.54c-0.63-0.69-0.58-1.77,0.11-2.4c0.19-0.16,0.41-0.29,0.64-0.37L306.75,792.77
			L306.75,792.77L306.75,792.77z M311.72,821.93L311.72,821.93c0,13.09-10.61,23.71-23.71,23.71c-13.09,0-23.7-10.61-23.7-23.71
			c0-13.09,10.61-23.7,23.7-23.7C301.11,798.23,311.72,808.85,311.72,821.93L311.72,821.93z M289.52,775.67L289.52,775.67
			l6.04,12.33c0.41,0.84,0.07,1.86-0.77,2.27c-0.23,0.11-0.48,0.17-0.73,0.18h-12.09c-0.94-0.02-1.69-0.79-1.67-1.72
			c0-0.26,0.06-0.5,0.17-0.73l6.04-12.33c0.44-0.82,1.47-1.15,2.29-0.7C289.11,775.12,289.36,775.37,289.52,775.67L289.52,775.67z"
			/>
		<path class="st22" d="M187.69,794.28v0.95c0.29,1.79,0.67,3.6,1.15,5.41l0.28,0.95c0.51,1.9,1.1,3.95,1.82,5.69v0.4
			c0.71,1.85,1.5,3.71,2.33,5.61l0.24,0.51c7.66-11.47,16.85-21.83,27.34-30.78c2.6-13.37,7-26.31,13.08-38.48
			c-12.59,0.5-24.68,5.11-34.42,13.12l-0.47,0.44c-1.24,1.16-2.4,2.4-3.47,3.71l-0.44,0.56c-2.17,2.69-3.9,5.71-5.14,8.92
			l-0.31,0.75c-0.58,1.54-1.05,3.11-1.43,4.7l-0.2,0.92c-0.34,1.57-0.59,3.17-0.75,4.78c0,0.2,0,0.44,0,0.63
			c-0.09,1.71-0.09,3.43,0,5.14c0,0,0,0.28,0,0.4C187.33,790.49,187.46,792.39,187.69,794.28L187.69,794.28z"/>
		<path class="st22" d="M252.46,760.34c5.69-3.28,11.46-6.24,17.31-8.85c1.03-0.66,1.32-2.03,0.66-3.06
			c-0.27-0.41-0.67-0.73-1.14-0.89c-3.29-0.73-6.55-1.36-9.76-1.86c-2.14-0.41-3.55-2.47-3.14-4.61c0.1-0.56,0.33-1.09,0.65-1.55
			c0.86-1.18,2.31-1.78,3.76-1.57c8.47,1.29,16.82,3.26,24.97,5.89c1.44,0.46,2.98,0.46,4.42,0c12.27-4.01,25.01-6.42,37.89-7.16
			l-0.23-0.31c-1.21-1.74-2.47-3.38-3.76-4.94l-0.35-0.48c-1.31-1.54-2.61-3-3.95-4.38l-0.75-0.75c-1.34-1.32-2.66-2.56-3.95-3.72
			l-0.75-0.59c-1.46-1.24-2.99-2.4-4.58-3.47h-0.28c-1.45-1.01-2.96-1.93-4.51-2.77l-0.63-0.31c-1.52-0.71-3.07-1.31-4.66-1.82
			l-0.91-0.28c-1.57-0.46-3.16-0.84-4.78-1.1h-0.79c-3.1-0.44-6.23-0.44-9.33,0h-1.1c-1.18,0-2.33,0.4-3.52,0.67h-0.63
			c-1.34,0.37-2.66,0.8-3.95,1.31l-0.95,0.4c-1.08,0.45-2.16,0.94-3.24,1.46l-0.82,0.4c-1.29,0.68-2.61,1.43-3.95,2.25l-0.59,0.4
			c-1.08,0.73-2.16,1.52-3.24,2.37l-0.75,0.59c-2.54,2.17-4.9,4.54-7.07,7.07l-0.55,0.63c-2.4,2.76-4.62,5.68-6.64,8.73l-0.28,0.4
			c-7.14,11.19-12.47,23.43-15.8,36.27C237.68,769.44,244.93,764.65,252.46,760.34L252.46,760.34z"/>
		<path class="st22" d="M356.41,784.01c9.87,8.72,18.55,18.71,25.8,29.71c1.88-4.01,3.41-8.18,4.58-12.45v-0.59
			c0.5-1.92,0.91-3.82,1.23-5.69v-0.67c0.29-1.88,0.49-3.76,0.59-5.66c0.1-1.78,0.1-3.58,0-5.37c0,0,0-0.35,0-0.52
			c-0.15-1.68-0.4-3.36-0.75-5.02v-0.87c-0.38-1.59-0.85-3.16-1.42-4.7l-0.32-0.71c-1.24-3.21-2.98-6.21-5.14-8.9l-0.47-0.63
			c-1.04-1.26-2.17-2.44-3.36-3.55l-0.71-0.67c-1.25-1.12-2.57-2.16-3.95-3.12l-0.63-0.44c-1.38-0.93-2.8-1.78-4.27-2.57l-0.55-0.44
			c-1.54-0.8-3.16-1.5-4.86-2.18l-1.07-0.44c-1.64-0.61-3.33-1.16-5.1-1.66l-1.26-0.31c-1.82-0.48-3.64-0.87-5.53-1.23h-0.91
			c-1.77-0.28-3.58-0.52-5.45-0.71h-0.8c5.89,11.74,10.19,24.2,12.8,37.07C355.14,782.62,355.68,783.41,356.41,784.01L356.41,784.01
			z"/>
	</g>
</g>
</svg>
