<?xml version="1.0" encoding="utf-8"?>
<!-- Generator: Adobe Illustrator 26.0.3, SVG Export Plug-In . SVG Version: 6.00 Build 0)  -->
<svg version="1.1" id="Layer_1" xmlns="http://www.w3.org/2000/svg" xmlns:xlink="http://www.w3.org/1999/xlink" x="0px" y="0px"
	 viewBox="0 0 1782.5 2252.88" style="enable-background:new 0 0 1782.5 2252.88;" xml:space="preserve">
<style type="text/css">
	.st0{fill-rule:evenodd;clip-rule:evenodd;fill:#404853;}
	.st1{fill-rule:evenodd;clip-rule:evenodd;fill:#E4B22D;}
	.st2{fill-rule:evenodd;clip-rule:evenodd;fill:#D4A527;}
	.st3{fill-rule:evenodd;clip-rule:evenodd;fill:#AD733B;}
	.st4{fill-rule:evenodd;clip-rule:evenodd;fill:#23242D;}
	.st5{fill-rule:evenodd;clip-rule:evenodd;fill:#C9292C;}
	.st6{fill-rule:evenodd;clip-rule:evenodd;fill:#606B78;}
	.st7{fill-rule:evenodd;clip-rule:evenodd;fill:#FFFFFF;}
</style>
<path class="st0" d="M1712.64,6.61c-33.63,0-60.92,27.28-60.92,60.92c0,33.62,27.28,60.92,60.92,60.92
	c33.62,0,60.92-27.29,60.92-60.92C1773.55,33.89,1746.26,6.61,1712.64,6.61L1712.64,6.61z M136.92,388.35
	c-60.59,0-109.65,49.06-109.65,109.65c0,60.59,49.06,109.65,109.65,109.65c60.59,0,109.65-49.06,109.65-109.65
	C246.57,437.41,197.51,388.35,136.92,388.35L136.92,388.35z M84.12,2102.15c-40.37,0-73.1,32.73-73.1,73.1
	c0,40.37,32.73,73.1,73.1,73.1c40.37,0,73.1-32.73,73.1-73.1C157.22,2134.88,124.49,2102.15,84.12,2102.15L84.12,2102.15z
	 M1099.41,1704.16c-8.93,0-16.25,7.31-16.25,16.25c0,8.94,7.3,16.24,16.25,16.24c8.93,0,16.25-7.3,16.25-16.24
	C1115.65,1711.47,1108.34,1704.16,1099.41,1704.16z"/>
<ellipse transform="matrix(0.7071 -0.7071 0.7071 0.7071 -28.9669 659.8143)" class="st1" cx="781.98" cy="364.87" rx="137.18" ry="137.18"/>
<ellipse transform="matrix(0.7071 -0.7071 0.7071 0.7071 -27.9147 660.2546)" class="st2" cx="783.04" cy="363.82" rx="114.36" ry="114.36"/>
<path class="st3" d="M784.34,264.33c-8.5,0.98-16.4,4.86-22.38,10.98c-4.48,4.45-8.74,9.01-13.28,13.49
	c-2.28,2.34-4.58,4.6-6.88,6.92c-2.3,2.3-4.84,4.76-7.23,7.17c-2.39,2.42-4.37,4.55-6.58,6.79c-3.45,3.46-6.91,6.92-10.36,10.4
	c-2.65,2.74-5.24,5.57-7.87,8.3c-1.54,1.64-3.2,3.15-4.67,4.87c-6.01,7.33-9.29,16.52-9.29,26c0,0.55,0,1.13,0.04,1.68
	c0.12,5.45,1.55,10.79,4.16,15.56c1.49,2.88,3.22,5.64,5.15,8.24c1.28,1.81,2.22,1.78,3.91,0.38c0.32-0.27,0.62-0.56,0.91-0.87
	c1.66-1.75,3.29-3.5,4.98-5.25c2.39-2.51,4.84-5.01,7.23-7.55c2.39-2.54,4.98-5.32,7.48-7.95c1.2-1.28,2.47-2.47,3.68-3.73
	c2.57-2.71,5.07-5.5,7.64-8.18c2.56-2.68,5.16-5.19,7.66-7.81c2.5-2.62,5.59-5.84,8.41-8.74c2.83-2.91,5.22-5.36,7.84-8.04
	c3.41-3.53,6.73-7.15,10.11-10.67c2.09-2.15,4.25-4.22,6.35-6.35c2.91-2.91,5.62-5.82,8.47-8.74c2.86-2.91,4.99-4.87,7.43-7.37
	c5.48-5.53,10.94-11.09,16.4-16.69c0.35-0.35,0.68-0.71,0.99-1.1c1.34-1.7,1.45-2.07-0.2-3.26c-2.54-2-5.25-3.76-8.1-5.25
	c-5.05-2.36-10.56-3.58-16.13-3.58h-0.28c-1.86,0-3.72,0.12-5.57,0.35l-0.03-0.03L784.34,264.33L784.34,264.33L784.34,264.33z
	 M832.57,300.19L832.57,300.19L832.57,300.19l0.89-0.12h0.1c5.2,0,10.17,2.21,13.65,6.09c7.89,8.19,15.94,16.26,24.02,24.28
	c3.12,2.75,5.86,5.9,8.15,9.38c3.19,4.91,5.29,10.45,6.15,16.23c0.4,3.26,0.4,6.55,0,9.8c-0.71,6.55-2.99,12.83-6.62,18.33
	c-1.95,2.68-4.09,5.21-6.41,7.58c-2.92,3.09-5.83,6.03-8.74,8.92c-2.91,2.89-6.14,5.95-8.74,8.51c-2.59,2.56-5.13,5.15-7.69,7.75
	l-8.42,8.48c-3.11,3-6.03,6.11-8.95,9.03c-4.02,4.08-7.87,8.33-12.18,12.12c-5.67,5.14-12.8,8.39-20.4,9.3
	c-7.66,1.1-15.47-0.02-22.52-3.2c-2.84-1.48-5.54-3.21-8.07-5.16c-1.55-1.08-1.55-1.92-0.24-3.29c2.13-2.29,4.4-4.49,6.61-6.73
	c1.28-1.29,2.54-2.6,3.85-3.88c2.77-2.73,5.45-5.45,8.37-8.16c0.23-0.23,0.49-0.41,0.72-0.67c2.59-2.7,5.38-5.6,7.81-8.07
	c2.42-2.47,4.93-4.87,7.4-7.33l3.29-3.41c0.52-0.52,0.99-1.11,1.48-1.66c3.35-3.32,6.65-6.71,10-10.03c2.59-2.59,5.25-5.1,7.84-7.66
	c3.63-3.61,7.36-7.17,10.86-10.93c2.91-3.23,4.7-7.32,5.09-11.65c0.08-0.74,0.11-1.47,0.11-2.21c0-4.3-1.3-8.5-3.73-12.04
	c-0.23-0.59-0.64-1.11-1.17-1.46c-1.42-0.96-3.37-0.59-4.33,0.85c-4.78,4.63-9.53,9.29-14.25,13.93l-15.17,14.79
	c-3.69,3.58-7.43,7.14-11.07,10.72c-4.48,4.42-8.92,8.89-13.4,13.34c-2.24,2.21-4.55,4.37-6.82,6.56l-9.67,9.35
	c-1.79,1.62-3.95,2.77-6.29,3.35c-3.13,0.85-6.41,0.96-9.59,0.32c-3.37-0.56-6.46-2.21-8.8-4.7c-3.79-3.97-7.75-7.9-11.65-11.85
	c-1.61-1.66-1.57-1.86,0-3.4c8.14-8.16,16.29-16.33,24.45-24.53l18.47-18.48l9.94-10.02c2.8-2.73,5.69-5.51,8.39-8.16
	c2.71-2.65,5.39-5.48,7.9-8.01c2.5-2.54,5.04-5.02,7.58-7.55c3.06-3.06,6.21-6.23,9.12-9.15l8.92-8.74c0.31-0.28,0.6-0.57,0.87-0.87
	c3.13-3.7,7.72-5.83,12.56-5.84H832.57L832.57,300.19z"/>
<ellipse transform="matrix(0.7071 -0.7071 0.7071 0.7071 -51.0125 547.627)" class="st1" cx="635.54" cy="335.39" rx="137.18" ry="137.18"/>
<ellipse transform="matrix(0.7071 -0.7071 0.7071 0.7071 -50.0132 548.0892)" class="st2" cx="636.6" cy="334.42" rx="114.36" ry="114.36"/>
<path class="st4" d="M1195.08,1056.82c43.78-91.3,66.68-191.44,66.68-294.76V495.4c0-21.04-14.05-39.88-34.11-45.81L889.52,349.53
	c-8.77-2.6-18.11-2.6-26.89,0L524.42,449.59c-20.06,5.92-34.11,24.77-34.11,45.81v266.74c0,140.92,42.48,276.07,122.89,390.92
	c62.3,89.02,145.64,162.53,240.82,212.56c5.04,2.6,10.39,4.3,15.84,5.04C910.72,1214.23,1036.54,1092.31,1195.08,1056.82
	L1195.08,1056.82L1195.08,1056.82z"/>
<path class="st3" d="M630.7,247.6c-8.5,0.98-16.4,4.86-22.38,10.99c-4.48,4.44-8.74,9-13.28,13.49c-2.28,2.34-4.58,4.61-6.88,6.92
	c-2.3,2.3-4.84,4.76-7.23,7.17c-2.39,2.42-4.37,4.55-6.58,6.79c-3.46,3.45-6.92,6.91-10.36,10.39c-2.65,2.75-5.24,5.57-7.87,8.3
	c-1.54,1.63-3.21,3.15-4.67,4.87c-6.01,7.33-9.29,16.52-9.29,26c0,0.56,0,1.13,0.03,1.69c0.13,5.45,1.55,10.78,4.17,15.56
	c1.49,2.89,3.21,5.65,5.15,8.25c1.28,1.81,2.22,1.78,3.91,0.38c0.32-0.26,0.62-0.56,0.9-0.87c1.67-1.75,3.29-3.5,4.99-5.25
	c2.39-2.5,4.84-5.01,7.23-7.54c2.39-2.54,4.98-5.33,7.48-7.96c1.19-1.28,2.47-2.47,3.68-3.73c2.57-2.71,5.07-5.5,7.64-8.19
	c2.56-2.68,5.15-5.18,7.66-7.81c2.51-2.62,5.6-5.83,8.41-8.74c2.82-2.92,5.22-5.36,7.84-8.05c3.41-3.52,6.74-7.14,10.11-10.67
	c2.1-2.16,4.26-4.23,6.35-6.35c2.92-2.92,5.62-5.83,8.48-8.74c2.86-2.92,4.98-4.87,7.43-7.38c5.48-5.53,10.93-11.09,16.39-16.69
	c0.35-0.35,0.68-0.71,0.98-1.1c1.35-1.7,1.46-2.07-0.2-3.26c-2.53-1.99-5.24-3.75-8.1-5.25c-5.05-2.36-10.55-3.59-16.12-3.59h-0.28
	c-1.86,0-3.72,0.12-5.56,0.35l-0.03-0.03L630.7,247.6L630.7,247.6L630.7,247.6z M678.93,283.48L678.93,283.48l0.01-0.01l0.87-0.12
	h0.11c5.21,0.01,10.17,2.22,13.65,6.09c7.89,8.2,15.94,16.27,24.01,24.28c3.12,2.75,5.87,5.9,8.16,9.38
	c3.19,4.91,5.28,10.44,6.15,16.23c0.4,3.25,0.4,6.54,0,9.8c-0.71,6.55-2.99,12.83-6.62,18.32c-1.95,2.68-4.09,5.21-6.41,7.57
	c-2.92,3.09-5.83,6.03-8.74,8.92c-2.92,2.89-6.14,5.95-8.74,8.51c-2.59,2.56-5.13,5.16-7.7,7.75l-8.42,8.48
	c-3.12,3-6.04,6.12-8.95,9.04c-4.02,4.07-7.87,8.33-12.18,12.12c-5.67,5.15-12.8,8.39-20.4,9.29c-7.66,1.1-15.47-0.02-22.52-3.2
	c-2.83-1.49-5.53-3.21-8.07-5.15c-1.55-1.08-1.55-1.93-0.24-3.29c2.13-2.3,4.4-4.49,6.61-6.74c1.28-1.28,2.53-2.6,3.85-3.88
	c2.77-2.73,5.45-5.45,8.37-8.16c0.23-0.23,0.49-0.41,0.72-0.67c2.6-2.7,5.38-5.59,7.8-8.06c2.43-2.48,4.94-4.88,7.41-7.34l3.29-3.41
	c0.52-0.52,0.98-1.1,1.48-1.66c3.35-3.32,6.65-6.71,10-10.03c2.6-2.59,5.25-5.1,7.84-7.66c3.64-3.61,7.36-7.17,10.86-10.93
	c2.92-3.23,4.7-7.32,5.1-11.65c0.08-0.73,0.11-1.46,0.11-2.2c0-4.3-1.3-8.5-3.73-12.04c-0.23-0.6-0.64-1.11-1.17-1.47
	c-1.43-0.96-3.37-0.58-4.33,0.85c-4.79,4.64-9.53,9.3-14.25,13.94l-15.17,14.78c-3.7,3.58-7.43,7.14-11.07,10.72
	c-4.49,4.41-8.92,8.89-13.4,13.33c-2.24,2.22-4.55,4.37-6.82,6.56l-9.67,9.35c-1.79,1.62-3.95,2.78-6.3,3.35
	c-3.13,0.85-6.41,0.96-9.59,0.32c-3.37-0.56-6.46-2.2-8.8-4.69c-3.78-3.98-7.75-7.9-11.65-11.85c-1.6-1.66-1.57-1.86,0-3.4
	c8.15-8.17,16.29-16.34,24.46-24.54l18.47-18.47l9.94-10.03c2.8-2.73,5.68-5.51,8.39-8.16c2.71-2.65,5.39-5.48,7.9-8.01
	c2.5-2.54,5.04-5.02,7.58-7.55c3.06-3.07,6.21-6.24,9.12-9.16l8.92-8.74c0.3-0.28,0.59-0.57,0.87-0.88
	c3.13-3.7,7.72-5.83,12.56-5.83H678.93L678.93,283.48z"/>
<path class="st5" d="M1190.61,1025.38c46.7-93.73,71.15-197.12,71.15-303.85V454.79c0-21.04-14.05-39.88-34.11-45.81L889.52,308.92
	c-8.77-2.6-18.11-2.6-26.89,0L524.42,408.98c-20.06,5.92-34.11,24.77-34.11,45.81v266.74c0,140.92,42.48,276.07,122.89,390.92
	c62.3,89.02,145.64,162.52,240.82,212.56c5.68,3.01,11.86,4.71,18.11,5.2C914.7,1179.05,1036.94,1061.44,1190.61,1025.38
	L1190.61,1025.38L1190.61,1025.38z"/>
<polygon class="st6" points="1379.38,1371.07 1268.91,1478.36 1217.42,1428.25 1180.62,1464.07 1268.91,1549.84 1416.18,1406.89 "/>
<path class="st6" d="M1298.4,1176.17c-156.76,0-284.28,127.52-284.28,284.28c0,156.76,127.52,284.28,284.28,284.28
	c156.77,0,284.28-127.52,284.28-284.28C1582.68,1303.69,1455.16,1176.17,1298.4,1176.17L1298.4,1176.17z M1298.4,1671.63
	c-116.95,0-211.18-94.22-211.18-211.18c0-116.96,94.22-211.18,211.18-211.18c116.96,0,211.19,94.22,211.19,211.18
	C1509.58,1577.41,1415.36,1671.63,1298.4,1671.63z"/>
<path class="st6" d="M1507.95,173.92L946.71,8.23c-43.86-12.99-89.35-12.99-133.21,0l-561.25,165.7
	c-41.42,12.18-70.66,51.17-70.66,94.22v466.22c0,216.05,64.17,423.98,185.19,601.05c118.58,173,282.65,306.21,475.97,384.99
	c12.18,4.88,24.37,7.31,37.36,7.31c12.19,0,25.18-2.44,37.36-7.31c67.42-27.62,131.58-61.72,191.68-102.34
	c-16.25-21.12-28.43-44.68-37.36-69.86c-56.86,38.98-118.59,72.29-183.57,99.1c-4.87,1.62-10.55,1.62-14.62,0
	c-178.69-73.1-331.39-196.56-441.04-356.57c-112.91-163.25-172.19-355.76-172.19-555.56V268.96c0-8.94,5.68-16.25,13.81-18.68
	l561.25-165.7c14.62-4.06,29.24-6.5,44.67-6.5c14.63,0,30.05,2.44,44.68,6.5l561.25,165.7c8.12,2.44,13.81,10.56,13.81,18.68v466.21
	c0,179.51-47.92,353.32-139.7,506.02c26,7.31,50.36,17.87,72.29,32.49c95.84-163.26,146.2-347.63,146.2-539.32v-465.4
	C1578.62,225.1,1549.38,186.1,1507.95,173.92L1507.95,173.92L1507.95,173.92z"/>
<g>
	<g>
		<path class="st7" d="M842.73,960.49c3.81,1.79,7.73,3.34,11.75,4.64l1.7,0.57c3.82,1.17,7.71,2.08,11.65,2.75h1.8
			c8.19,1.27,16.52,1.27,24.71,0h1.89c3.88-0.64,7.7-1.52,11.47-2.65l2.17-0.66c3.8-1.22,7.54-2.68,11.17-4.36l1.6-0.76
			c3.68-1.79,7.25-3.78,10.7-5.97l0.85-0.46c3.63-2.36,7.13-4.88,10.51-7.58l1.99-1.61c3.28-2.72,6.43-5.66,9.46-8.81l2.08-2.08
			c3.13-3.22,6.25-6.64,9.46-10.23l1.33-1.71c2.84-3.47,5.59-7.1,8.24-10.89l0.95-1.32c-30.52-1.75-60.7-7.42-89.77-16.86
			c-4.01-1.27-8.3-1.27-12.31,0c-29.1,9.51-59.31,15.24-89.87,17.05C800.37,931.12,819.82,948.68,842.73,960.49L842.73,960.49z"/>
		<path class="st7" d="M641.01,799.51c0.35,4.01,0.96,8,1.8,11.93l0.47,2.18c0.89,3.83,2.03,7.59,3.41,11.27l0.76,1.79
			c2.98,7.69,7.13,14.88,12.31,21.31l1.23,1.52c2.47,3,5.12,5.85,7.96,8.52l1.7,1.61c3,2.65,6.16,5.12,9.47,7.38l1.52,1.04
			c3.23,2.2,6.58,4.22,10.03,6.07l1.24,0.66c3.69,1.89,7.58,3.6,11.45,5.21l2.65,1.04c3.91,1.46,7.95,2.74,12.12,3.88l3.13,0.76
			c4.26,1.14,8.62,2.08,13.16,2.84h2.27c4.16,0.69,8.43,1.23,12.79,1.6h2.08c-3.4-6.62-6.56-13.54-9.47-20.74
			c-2.22-4.73-0.19-10.37,4.54-12.6c2.75-1.3,5.96-1.18,8.62,0.29c1.94,1,3.48,2.64,4.36,4.63c2.52,6,5.2,11.78,8.05,17.33
			c3.75,7.37,11.55,11.77,19.79,11.18c16.64-1.13,33.17-3.57,49.43-7.29c2.73-0.74,4.34-3.54,3.61-6.27
			c-0.37-1.38-1.3-2.53-2.57-3.2c-14.02-6.35-27.94-13.35-41.57-21.31c-56.21-31.01-104.4-74.72-140.72-127.66l-0.57,1.23
			c-2.08,4.55-3.98,9-5.59,13.45v0.95c-1.71,4.55-3.13,9.46-4.36,13.63l-0.67,2.27c-1.13,4.36-2.05,8.69-2.74,12.97v2.27
			c-0.66,4.3-1.1,8.63-1.33,12.98c0,0,0,0.66,0,0.95c-0.23,4.1-0.23,8.21,0,12.31C640.91,798.18,640.91,798.65,641.01,799.51
			L641.01,799.51z"/>
		<path class="st7" d="M883.54,539.17h-1.33c-26.28,9.24-51.64,20.91-75.76,34.85c-54.62,30.22-101.23,73.09-135.89,125
			c-2.21,3.53-2.21,8.02,0,11.55c12.94,20.58,28.16,39.65,45.36,56.82c-2.68-20.75-4.01-41.67-3.98-62.6c0-5.87,0-11.74,0-17.52
			c0.1-2.21,0.97-4.33,2.46-5.96c3.64-3.76,9.63-3.88,13.4-0.25c1.89,1.82,2.94,4.34,2.9,6.97c0,5.62,0,11.27,0,16.95
			c-0.01,25.65,2.18,51.25,6.54,76.52c0.76,4.27,3.01,8.12,6.35,10.89c19.75,16.31,40.84,30.91,63.07,43.65
			c51.76,30.96,109.89,49.68,169.99,54.74c8.18,0.29,15.77-4.22,19.41-11.56c7.6-15.5,13.94-31.58,18.94-48.11
			c0.76-2.45-0.62-5.05-3.08-5.8c-1.45-0.44-3.02-0.16-4.22,0.78c-12.91,9.44-26.28,18.22-40.06,26.33
			c-4.26,2.46-8.62,4.73-12.98,7.01c-2.14,1.15-4.66,1.42-7.01,0.76c-4.96-1.66-7.63-7.03-5.95-11.99c0.75-2.23,2.29-4.09,4.34-5.24
			c4.17-2.21,8.3-4.51,12.4-6.92c22.42-12.94,43.69-27.8,63.55-44.41c2.92-2.42,4.92-5.76,5.68-9.47c4.3-25.57,6.4-51.45,6.25-77.37
			c0-6.88,0-13.72,0-20.54c-0.04-5.23,4.17-9.51,9.4-9.55c1.96-0.02,3.87,0.57,5.48,1.69c2.04,1.7,3.28,4.17,3.41,6.83
			c0,7,0.47,14.01,0.47,21.11c1.12,64.18-12.76,127.74-40.53,185.61h2.08c4.36-0.44,8.62-0.98,12.79-1.61h2.18
			c4.55-0.75,8.9-1.79,13.26-2.93l3.03-0.76c4.17-1.13,8.2-2.46,12.12-3.98l2.65-1.04c3.98-1.61,7.86-3.32,11.55-5.21l1.23-0.66
			c3.49-1.87,6.87-3.92,10.14-6.16l1.52-0.95c3.3-2.3,6.46-4.8,9.46-7.48l1.7-1.6c2.83-2.67,5.49-5.51,7.96-8.52l1.23-1.52
			c5.17-6.43,9.33-13.61,12.32-21.31l0.76-1.8c1.38-3.68,2.51-7.44,3.41-11.26l0.47-2.17c0.82-3.79,1.42-7.61,1.79-11.46
			c0-0.57,0-1.04,0-1.61c0.23-4.1,0.23-8.21,0-12.31c0,0,0-0.67,0-0.95c-0.1-4.52-0.45-9.05-1.03-13.54v-2.27
			c-0.7-4.3-1.61-8.62-2.75-12.97l-0.85-2.18c-1.23-4.45-2.65-8.99-4.36-13.54v-1.14c-1.61-4.45-3.5-8.9-5.59-13.35l-0.57-1.24
			c-6.33,9.84-13.19,19.33-20.55,28.42c-2.68,3.14-7.4,3.52-10.54,0.85c-1.54-1.31-2.48-3.19-2.62-5.21c0-2.27,0-4.36,0-6.34
			c-0.11-1.82,0.46-3.62,1.61-5.02c14.78-19.34,14.35-46.3-1.04-65.15c-32.66-39.8-72.45-73.16-117.34-98.39
			c-11.93-6.82-23.86-12.97-35.8-18.95c7.96-2.83,16.76-5.68,26.42-8.23c6.32,3.29,12.63,6.73,18.94,10.32
			c17.99,10.37,35.29,21.88,51.8,34.47c-5.83-22-13.96-43.33-24.24-63.64c-3.02-6.06-9.33-9.77-16.1-9.46
			c-32.51,2.04-64.58,8.64-95.27,19.6L883.54,539.17L883.54,539.17L883.54,539.17z M806.64,623.84L806.64,623.84l31.15,10.7
			c2.12,0.76,3.23,3.08,2.48,5.2c-0.2,0.58-0.53,1.1-0.97,1.53l-20.45,20.45c-1.58,1.6-4.16,1.6-5.76,0.02
			c-0.44-0.44-0.77-0.95-0.97-1.53l-10.89-31.16c-0.81-2.1,0.24-4.45,2.34-5.26C804.57,623.4,805.67,623.42,806.64,623.84
			L806.64,623.84L806.64,623.84z M771.32,708.59L771.32,708.59c-2.01-1-2.83-3.44-1.83-5.45c0.39-0.8,1.03-1.44,1.83-1.84
			l29.55-14.49c2.02-0.99,4.45-0.16,5.45,1.86c0.27,0.54,0.41,1.14,0.42,1.74v28.98c-0.03,2.24-1.88,4.04-4.12,4.01
			c-0.61-0.01-1.21-0.15-1.75-0.42L771.32,708.59L771.32,708.59L771.32,708.59z M837.61,775.45L837.61,775.45l-30.97,10.6
			c-2.15,0.67-4.43-0.51-5.12-2.65c-0.26-0.8-0.26-1.66,0-2.46l10.7-31.16c0.75-2.12,3.08-3.23,5.2-2.48
			c0.58,0.2,1.09,0.53,1.53,0.97l20.45,20.45c1.55,1.63,1.5,4.2-0.13,5.75C838.81,774.94,838.24,775.27,837.61,775.45L837.61,775.45
			L837.61,775.45z M900.58,786.53L900.58,786.53l-14.49,29.55c-1,2.01-3.44,2.83-5.45,1.83c-0.8-0.4-1.44-1.04-1.84-1.83
			l-14.48-29.55c-1-2.02-0.16-4.46,1.85-5.45c0.54-0.27,1.14-0.41,1.74-0.42h28.98c2.25,0.03,4.05,1.88,4.02,4.12
			c-0.02,0.61-0.16,1.2-0.42,1.75H900.58L900.58,786.53z M958.44,786.53L958.44,786.53l-31.15-10.7c-2.11-0.75-3.23-3.08-2.48-5.2
			c0.21-0.57,0.53-1.1,0.97-1.52l20.46-20.46c1.58-1.59,4.16-1.6,5.75-0.01c0.44,0.43,0.77,0.95,0.97,1.52l10.6,30.4
			c1,2.02,0.19,4.46-1.82,5.47c-1.12,0.55-2.44,0.57-3.58,0.03L958.44,786.53L958.44,786.53L958.44,786.53z M993.57,701.77
			L993.57,701.77c2.02,1,2.83,3.44,1.84,5.46c-0.4,0.8-1.04,1.43-1.84,1.83l-29.54,14.49c-2.02,1-4.46,0.16-5.45-1.85
			c-0.26-0.54-0.41-1.14-0.42-1.75v-29.44c0.03-2.25,1.88-4.05,4.13-4.02c0.6,0.01,1.19,0.15,1.74,0.42L993.57,701.77L993.57,701.77
			L993.57,701.77z M927.29,634.92L927.29,634.92l30.87-11.08c2.14-0.68,4.43,0.5,5.12,2.65c0.26,0.8,0.26,1.67,0,2.47l-10.7,31.16
			c-0.76,2.11-3.08,3.23-5.21,2.47c-0.57-0.2-1.09-0.53-1.52-0.96l-20.45-20.46c-1.52-1.66-1.39-4.24,0.26-5.75
			c0.44-0.4,0.97-0.7,1.54-0.88L927.29,634.92L927.29,634.92L927.29,634.92z M939.22,704.8L939.22,704.8
			c0,31.38-25.44,56.82-56.82,56.82c-31.37,0-56.82-25.44-56.82-56.82c0-31.38,25.45-56.81,56.82-56.81
			C913.78,647.99,939.22,673.42,939.22,704.8L939.22,704.8z M886,593.92L886,593.92l14.49,29.54c0.99,2.02,0.16,4.46-1.85,5.45
			c-0.55,0.27-1.14,0.41-1.75,0.42h-28.98c-2.24-0.03-4.04-1.88-4.01-4.12c0.01-0.61,0.15-1.2,0.42-1.75l14.48-29.54
			c1.06-1.99,3.52-2.75,5.5-1.7C885.03,592.6,885.62,593.2,886,593.92L886,593.92z"/>
		<path class="st7" d="M641.96,638.52v2.27c0.7,4.29,1.61,8.62,2.75,12.98l0.67,2.27c1.23,4.54,2.65,9.46,4.36,13.63v0.95
			c1.7,4.45,3.59,8.9,5.59,13.45l0.56,1.24c18.35-27.49,40.41-52.31,65.54-73.78c6.22-32.02,16.76-63.05,31.35-92.24
			c-30.19,1.21-59.15,12.26-82.49,31.44l-1.13,1.04c-2.98,2.78-5.76,5.74-8.33,8.9l-1.04,1.32c-5.18,6.46-9.33,13.68-12.31,21.4
			l-0.76,1.8c-1.38,3.68-2.52,7.44-3.41,11.26l-0.47,2.18c-0.82,3.78-1.42,7.61-1.8,11.46c0,0.47,0,1.04,0,1.52
			c-0.23,4.09-0.23,8.2,0,12.31c0,0,0,0.67,0,0.95C641.08,629.44,641.4,633.99,641.96,638.52L641.96,638.52z"/>
		<path class="st7" d="M797.17,557.17c13.64-7.87,27.46-14.96,41.48-21.22c2.46-1.58,3.17-4.87,1.58-7.33
			c-0.64-1-1.6-1.75-2.72-2.14c-7.89-1.76-15.69-3.25-23.39-4.45c-5.14-0.98-8.52-5.93-7.54-11.07c0.26-1.34,0.8-2.6,1.57-3.7
			c2.07-2.83,5.53-4.29,9-3.79c20.29,3.1,40.3,7.82,59.85,14.11c3.45,1.1,7.15,1.1,10.6,0c29.41-9.62,59.93-15.38,90.82-17.14
			l-0.56-0.76c-2.91-4.17-5.91-8.11-9-11.84l-0.85-1.13c-3.13-3.69-6.25-7.19-9.47-10.51l-1.8-1.8c-3.22-3.16-6.38-6.13-9.47-8.9
			l-1.79-1.42c-3.52-2.97-7.18-5.75-10.99-8.33h-0.67c-3.47-2.42-7.07-4.63-10.79-6.62l-1.52-0.77c-3.64-1.67-7.36-3.13-11.18-4.36
			l-2.17-0.66c-3.76-1.13-7.59-2.02-11.46-2.65h-1.9c-7.41-1.04-14.93-1.04-22.34,0h-2.65c-2.84,0-5.59,0.95-8.43,1.61h-1.52
			c-3.21,0.88-6.37,1.92-9.46,3.13l-2.27,0.95c-2.59,1.07-5.18,2.24-7.77,3.5l-1.99,0.95c-3.09,1.64-6.25,3.44-9.47,5.39l-1.42,0.95
			c-2.59,1.76-5.18,3.66-7.76,5.68l-1.8,1.42c-6.08,5.21-11.75,10.88-16.95,16.96l-1.33,1.52c-5.76,6.61-11.07,13.61-15.91,20.93
			l-0.67,0.95c-17.11,26.81-29.9,56.15-37.88,86.94C761.76,578.98,779.13,567.5,797.17,557.17L797.17,557.17z"/>
		<path class="st7" d="M1046.33,613.9c23.66,20.9,44.46,44.85,61.84,71.21c4.51-9.61,8.18-19.59,10.99-29.83v-1.42
			c1.2-4.6,2.18-9.16,2.93-13.63v-1.61c0.71-4.48,1.19-9.01,1.42-13.54c0.26-4.29,0.26-8.59,0-12.88c0,0,0-0.85,0-1.23
			c-0.35-4.04-0.95-8.05-1.79-12.02v-2.08c-0.89-3.83-2.03-7.59-3.41-11.27l-0.76-1.7c-2.98-7.69-7.14-14.88-12.32-21.31l-1.13-1.52
			c-2.5-3.01-5.19-5.86-8.05-8.52l-1.71-1.61c-3-2.68-6.16-5.18-9.46-7.48l-1.52-1.04c-3.3-2.24-6.71-4.29-10.23-6.16l-1.33-1.04
			c-3.69-1.9-7.58-3.6-11.65-5.21l-2.56-1.04c-3.92-1.46-7.99-2.78-12.22-3.98l-3.03-0.76c-4.35-1.13-8.71-2.08-13.25-2.93h-2.18
			c-4.23-0.69-8.58-1.26-13.06-1.71h-1.9c14.1,28.13,24.41,58,30.68,88.83C1043.27,610.57,1044.56,612.49,1046.33,613.9
			L1046.33,613.9z"/>
	</g>
</g>
</svg>
