<?xml version="1.0" encoding="utf-8"?>
<!-- Generator: Adobe Illustrator 26.0.3, SVG Export Plug-In . SVG Version: 6.00 Build 0)  -->
<svg version="1.1" id="Layer_1" xmlns="http://www.w3.org/2000/svg" xmlns:xlink="http://www.w3.org/1999/xlink" x="0px" y="0px"
	 viewBox="0 0 1869.52 1908.94" style="enable-background:new 0 0 1869.52 1908.94;" xml:space="preserve">
<style type="text/css">
	.st0{fill-rule:evenodd;clip-rule:evenodd;fill:#404853;}
	.st1{fill-rule:evenodd;clip-rule:evenodd;fill:#555F6A;}
	.st2{fill-rule:evenodd;clip-rule:evenodd;fill:#2D2F38;}
	.st3{fill-rule:evenodd;clip-rule:evenodd;fill:#C9292C;}
	.st4{fill-rule:evenodd;clip-rule:evenodd;fill:#606B78;}
	.st5{fill-rule:evenodd;clip-rule:evenodd;fill:#FFFFFF;}
</style>
<path class="st0" d="M1505.57,54.44c0-28.52-23.14-51.67-51.67-51.67c-28.52,0-51.67,23.14-51.67,51.67
	c0,28.52,23.15,51.67,51.67,51.67C1482.42,106.1,1505.57,82.95,1505.57,54.44L1505.57,54.44z M193.23,305.88
	c-51.39,0-93,41.61-93,93c0,51.39,41.61,93,93,93c51.4,0,93-41.61,93-93C286.23,347.49,244.63,305.88,193.23,305.88L193.23,305.88z
	 M72.68,1780.1c-34.24,0-62,27.76-62,62c0,34.24,27.76,62,62,62c34.25,0,62-27.77,62-62C134.68,1807.86,106.92,1780.1,72.68,1780.1
	L72.68,1780.1z M1484.91,1442.54c-7.58,0-13.78,6.2-13.78,13.78c0,7.58,6.2,13.78,13.78,13.78c7.58,0,13.78-6.2,13.78-13.78
	C1498.68,1448.75,1492.48,1442.54,1484.91,1442.54z"/>
<path class="st1" d="M833.91,92.33c-424.77,0-768.11,343.34-768.11,768.11c0,424.77,343.34,768.11,768.11,768.11
	s768.11-343.34,768.11-768.11C1602.01,435.67,1258.68,92.33,833.91,92.33L833.91,92.33z M602.02,196.97
	C561.51,253.8,526.93,313.8,498.07,376.7H323.71C399.77,296.24,494.9,234.02,602.02,196.97L602.02,196.97L602.02,196.97z
	 M268.74,442.01h201.71c-47.47,122.21-73.51,252.62-77.3,385.78H132.06C138.68,683.6,188.34,550.71,268.74,442.01L268.74,442.01
	L268.74,442.01L268.74,442.01z M268.74,1278.86c-80.39-108.7-130.06-241.59-136.67-385.78h261.09
	c3.79,133.23,30.8,263.57,78.53,385.78H268.74L268.74,1278.86L268.74,1278.86L268.74,1278.86z M323.71,1344.24h175.94
	c29.21,62.83,63.8,123.45,103.68,180.35C495.87,1487.46,400.04,1424.98,323.71,1344.24L323.71,1344.24z M801.25,1562.55
	c-32.66-1.58-65.03-5.38-96.44-11.03c-52.15-64.41-96.79-133.85-132.89-207.01h229.34V1562.55L801.25,1562.55L801.25,1562.55z
	 M801.25,1278.86H542.02c-50.57-121.86-79.5-252.27-83.57-385.78h342.73v385.78H801.25L801.25,1278.86L801.25,1278.86z
	 M801.25,827.78h-342.8c4.06-133.24,32.66-263.92,82.94-385.78h259.79v385.78H801.25L801.25,827.78z M801.53,376.63H571.3
	c36.44-73.85,81.08-143.29,133.51-207.01c31.41-5.99,63.79-9.44,96.79-11.02v218.03H801.53L801.53,376.63L801.53,376.63
	L801.53,376.63z M1399.07,442.01c80.39,108.71,130.4,241.25,136.67,385.78h-261.09c-3.79-133.23-30.79-263.57-78.53-385.78H1399.07
	L1399.07,442.01L1399.07,442.01z M1344.09,376.63h-175.94c-29.21-62.83-63.79-123.45-103.95-180.35
	C1171.94,233.41,1267.77,295.89,1344.09,376.63L1344.09,376.63z M866.55,158.6c32.66,1.58,65.03,5.37,96.45,11.02
	c52.15,64.41,96.79,133.85,132.89,207.01H866.55V158.6L866.55,158.6L866.55,158.6z M866.55,442.01h259.16
	c50.56,121.59,79.5,252.27,83.57,385.78H866.55L866.55,442.01L866.55,442.01L866.55,442.01z M866.55,893.09h342.8
	c-4.06,133.23-32.66,263.92-82.94,385.78H866.63V893.09H866.55L866.55,893.09z M866.28,1562.27v-218.03h230.3
	c-36.44,73.85-81.08,143.29-133.51,207.01C931.59,1557.25,899.28,1560.69,866.28,1562.27L866.28,1562.27L866.28,1562.27z
	 M1064.2,1524.59c39.89-56.83,74.47-117.53,103.34-180.35h176.84C1267.77,1424.98,1171.94,1487.46,1064.2,1524.59L1064.2,1524.59
	L1064.2,1524.59z M1195.16,1278.86c47.11-122.2,73.85-252.62,79.15-385.78h261.71c-6.61,144.19-56.21,277.07-136.67,385.78H1195.16
	L1195.16,1278.86z"/>
<ellipse transform="matrix(0.7071 -0.7071 0.7071 0.7071 -364.1703 841.6754)" class="st1" cx="833.91" cy="860.43" rx="465" ry="465"/>
<ellipse transform="matrix(0.7071 -0.7071 0.7071 0.7071 -364.1703 841.6754)" class="st2" cx="833.91" cy="860.43" rx="409.89" ry="409.89"/>
<path class="st3" d="M763.05,679.58c103.63-42.93,222.61,6.34,265.53,109.98c42.92,103.62-6.36,222.61-109.98,265.53
	c-103.63,42.92-222.61-6.36-265.53-109.99C610.14,841.48,659.43,722.49,763.05,679.58L763.05,679.58z"/>
<path class="st4" d="M1615.8,154.32c-133.16,0-241.12,107.95-241.12,241.11c0,50.15,15.3,96.72,41.48,135.3
	c0.48,0.69,1.45,2.14,1.45,2.14s-30.45,89.48-25.08,94.79c5.38,5.3,100.44-24.67,100.44-24.67s1.93,1.18,2.9,1.72
	c35.34,20.26,76.26,31.9,119.94,31.9c133.16,0,241.11-107.95,241.11-241.11C1856.91,262.28,1748.95,154.32,1615.8,154.32z"/>
<path class="st2" d="M1615.8,209.43c-102.72,0-186,83.29-186,186c0,38.65,11.78,74.61,32.03,104.37c0.34,0.55,1.1,1.65,1.1,1.65
	s-23.5,68.96-19.36,73.1c4.13,4.13,77.5-19.01,77.5-19.01s1.52,0.89,2.27,1.31c27.21,15.64,58.76,24.59,92.45,24.59
	c102.71,0,186-83.28,186-186C1801.8,292.72,1718.51,209.43,1615.8,209.43z"/>
<path class="st4" d="M216.11,1458.32c-0.28-0.49-0.82-1.38-0.82-1.38s14.12-44.85,11.64-47.32c-2.48-2.48-44.71,11.85-44.71,11.85
	s-0.69-0.49-1.03-0.69c-18.19-12.33-40.16-19.57-63.79-19.57c-62.76,0-113.67,50.91-113.67,113.67
	c0,62.75,50.91,113.66,113.67,113.66c62.75,0,113.73-50.91,113.73-113.66C231.12,1494.28,225.69,1474.99,216.11,1458.32
	L216.11,1458.32z"/>
<g>
	<g>
		<path class="st5" d="M814.5,1030.82c2.42,1.14,4.9,2.11,7.43,2.94l1.08,0.36c2.42,0.74,4.88,1.32,7.36,1.73h1.14
			c5.18,0.8,10.45,0.8,15.62,0h1.2c2.45-0.41,4.88-0.96,7.25-1.68l1.37-0.41c2.41-0.78,4.77-1.7,7.07-2.76l1.01-0.48
			c2.33-1.13,4.58-2.39,6.77-3.77l0.54-0.3c2.29-1.49,4.51-3.08,6.65-4.78l1.26-1.02c2.07-1.72,4.07-3.58,5.99-5.57l1.32-1.32
			c1.98-2.03,3.95-4.19,5.98-6.47l0.84-1.08c1.8-2.2,3.54-4.49,5.21-6.89l0.6-0.84c-19.31-1.1-38.39-4.69-56.78-10.66
			c-2.53-0.81-5.25-0.81-7.78,0c-18.41,6.01-37.52,9.63-56.84,10.78C787.71,1012.25,800.01,1023.35,814.5,1030.82L814.5,1030.82z"/>
		<path class="st5" d="M686.93,929c0.22,2.54,0.61,5.06,1.13,7.55l0.31,1.37c0.56,2.42,1.28,4.8,2.15,7.13l0.48,1.13
			c1.89,4.87,4.51,9.41,7.79,13.48l0.78,0.96c1.56,1.9,3.24,3.7,5.03,5.38l1.07,1.02c1.9,1.68,3.9,3.24,5.99,4.67l0.96,0.66
			c2.05,1.39,4.16,2.67,6.34,3.83l0.78,0.42c2.34,1.2,4.79,2.28,7.25,3.29l1.68,0.66c2.47,0.92,5.03,1.74,7.66,2.46l1.98,0.47
			c2.69,0.72,5.45,1.32,8.33,1.8h1.43c2.64,0.44,5.33,0.78,8.09,1.02h1.31c-2.15-4.19-4.16-8.56-5.99-13.12
			c-1.4-2.99-0.12-6.56,2.87-7.97c1.75-0.82,3.77-0.75,5.46,0.19c1.23,0.63,2.2,1.67,2.75,2.93c1.6,3.79,3.29,7.45,5.09,10.97
			c2.37,4.66,7.3,7.44,12.52,7.07c10.52-0.72,20.98-2.26,31.26-4.61c1.72-0.46,2.75-2.24,2.29-3.96c-0.24-0.88-0.82-1.61-1.63-2.03
			c-8.86-4.01-17.67-8.45-26.3-13.47c-35.55-19.62-66.02-47.26-89-80.74l-0.36,0.77c-1.32,2.88-2.52,5.69-3.53,8.51v0.59
			c-1.08,2.87-1.98,5.99-2.76,8.62l-0.42,1.44c-0.72,2.75-1.3,5.49-1.73,8.2v1.44c-0.42,2.72-0.71,5.45-0.84,8.2c0,0,0,0.42,0,0.59
			c-0.14,2.6-0.14,5.2,0,7.79C686.87,928.17,686.87,928.47,686.93,929L686.93,929z"/>
		<path class="st5" d="M840.31,764.36h-0.84c-16.61,5.84-32.66,13.22-47.91,22.04c-34.54,19.11-64.02,46.22-85.94,79.06
			c-1.4,2.24-1.4,5.07,0,7.3c8.18,13.01,17.8,25.07,28.69,35.93c-1.7-13.12-2.53-26.36-2.52-39.59c0-3.71,0-7.43,0-11.08
			c0.06-1.39,0.62-2.73,1.56-3.77c2.29-2.38,6.09-2.44,8.47-0.15c1.2,1.15,1.86,2.75,1.83,4.4c0,3.55,0,7.13,0,10.72
			c-0.01,16.21,1.38,32.41,4.13,48.39c0.48,2.7,1.9,5.14,4.02,6.89c12.49,10.32,25.83,19.56,39.88,27.62
			c32.73,19.58,69.5,31.42,107.51,34.62c5.17,0.19,9.98-2.67,12.28-7.31c4.81-9.8,8.81-19.97,11.98-30.42
			c0.47-1.55-0.4-3.19-1.95-3.67c-0.92-0.28-1.91-0.1-2.67,0.49c-8.16,5.96-16.62,11.52-25.33,16.64c-2.7,1.56-5.45,3-8.2,4.43
			c-1.36,0.73-2.96,0.9-4.44,0.48c-3.14-1.05-4.81-4.45-3.76-7.58c0.47-1.41,1.45-2.59,2.75-3.32c2.63-1.4,5.25-2.86,7.84-4.37
			c14.18-8.18,27.63-17.58,40.19-28.09c1.84-1.54,3.11-3.65,3.6-5.99c2.72-16.17,4.04-32.54,3.95-48.93c0-4.35,0-8.69,0-13
			c-0.03-3.31,2.62-6.01,5.93-6.04c1.24-0.02,2.45,0.36,3.47,1.07c1.29,1.07,2.08,2.64,2.16,4.31c0,4.43,0.3,8.87,0.3,13.36
			c0.71,40.59-8.07,80.79-25.64,117.39h1.31c2.76-0.28,5.45-0.62,8.09-1.02h1.37c2.88-0.48,5.63-1.13,8.38-1.86l1.92-0.47
			c2.63-0.72,5.19-1.56,7.66-2.52l1.68-0.66c2.51-1.01,4.96-2.09,7.3-3.29l0.78-0.42c2.21-1.18,4.34-2.48,6.4-3.89l0.96-0.6
			c2.09-1.45,4.09-3.03,5.99-4.73l1.07-1.01c1.79-1.69,3.47-3.49,5.03-5.39l0.78-0.96c3.27-4.06,5.89-8.61,7.79-13.48l0.48-1.13
			c0.87-2.33,1.59-4.71,2.16-7.13l0.29-1.37c0.53-2.39,0.91-4.82,1.14-7.25c0-0.36,0-0.65,0-1.01c0.14-2.6,0.14-5.2,0-7.79
			c0,0,0-0.41,0-0.59c-0.07-2.86-0.28-5.72-0.66-8.56v-1.44c-0.44-2.72-1.01-5.45-1.73-8.2l-0.54-1.38
			c-0.78-2.81-1.68-5.69-2.75-8.56v-0.71c-1.02-2.82-2.22-5.63-3.54-8.45l-0.36-0.77c-4,6.22-8.34,12.22-13,17.96
			c-1.69,1.99-4.67,2.24-6.67,0.54c-0.98-0.82-1.57-2.02-1.66-3.29c0-1.44,0-2.75,0-4.01c-0.07-1.15,0.29-2.29,1.02-3.17
			c9.35-12.23,9.08-29.28-0.66-41.2c-20.65-25.17-45.82-46.28-74.21-62.24c-7.54-4.3-15.1-8.2-22.64-11.98
			c5.03-1.79,10.6-3.59,16.71-5.21c4,2.07,7.99,4.25,11.98,6.53c11.38,6.56,22.32,13.84,32.77,21.8
			c-3.69-13.92-8.84-27.41-15.34-40.25c-1.91-3.83-5.9-6.17-10.18-5.99c-20.57,1.29-40.85,5.47-60.26,12.4L840.31,764.36
			L840.31,764.36L840.31,764.36z M791.68,817.91L791.68,817.91l19.7,6.76c1.34,0.48,2.05,1.95,1.57,3.29
			c-0.13,0.36-0.33,0.69-0.61,0.96l-12.94,12.94c-1,1.01-2.63,1.01-3.64,0.01c-0.28-0.27-0.49-0.6-0.62-0.96l-6.89-19.71
			c-0.51-1.33,0.15-2.81,1.48-3.32C790.37,817.63,791.07,817.64,791.68,817.91L791.68,817.91L791.68,817.91z M769.34,871.51
			L769.34,871.51c-1.27-0.64-1.79-2.17-1.16-3.45c0.25-0.5,0.65-0.91,1.16-1.16l18.69-9.16c1.27-0.63,2.82-0.1,3.45,1.17
			c0.17,0.34,0.26,0.72,0.26,1.1v18.32c-0.02,1.42-1.18,2.57-2.61,2.54c-0.38-0.01-0.76-0.1-1.1-0.26L769.34,871.51L769.34,871.51z
			 M811.27,913.79L811.27,913.79l-19.59,6.71c-1.36,0.44-2.8-0.32-3.23-1.67c-0.16-0.51-0.16-1.05,0-1.56l6.76-19.7
			c0.47-1.34,1.95-2.04,3.28-1.57c0.37,0.13,0.7,0.34,0.97,0.61l12.94,12.94c0.98,1.03,0.95,2.65-0.08,3.64
			C812.03,913.47,811.66,913.67,811.27,913.79L811.27,913.79L811.27,913.79z M851.1,920.8L851.1,920.8l-9.17,18.69
			c-0.64,1.27-2.18,1.79-3.45,1.16c-0.5-0.25-0.92-0.65-1.16-1.16l-9.16-18.69c-0.63-1.28-0.1-2.82,1.18-3.44
			c0.34-0.17,0.72-0.26,1.1-0.27h18.32c1.42,0.02,2.57,1.18,2.54,2.61c-0.01,0.38-0.1,0.77-0.26,1.1H851.1L851.1,920.8z
			 M887.69,920.8L887.69,920.8l-19.7-6.76c-1.34-0.47-2.05-1.95-1.58-3.29c0.14-0.37,0.34-0.7,0.62-0.97l12.94-12.94
			c1-1,2.63-1.01,3.64-0.01c0.28,0.27,0.49,0.6,0.62,0.97l6.71,19.22c0.64,1.27,0.12,2.82-1.16,3.46c-0.71,0.35-1.54,0.36-2.26,0.02
			L887.69,920.8L887.69,920.8L887.69,920.8z M909.91,867.2L909.91,867.2c1.27,0.64,1.79,2.18,1.16,3.46
			c-0.25,0.49-0.66,0.91-1.16,1.16l-18.69,9.16c-1.28,0.63-2.82,0.1-3.45-1.18c-0.16-0.34-0.26-0.72-0.26-1.1v-18.62
			c0.02-1.42,1.18-2.56,2.61-2.54c0.38,0.01,0.76,0.1,1.1,0.27L909.91,867.2L909.91,867.2L909.91,867.2z M867.99,824.91
			L867.99,824.91l19.52-7.01c1.36-0.43,2.8,0.32,3.23,1.67c0.16,0.51,0.16,1.06,0,1.56l-6.76,19.71c-0.47,1.34-1.95,2.04-3.29,1.57
			c-0.36-0.13-0.69-0.34-0.96-0.62l-12.94-12.94c-0.96-1.05-0.88-2.68,0.17-3.64c0.28-0.25,0.61-0.44,0.97-0.55L867.99,824.91
			L867.99,824.91L867.99,824.91z M875.53,869.12L875.53,869.12c0,19.85-16.09,35.93-35.94,35.93c-19.84,0-35.93-16.09-35.93-35.93
			c0-19.85,16.1-35.93,35.93-35.93C859.44,833.18,875.53,849.27,875.53,869.12L875.53,869.12z M841.87,798.98L841.87,798.98
			l9.16,18.68c0.62,1.28,0.1,2.82-1.17,3.45c-0.34,0.16-0.73,0.26-1.11,0.26h-18.32c-1.42-0.02-2.57-1.18-2.54-2.61
			c0.01-0.38,0.1-0.76,0.26-1.1l9.16-18.68c0.67-1.26,2.22-1.74,3.48-1.07C841.26,798.15,841.63,798.53,841.87,798.98z"/>
		<path class="st5" d="M687.53,827.19v1.44c0.44,2.71,1.01,5.45,1.73,8.2l0.42,1.43c0.78,2.88,1.68,5.99,2.75,8.62v0.6
			c1.08,2.81,2.28,5.63,3.54,8.51l0.36,0.78c11.6-17.38,25.55-33.08,41.45-46.66c3.93-20.26,10.6-39.88,19.82-58.34
			c-19.09,0.77-37.41,7.75-52.17,19.88l-0.71,0.66c-1.88,1.75-3.65,3.64-5.27,5.63l-0.66,0.83c-3.28,4.09-5.9,8.65-7.79,13.54
			l-0.48,1.14c-0.87,2.33-1.59,4.7-2.15,7.12l-0.31,1.38c-0.52,2.39-0.9,4.81-1.13,7.25c0,0.3,0,0.66,0,0.96
			c-0.14,2.6-0.14,5.19,0,7.79c0,0,0,0.42,0,0.6C686.97,821.45,687.18,824.33,687.53,827.19L687.53,827.19z"/>
		<path class="st5" d="M785.69,775.74c8.62-4.97,17.37-9.46,26.23-13.42c1.56-1,2.01-3.08,1-4.63c-0.41-0.63-1.01-1.11-1.72-1.35
			c-4.99-1.12-9.92-2.06-14.79-2.82c-3.25-0.62-5.39-3.75-4.77-7c0.16-0.84,0.5-1.64,1-2.35c1.31-1.79,3.5-2.71,5.68-2.39
			c12.84,1.96,25.5,4.94,37.86,8.92c2.17,0.7,4.52,0.7,6.7,0c18.6-6.08,37.9-9.73,57.44-10.84l-0.36-0.48
			c-1.84-2.64-3.73-5.14-5.69-7.49l-0.53-0.71c-1.98-2.34-3.96-4.55-5.99-6.65l-1.14-1.14c-2.03-2-4.04-3.87-5.99-5.63l-1.14-0.9
			c-2.22-1.88-4.54-3.64-6.94-5.27h-0.42c-2.2-1.52-4.48-2.93-6.83-4.19l-0.96-0.48c-2.29-1.06-4.66-1.98-7.07-2.75l-1.37-0.42
			c-2.38-0.71-4.8-1.27-7.25-1.68h-1.19c-4.7-0.66-9.45-0.66-14.14,0h-1.68c-1.79,0-3.53,0.6-5.32,1.02h-0.96
			c-2.03,0.56-4.03,1.21-5.99,1.98l-1.43,0.6c-1.64,0.67-3.28,1.42-4.91,2.21l-1.26,0.6c-1.96,1.03-3.95,2.17-5.99,3.41l-0.9,0.6
			c-1.64,1.12-3.28,2.32-4.91,3.59l-1.14,0.9c-3.84,3.29-7.43,6.88-10.72,10.72l-0.84,0.96c-3.64,4.19-7,8.61-10.06,13.24l-0.43,0.6
			c-10.82,16.96-18.9,35.51-23.96,54.98C763.29,789.54,774.27,782.27,785.69,775.74L785.69,775.74z"/>
		<path class="st5" d="M943.27,811.61c14.97,13.22,28.12,28.37,39.11,45.05c2.84-6.08,5.17-12.39,6.94-18.87v-0.9
			c0.76-2.91,1.38-5.79,1.85-8.62v-1.02c0.46-2.83,0.76-5.7,0.9-8.56c0.16-2.71,0.16-5.43,0-8.15c0,0,0-0.54,0-0.78
			c-0.22-2.56-0.6-5.1-1.13-7.6v-1.32c-0.57-2.42-1.29-4.8-2.16-7.12l-0.48-1.08c-1.89-4.86-4.51-9.41-7.79-13.48l-0.72-0.95
			c-1.57-1.91-3.28-3.7-5.09-5.39l-1.08-1.02c-1.9-1.7-3.89-3.28-5.99-4.73l-0.96-0.66c-2.08-1.41-4.24-2.71-6.46-3.89l-0.84-0.66
			c-2.34-1.19-4.79-2.27-7.37-3.29l-1.62-0.66c-2.47-0.92-5.05-1.75-7.72-2.51l-1.92-0.48c-2.75-0.72-5.5-1.32-8.38-1.85h-1.37
			c-2.68-0.44-5.43-0.8-8.27-1.08h-1.19c8.92,17.79,15.44,36.67,19.4,56.17C941.34,809.51,942.15,810.73,943.27,811.61
			L943.27,811.61z"/>
	</g>
</g>
</svg>
