<?xml version="1.0" encoding="UTF-8"?>
<!DOCTYPE svg PUBLIC "-//W3C//DTD SVG 1.1//EN" "http://www.w3.org/Graphics/SVG/1.1/DTD/svg11.dtd">
<!-- Creator: CorelDRAW 2021 (64-Bit) -->
<svg xmlns="http://www.w3.org/2000/svg" xml:space="preserve" width="2480px" height="3508px" version="1.1" style="shape-rendering:geometricPrecision; text-rendering:geometricPrecision; image-rendering:optimizeQuality; fill-rule:evenodd; clip-rule:evenodd"
viewBox="0 0 2480 3507.43"
 xmlns:xlink="http://www.w3.org/1999/xlink"
 xmlns:xodm="http://www.corel.com/coreldraw/odm/2003">
 <defs>
  <style type="text/css">
   <![CDATA[
    .str0 {stroke:#444D59;stroke-width:17.1;stroke-linecap:round;stroke-linejoin:round;stroke-miterlimit:22.9256;stroke-dasharray:34.210000 51.310000;stroke-opacity:0.380392}
    .str1 {stroke:#D4A527;stroke-width:2.36;stroke-linecap:round;stroke-linejoin:round;stroke-miterlimit:22.9256}
    .fil7 {fill:none;fill-rule:nonzero}
    .fil5 {fill:#AD733B}
    .fil14 {fill:#D4A527}
    .fil6 {fill:#23242C;fill-rule:nonzero}
    .fil0 {fill:#404853;fill-rule:nonzero}
    .fil10 {fill:#48525E;fill-rule:nonzero}
    .fil12 {fill:#4B5460;fill-rule:nonzero}
    .fil11 {fill:#56616F;fill-rule:nonzero}
    .fil2 {fill:#606B78;fill-rule:nonzero}
    .fil9 {fill:#697584;fill-rule:nonzero}
    .fil1 {fill:#778391;fill-rule:nonzero}
    .fil15 {fill:#AD733B;fill-rule:nonzero}
    .fil4 {fill:#D4A527;fill-rule:nonzero}
    .fil3 {fill:#E4B22D;fill-rule:nonzero}
    .fil13 {fill:#3A414C;fill-rule:nonzero;fill-opacity:0.349020}
    .fil8 {fill:black;fill-rule:nonzero;fill-opacity:0.388235}
   ]]>
  </style>
 </defs>
 <g id="Layer_x0020_1">
  <metadata id="CorelCorpID_0Corel-Layer"/>
  <path class="fil0" d="M547.31 2942.4c0,-35.06 29.08,-64.13 64.14,-64.13 35.06,0 64.14,29.07 64.14,64.13 0,35.07 -29.08,64.14 -64.14,64.14l0 0c-35.06,0 -64.14,-29.07 -64.14,-64.14zm1599.17 -427.58c0,-64.14 51.31,-115.45 115.45,-115.45 64.14,0 115.45,51.31 115.45,115.45 0,64.14 -51.31,115.45 -115.45,115.45l0 0c-64.14,0 -115.45,-51.31 -115.45,-115.45zm-1847.17 -1569.24c0,-9.41 7.7,-17.11 17.1,-17.11 9.41,0 17.11,7.7 17.11,17.11 0,9.4 -7.7,17.1 -17.11,17.1 -9.4,0 -17.1,-7.7 -17.1,-17.1zm1949.79 -222.35c0,-42.76 34.21,-76.96 76.97,-76.96 42.76,0 76.96,34.2 76.96,76.96 0,42.76 -34.2,76.97 -76.96,76.97 -42.76,0 -76.97,-34.21 -76.97,-76.97z"/>
  <path class="fil1" d="M2069.52 1467.23l0 -102.62c0,-76.96 -41.91,-128.28 -119.73,-128.28l-1009.1 0.01c-73.55,0 -145.38,33.35 -145.38,119.72l0 111.17 1274.21 0z"/>
  <path class="fil2" d="M2069.52 1492.89l0 -102.62c0,-76.97 -41.91,-128.28 -119.73,-128.28l-1009.1 0c-73.55,0 -111.17,33.35 -111.17,119.72l0 111.18 1240 0z"/>
  <circle class="fil3" cx="1308.41" cy="1390.27" r="230.9"/>
  <circle class="fil4" cx="1306.7" cy="1388.56" r="192.41"/>
  <path class="fil5" d="M1306.5 1254.46c-14.53,1.68 -28.04,8.31 -38.26,18.78 -7.67,7.59 -14.94,15.39 -22.71,23.06 -3.89,3.99 -7.82,7.88 -11.76,11.82 -3.93,3.94 -8.27,8.12 -12.35,12.26 -4.09,4.13 -7.48,7.76 -11.26,11.6 -5.91,5.91 -11.82,11.82 -17.72,17.79 -4.54,4.68 -8.97,9.52 -13.45,14.19 -2.64,2.79 -5.48,5.38 -7.97,8.32 -10.28,12.54 -15.89,28.24 -15.89,44.45 0,0.95 0,1.93 0.06,2.88 0.21,9.31 2.65,18.43 7.12,26.59 2.54,4.94 5.49,9.65 8.81,14.1 2.19,3.09 3.79,3.04 6.67,0.65 0.56,-0.46 1.07,-0.95 1.55,-1.49 2.84,-3 5.63,-5.98 8.52,-8.97 4.09,-4.29 8.27,-8.57 12.36,-12.9 4.08,-4.34 8.51,-9.12 12.8,-13.6 2.04,-2.19 4.22,-4.22 6.28,-6.38 4.38,-4.63 8.67,-9.41 13.05,-13.99 4.38,-4.59 8.82,-8.87 13.1,-13.35 4.29,-4.48 9.56,-9.97 14.39,-14.95 4.83,-4.98 8.92,-9.16 13.4,-13.75 5.83,-6.03 11.51,-12.21 17.29,-18.24 3.58,-3.68 7.27,-7.22 10.86,-10.86 4.98,-4.98 9.61,-9.95 14.5,-14.93 4.88,-4.98 8.51,-8.33 12.7,-12.61 9.35,-9.45 18.7,-18.96 28.02,-28.53 0.61,-0.59 1.17,-1.22 1.69,-1.89 2.3,-2.89 2.49,-3.53 -0.34,-5.58 -4.33,-3.41 -8.97,-6.41 -13.85,-8.97 -8.63,-4.03 -18.05,-6.13 -27.57,-6.12l-0.48 0c-3.18,0 -6.36,0.2 -9.52,0.59l-0.05 -0.05 0.01 0.08zm82.45 61.32l0 0 -0.6 0c-8.28,0 -16.13,3.65 -21.47,9.97 -0.48,0.52 -0.97,1.02 -1.5,1.49l-15.24 14.95c-4.98,4.98 -10.36,10.41 -15.59,15.64 -4.33,4.33 -8.67,8.57 -12.95,12.91 -4.28,4.33 -8.87,9.16 -13.5,13.69 -4.64,4.54 -9.56,9.29 -14.35,13.95l-16.99 17.14 -31.58 31.58c-13.95,14.01 -27.88,27.99 -41.8,41.95 -2.68,2.64 -2.73,2.99 0,5.82 6.68,6.75 13.45,13.45 19.93,20.26 4,4.24 9.29,7.06 15.04,8.01 5.44,1.1 11.05,0.91 16.39,-0.55 4.01,-0.99 7.71,-2.95 10.76,-5.73l16.55 -15.97c3.88,-3.73 7.82,-7.42 11.65,-11.21 7.67,-7.59 15.24,-15.24 22.91,-22.78 6.23,-6.13 12.61,-12.21 18.93,-18.34l25.94 -25.27c8.06,-7.93 16.18,-15.89 24.35,-23.82 1.65,-2.44 4.96,-3.09 7.4,-1.45 0.91,0.61 1.61,1.49 2,2.51 4.16,6.06 6.38,13.24 6.38,20.59 -0.01,1.26 -0.07,2.51 -0.2,3.76 -0.67,7.41 -3.73,14.41 -8.71,19.93 -5.98,6.43 -12.35,12.51 -18.57,18.68 -4.43,4.38 -8.96,8.67 -13.4,13.1 -5.73,5.68 -11.36,11.46 -17.09,17.14 -0.84,0.95 -1.63,1.94 -2.53,2.84l-5.63 5.83c-4.22,4.22 -8.51,8.32 -12.66,12.55 -4.14,4.23 -8.9,9.17 -13.33,13.79 -0.4,0.45 -0.84,0.74 -1.24,1.14 -4.99,4.63 -9.57,9.28 -14.31,13.95 -2.23,2.19 -4.38,4.43 -6.57,6.62 -3.78,3.84 -7.67,7.6 -11.31,11.51 -2.24,2.34 -2.24,3.78 0.41,5.63 4.33,3.33 8.95,6.28 13.79,8.81 12.06,5.45 25.41,7.35 38.51,5.48 12.99,-1.54 25.18,-7.1 34.87,-15.89 7.37,-6.47 13.96,-13.75 20.82,-20.72 4.98,-4.99 9.97,-10.31 15.3,-15.44l14.39 -14.5c4.39,-4.43 8.72,-8.87 13.16,-13.25 4.44,-4.38 9.96,-9.61 14.94,-14.55 4.98,-4.94 9.97,-9.96 14.94,-15.24 3.98,-4.04 7.64,-8.37 10.98,-12.96 6.21,-9.39 10.09,-20.13 11.31,-31.32 0.68,-5.56 0.68,-11.19 0,-16.75 -1.48,-9.89 -5.06,-19.35 -10.51,-27.74 -3.92,-5.94 -8.61,-11.33 -13.94,-16.04 -13.8,-13.7 -27.56,-27.5 -41.05,-41.5 -5.95,-6.62 -14.43,-10.41 -23.34,-10.41l-0.18 0 -1.5 0.2 -0.01 0.01z"/>
  <circle class="fil3" cx="1582.07" cy="1313.3" r="230.9"/>
  <circle class="fil4" cx="1580.36" cy="1311.59" r="192.41"/>
  <path class="fil5" d="M1576.88 1165.77c-14.53,1.68 -28.04,8.31 -38.26,18.78 -7.67,7.6 -14.94,15.4 -22.71,23.07 -3.89,3.99 -7.82,7.87 -11.76,11.81 -3.93,3.94 -8.27,8.13 -12.35,12.26 -4.09,4.14 -7.48,7.77 -11.26,11.61 -5.91,5.91 -11.81,11.81 -17.72,17.78 -4.53,4.68 -8.96,9.52 -13.45,14.2 -2.64,2.79 -5.48,5.38 -7.97,8.32 -10.28,12.53 -15.89,28.24 -15.89,44.45 0,0.95 0,1.93 0.06,2.87 0.21,9.31 2.65,18.43 7.12,26.6 2.54,4.93 5.49,9.65 8.81,14.1 2.19,3.09 3.79,3.04 6.68,0.65 0.55,-0.46 1.06,-0.96 1.54,-1.5 2.84,-2.99 5.63,-5.98 8.52,-8.97 4.09,-4.28 8.27,-8.56 12.36,-12.9 4.08,-4.34 8.51,-9.12 12.8,-13.6 2.04,-2.19 4.22,-4.22 6.28,-6.38 4.38,-4.63 8.67,-9.41 13.05,-13.99 4.38,-4.58 8.82,-8.87 13.1,-13.35 4.29,-4.48 9.56,-9.97 14.39,-14.95 4.83,-4.98 8.92,-9.16 13.4,-13.74 5.84,-6.04 11.52,-12.22 17.29,-18.24 3.59,-3.69 7.27,-7.23 10.86,-10.86 4.98,-4.98 9.61,-9.96 14.5,-14.94 4.88,-4.98 8.51,-8.32 12.7,-12.61 9.36,-9.45 18.7,-18.96 28.03,-28.52 0.6,-0.6 1.16,-1.23 1.68,-1.89 2.3,-2.9 2.49,-3.54 -0.34,-5.58 -4.33,-3.41 -8.97,-6.42 -13.85,-8.97 -8.63,-4.04 -18.04,-6.13 -27.57,-6.13l-0.47 0c-3.19,0 -6.37,0.2 -9.52,0.6l-0.06 -0.05 0.01 0.07zm82.45 61.32l0 0 -0.6 0c-8.28,0.01 -16.13,3.65 -21.47,9.97 -0.47,0.52 -0.97,1.02 -1.5,1.5l-15.24 14.94c-4.98,4.99 -10.36,10.42 -15.59,15.65 -4.33,4.33 -8.67,8.56 -12.95,12.9 -4.28,4.34 -8.87,9.17 -13.5,13.7 -4.63,4.53 -9.56,9.28 -14.35,13.95l-16.99 17.13 -31.58 31.59c-13.95,14.01 -27.88,27.99 -41.8,41.94 -2.68,2.64 -2.73,2.99 0,5.83 6.68,6.75 13.46,13.45 19.93,20.25 4,4.24 9.29,7.06 15.05,8.02 5.43,1.09 11.04,0.9 16.39,-0.55 4,-0.99 7.7,-2.96 10.76,-5.73l16.54 -15.98c3.88,-3.73 7.82,-7.42 11.65,-11.2 7.67,-7.6 15.24,-15.25 22.91,-22.79 6.23,-6.13 12.61,-12.2 18.93,-18.33l25.94 -25.28c8.06,-7.92 16.18,-15.89 24.35,-23.81 1.65,-2.45 4.96,-3.1 7.41,-1.45 0.9,0.61 1.6,1.48 2,2.5 4.15,6.07 6.37,13.25 6.37,20.59 0,1.26 -0.07,2.52 -0.2,3.77 -0.67,7.41 -3.72,14.4 -8.71,19.92 -5.98,6.43 -12.35,12.51 -18.56,18.69 -4.43,4.38 -8.97,8.67 -13.41,13.1 -5.73,5.68 -11.35,11.46 -17.08,17.14 -0.85,0.94 -1.64,1.94 -2.54,2.83l-5.63 5.83c-4.22,4.22 -8.51,8.32 -12.65,12.55 -4.15,4.23 -8.91,9.18 -13.34,13.79 -0.4,0.45 -0.84,0.74 -1.24,1.14 -4.99,4.63 -9.57,9.29 -14.3,13.95 -2.24,2.2 -4.38,4.43 -6.58,6.63 -3.78,3.84 -7.67,7.59 -11.31,11.51 -2.23,2.34 -2.23,3.78 0.41,5.63 4.33,3.33 8.95,6.27 13.8,8.81 12.05,5.45 25.4,7.35 38.5,5.48 12.99,-1.55 25.18,-7.1 34.88,-15.9 7.36,-6.47 13.95,-13.74 20.82,-20.71 4.98,-4.99 9.96,-10.32 15.29,-15.45l14.4 -14.5c4.38,-4.43 8.71,-8.87 13.15,-13.25 4.44,-4.38 9.96,-9.61 14.94,-14.55 4.98,-4.93 9.97,-9.95 14.95,-15.24 3.97,-4.04 7.63,-8.37 10.97,-12.95 6.21,-9.39 10.09,-20.13 11.31,-31.33 0.68,-5.56 0.68,-11.18 0,-16.74 -1.48,-9.9 -5.06,-19.36 -10.51,-27.75 -3.92,-5.94 -8.61,-11.33 -13.94,-16.04 -13.8,-13.69 -27.56,-27.49 -41.05,-41.49 -5.95,-6.63 -14.43,-10.41 -23.34,-10.42l-0.18 0 -1.5 0.21 -0.01 0z"/>
  <path class="fil6" d="M795.31 2262.54c0,64.14 33.35,136.83 145.38,136.83l1026.21 0c70.12,0 136.82,-47.89 136.82,-145.38l0 -667.03c0,-52.17 -20.52,-128.28 -128.27,-128.28l-1068.97 0c-30.78,0 -68.41,-25.66 -68.41,-59.86 0,-9.41 -42.76,-20.53 -42.76,17.1l0 846.62z"/>
  <path class="fil1" d="M795.31 2194.13c0,64.14 33.35,136.83 145.38,136.83l1026.21 0c70.12,0 136.82,-47.89 136.82,-145.38l0 -667.04c0,-52.16 -20.52,-128.27 -128.27,-128.27l-1068.97 0c-30.78,0 -68.41,-25.66 -68.41,-59.87 0,-9.4 -42.76,-20.52 -42.76,17.11l0 846.62z"/>
  <path class="fil2" d="M795.31 2194.13c0,64.14 33.35,136.83 145.38,136.83l1026.21 0c70.12,0 136.82,-47.89 136.82,-145.38l0 -641.38c0,-52.17 -20.52,-128.28 -128.27,-128.28l-1068.97 0c-61.57,0 -102.62,-42.76 -102.62,-76.96 -1.71,-24.8 0,-29.93 -8.55,-10.27l0 865.44z"/>
  <path class="fil7 str0" d="M820.97 2177.02c27.36,65 50.45,76.97 119.72,76.97l966.34 0c55.59,0 119.73,-37.63 119.73,-94.07l0 -572.96c0,-25.66 -22.24,-85.52 -76.97,-85.52l-1017.65 0c-43.62,0 -112.88,-13.68 -128.28,-68.42"/>
  <path class="fil8" d="M2120.83 1800.75c1.71,-17.1 -11.12,-32.5 -29.08,-34.21 -1.71,0 -3.42,0 -5.13,0l-128.28 0c-77.82,2.57 -138.53,67.56 -136.82,145.38 0,98.35 74.4,145.38 136.82,145.38l128.28 0c17.96,0.86 33.35,-12.83 34.21,-30.79 0,-0.85 0,-2.56 0,-3.42l0 -222.34z"/>
  <path class="fil1" d="M2137.93 1775.09c1.71,-17.1 -11.12,-32.49 -29.07,-34.2 -1.72,0 -3.43,0 -5.14,0l-136.82 0c-77.82,2.56 -138.54,67.56 -136.83,145.38 0,98.34 74.4,145.37 136.83,145.37l136.82 0.01c17.96,0.85 33.36,-12.83 34.21,-30.79 0,-0.86 0,-2.57 0,-3.42l0 -222.35z"/>
  <path class="fil9" d="M2137.93 1792.2c1.71,-17.11 -11.12,-32.5 -29.07,-34.21 -1.72,0 -3.43,0 -5.14,0l-128.27 0c-77.82,2.57 -138.54,67.56 -136.83,145.38 0,98.34 74.4,128.28 136.83,128.28l128.27 0c17.96,0.85 33.36,-12.83 34.21,-30.79 0,-0.86 0,-2.57 0,-3.42l0 -205.24z"/>
  <circle class="fil10" cx="1928.41" cy="1890.54" r="38.48"/>
  <circle class="fil11" cx="1434.12" cy="1868.31" r="288.19"/>
  <circle class="fil12" cx="1433.27" cy="1869.16" r="261.68"/>
  <path class="fil11" d="M1623.97 2047.89l-380.55 0c-29.93,-32.49 -52.16,-70.98 -62.43,-113.73l251.42 -264.25 253.99 269.38c-11.97,40.19 -33.35,77.82 -62.43,108.6l0 0zm-192.41 -206.95l-122.29 125.71 243.72 0 -121.43 -125.71z"/>
  <path class="fil13" d="M1628.25 2043.62l-0.86 0.85c-96.63,106.9 -262.53,115.45 -369.43,17.96 -106.9,-97.49 -115.45,-262.54 -17.96,-369.43 6.84,-7.7 14.54,-15.4 23.09,-22.24l1.71 -0.85 363.45 373.71z"/>
  <path class="fil12" d="M496 1903.37c-35.92,0 -68.41,-5.99 -68.41,-76.97l0 -582.37c-205.25,-11.97 -361.74,-187.28 -349.77,-392.52 8.55,-141.11 95.78,-265.96 226.62,-320.69 189.85,-79.53 407.92,10.26 486.59,200.11 78.68,188.13 -9.4,405.35 -197.54,485.73 -39.34,16.25 -81.24,26.51 -123.15,28.23l0 581.51c0,20.53 6.85,34.21 25.66,34.21l196.69 0c19.67,0 27.37,42.76 0,42.76l-196.69 0zm-175.31 -1334.07c-167.61,70.98 -247.15,264.25 -176.17,432.72 70.98,168.47 264.25,247.14 432.72,176.16 168.47,-70.98 247.15,-264.25 176.17,-432.71 -51.31,-122.29 -171.89,-201.82 -304.44,-201.82 -43.62,0 -87.23,8.55 -128.28,25.65z"/>
  <circle class="fil3" cx="444.69" cy="877.16" r="265.1"/>
  <circle class="fil4" cx="444.69" cy="877.16" r="239.45"/>
  <path class="fil5" d="M426.92 707.88c-14.53,1.68 -28.04,8.31 -38.26,18.78 -7.67,7.6 -14.94,15.39 -22.71,23.07 -3.89,3.99 -7.82,7.87 -11.76,11.81 -3.93,3.94 -8.27,8.13 -12.35,12.26 -4.08,4.14 -7.48,7.77 -11.26,11.61 -5.91,5.9 -11.81,11.81 -17.72,17.78 -4.53,4.68 -8.96,9.52 -13.44,14.19 -2.65,2.8 -5.49,5.39 -7.98,8.32 -10.27,12.54 -15.89,28.25 -15.89,44.45 0,0.96 0,1.94 0.06,2.88 0.21,9.31 2.65,18.43 7.12,26.59 2.55,4.94 5.49,9.66 8.81,14.11 2.2,3.08 3.79,3.03 6.68,0.65 0.55,-0.46 1.07,-0.96 1.54,-1.5 2.85,-2.99 5.63,-5.98 8.53,-8.97 4.08,-4.29 8.27,-8.57 12.35,-12.9 4.09,-4.34 8.52,-9.12 12.8,-13.6 2.04,-2.19 4.22,-4.22 6.28,-6.38 4.38,-4.63 8.67,-9.41 13.05,-13.99 4.38,-4.58 8.82,-8.87 13.11,-13.35 4.28,-4.48 9.56,-9.97 14.38,-14.95 4.83,-4.98 8.93,-9.16 13.41,-13.75 5.83,-6.03 11.51,-12.21 17.28,-18.23 3.59,-3.69 7.27,-7.23 10.86,-10.86 4.98,-4.98 9.61,-9.96 14.5,-14.94 4.89,-4.98 8.51,-8.32 12.7,-12.61 9.36,-9.45 18.7,-18.96 28.03,-28.52 0.6,-0.6 1.16,-1.23 1.69,-1.9 2.29,-2.89 2.49,-3.53 -0.35,-5.57 -4.33,-3.42 -8.97,-6.42 -13.85,-8.98 -8.63,-4.03 -18.04,-6.12 -27.57,-6.12l-0.47 0c-3.19,0 -6.36,0.2 -9.52,0.6l-0.05 -0.05 0 0.07zm82.45 61.32l0 0 -0.6 0c-8.27,0.01 -16.13,3.65 -21.47,9.97 -0.47,0.52 -0.97,1.02 -1.49,1.49l-15.25 14.95c-4.97,4.99 -10.36,10.41 -15.59,15.65 -4.33,4.33 -8.67,8.56 -12.95,12.9 -4.28,4.34 -8.87,9.16 -13.5,13.7 -4.63,4.53 -9.56,9.28 -14.35,13.95l-16.99 17.13 -31.57 31.59c-13.96,14.01 -27.89,27.99 -41.8,41.94 -2.69,2.64 -2.74,2.99 0,5.82 6.67,6.75 13.45,13.46 19.92,20.26 4,4.24 9.29,7.06 15.05,8.01 5.43,1.1 11.04,0.91 16.39,-0.54 4,-0.99 7.7,-2.96 10.76,-5.73l16.54 -15.98c3.88,-3.73 7.82,-7.42 11.65,-11.21 7.67,-7.59 15.24,-15.24 22.92,-22.78 6.22,-6.13 12.6,-12.21 18.92,-18.33l25.94 -25.28c8.07,-7.92 16.19,-15.89 24.36,-23.81 1.64,-2.45 4.95,-3.1 7.4,-1.45 0.9,0.61 1.6,1.48 2,2.5 4.15,6.06 6.37,13.24 6.37,20.59 0,1.26 -0.07,2.52 -0.2,3.77 -0.67,7.41 -3.72,14.4 -8.71,19.92 -5.98,6.43 -12.35,12.51 -18.56,18.69 -4.43,4.38 -8.96,8.66 -13.4,13.09 -5.73,5.68 -11.36,11.46 -17.09,17.14 -0.85,0.95 -1.64,1.94 -2.53,2.84l-5.63 5.83c-4.22,4.22 -8.52,8.32 -12.66,12.55 -4.15,4.23 -8.91,9.17 -13.34,13.79 -0.39,0.45 -0.84,0.74 -1.24,1.14 -4.99,4.63 -9.57,9.28 -14.3,13.95 -2.24,2.19 -4.38,4.43 -6.58,6.62 -3.78,3.84 -7.67,7.6 -11.31,11.52 -2.23,2.33 -2.23,3.78 0.41,5.62 4.34,3.33 8.95,6.28 13.8,8.82 12.05,5.44 25.41,7.34 38.5,5.47 12.99,-1.54 25.19,-7.09 34.88,-15.89 7.37,-6.47 13.95,-13.75 20.82,-20.72 4.98,-4.98 9.96,-10.31 15.29,-15.44l14.4 -14.5c4.39,-4.43 8.71,-8.87 13.15,-13.25 4.44,-4.38 9.96,-9.61 14.94,-14.55 4.98,-4.94 9.97,-9.96 14.95,-15.24 3.97,-4.04 7.64,-8.37 10.97,-12.95 6.21,-9.4 10.09,-20.14 11.32,-31.33 0.67,-5.56 0.67,-11.18 0,-16.74 -1.49,-9.9 -5.07,-19.36 -10.52,-27.75 -3.92,-5.94 -8.61,-11.33 -13.94,-16.04 -13.8,-13.7 -27.56,-27.49 -41.05,-41.49 -5.95,-6.63 -14.43,-10.41 -23.33,-10.42l-0.19 0 -1.49 0.2 -0.02 0.01z"/>
  <ellipse class="fil14 str1" cx="525.93" cy="962.73" rx="108.83" ry="86.21"/>
  <path class="fil15" d="M525.93 902.82c-41.05,0 -79.53,23.09 -98.34,59.86 28.22,54.73 94.92,75.26 148.8,47.89 20.52,-10.26 36.77,-27.36 47.89,-47.89 -18.82,-36.77 -57.3,-59.86 -98.35,-59.86zm48.75 31.64c11.11,6.84 21.38,17.1 29.07,28.22 -27.36,42.76 -84.66,54.73 -127.42,27.37 -11.12,-6.85 -19.67,-16.25 -27.36,-27.37 7.69,-11.12 17.1,-21.38 29.07,-28.22 0.86,-0.86 1.71,-0.86 2.57,-1.71 -1.71,5.13 -2.57,11.12 -2.57,16.25 0.86,27.36 23.09,48.74 50.46,47.89 26.51,-0.86 47.03,-21.38 47.89,-47.89 0,-5.99 -0.86,-11.12 -2.57,-16.25 -0.85,0.85 0,1.71 0.86,1.71zm-53.02 6.84c0,6.84 -5.99,12.83 -12.83,12.83 -6.84,0 -12.83,-5.99 -12.83,-12.83 0,-6.84 5.99,-12.83 12.83,-12.83 0,0 0,0 0,0 6.84,0 12.83,5.99 12.83,12.83z"/>
 </g>
</svg>
