<?xml version="1.0" encoding="utf-8"?>
<!-- Generator: Adobe Illustrator 26.0.3, SVG Export Plug-In . SVG Version: 6.00 Build 0)  -->
<svg version="1.1" id="Layer_1" xmlns="http://www.w3.org/2000/svg" xmlns:xlink="http://www.w3.org/1999/xlink" x="0px" y="0px"
	 viewBox="0 0 1790.28 1450.89" style="enable-background:new 0 0 1790.28 1450.89;" xml:space="preserve">
<style type="text/css">
	.st0{fill-rule:evenodd;clip-rule:evenodd;fill:#404853;}
	.st1{fill-rule:evenodd;clip-rule:evenodd;fill:#778391;}
	.st2{fill-rule:evenodd;clip-rule:evenodd;fill:#606B78;}
	.st3{fill-rule:evenodd;clip-rule:evenodd;fill:#4B5460;}
	.st4{fill-rule:evenodd;clip-rule:evenodd;fill:#56616F;}
	.st5{opacity:0.4196;fill-rule:evenodd;clip-rule:evenodd;fill:#191A20;}
	.st6{fill-rule:evenodd;clip-rule:evenodd;fill:#D52F2F;}
	.st7{fill-rule:evenodd;clip-rule:evenodd;fill:#FFFFFF;}
	.st8{opacity:0.5216;fill-rule:evenodd;clip-rule:evenodd;fill:#23242C;}
	
		.st9{opacity:0.3804;fill-rule:evenodd;clip-rule:evenodd;fill:none;stroke:#444D59;stroke-width:11.7374;stroke-linecap:round;stroke-linejoin:round;stroke-miterlimit:22.9256;stroke-dasharray:23.4748,35.2123;}
	.st10{opacity:0.3882;fill-rule:evenodd;clip-rule:evenodd;}
	.st11{fill-rule:evenodd;clip-rule:evenodd;fill:#697584;}
	.st12{fill-rule:evenodd;clip-rule:evenodd;fill:#48525E;}
	.st13{fill-rule:evenodd;clip-rule:evenodd;fill:#3F4751;}
</style>
<path class="st0" d="M207.94,1395.64c0-29.34,23.48-52.81,52.81-52.81c29.34,0,52.81,23.47,52.81,52.81
	c0,29.34-23.47,52.81-52.81,52.81C231.41,1448.45,207.94,1424.98,207.94,1395.64L207.94,1395.64z M1393.18,1067.06
	c0-6.45,5.28-11.73,11.74-11.73c6.45,0,11.73,5.28,11.73,11.73c0,6.46-5.28,11.74-11.73,11.74
	C1398.46,1078.8,1393.18,1073.52,1393.18,1067.06L1393.18,1067.06z M225.54,342.42c0-44.01,35.2-79.21,79.21-79.21
	c44,0,79.21,35.2,79.21,79.21c0,44.01-35.2,79.21-79.21,79.21C260.75,421.63,225.54,386.43,225.54,342.42L225.54,342.42z
	 M1393.18,49.05c0-24.05,19.95-44,44-44c24.06,0,44.01,19.95,44.01,44c0,24.06-19.95,44.01-44.01,44.01
	C1413.13,93.06,1393.18,73.11,1393.18,49.05z"/>
<path class="st1" d="M673.23,660.45v-53.98c0-40.49-22.29-67.48-62.77-67.48H80.03c-38.73,0-76.28,17.6-76.28,62.78v58.68H673.23
	L673.23,660.45z"/>
<path class="st2" d="M673.23,673.94v-53.99c0-40.48-22.29-67.47-62.77-67.47H80.03c-38.73,0-59.85,6.45-59.85,61.02
	c0,54.57,1.17,60.43,1.17,60.43H673.23L673.23,673.94z"/>
<path class="st3" d="M301.82,450.97h833.18c12.91,0,23.48,10.56,23.48,23.47V662.2c0,12.91-10.57,23.47-23.48,23.47H301.82
	c-12.91,0-23.48-10.56-23.48-23.47V474.44C278.35,461.53,288.92,450.97,301.82,450.97z"/>
<path class="st4" d="M1005.92,574.19c0-16.43,12.91-29.33,29.33-29.33c16.43,0,29.34,12.91,29.34,29.33
	c0,16.43-12.91,29.34-29.34,29.34C1018.83,603.53,1005.92,590.62,1005.92,574.19L1005.92,574.19z M917.91,574.19
	c0-16.43,12.91-29.33,29.33-29.33c16.43,0,29.34,12.91,29.34,29.33c0,16.43-12.91,29.34-29.34,29.34
	C930.82,603.53,917.91,590.62,917.91,574.19L917.91,574.19z M829.9,574.19c0-16.43,12.91-29.33,29.33-29.33
	c16.43,0,29.34,12.91,29.34,29.33c0,16.43-12.91,29.34-29.34,29.34C842.81,603.53,829.9,590.62,829.9,574.19L829.9,574.19z
	 M741.89,574.19c0-16.43,12.91-29.33,29.33-29.33c16.43,0,29.34,12.91,29.34,29.33c0,16.43-12.91,29.34-29.34,29.34
	C754.79,603.53,741.89,590.62,741.89,574.19L741.89,574.19z M653.87,574.19c0-16.43,12.91-29.33,29.33-29.33
	c16.43,0,29.34,12.91,29.34,29.33c0,16.43-12.91,29.34-29.34,29.34C666.78,603.53,653.87,590.62,653.87,574.19L653.87,574.19z
	 M565.86,574.19c0-16.43,12.91-29.33,29.33-29.33c16.43,0,29.34,12.91,29.34,29.33c0,16.43-12.91,29.34-29.34,29.34
	C578.77,603.53,565.86,590.62,565.86,574.19L565.86,574.19z M477.85,574.19c0-16.43,12.91-29.33,29.33-29.33
	c16.43,0,29.34,12.91,29.34,29.33c0,16.43-12.91,29.34-29.34,29.34C490.76,603.53,477.85,590.62,477.85,574.19L477.85,574.19z
	 M389.84,574.19c0-16.43,12.91-29.33,29.33-29.33c16.43,0,29.34,12.91,29.34,29.33c0,16.43-12.91,29.34-29.34,29.34
	C402.74,603.53,389.84,590.62,389.84,574.19z"/>
<path class="st5" d="M672.65,705.03h1072c12.91,0,23.47,10.56,23.47,23.48v320.95c0,12.91-10.56,23.48-23.47,23.48h-1072
	c-12.91,0-23.47-10.57-23.47-23.48V728.51C649.18,715.59,659.74,705.03,672.65,705.03z"/>
<path class="st6" d="M653.87,668.07h1108.96c12.91,0,23.47,10.56,23.47,23.47v320.95c0,12.91-10.56,23.47-23.47,23.47H653.87
	c-12.91,0-23.48-10.56-23.48-23.47V691.54C630.4,678.63,640.97,668.07,653.87,668.07z"/>
<path class="st7" d="M1501.73,861.11c0-25.82,20.54-46.35,45.77-46.93c25.82,0,46.36,20.54,46.94,45.77
	c0,25.82-20.54,46.35-45.77,46.94h-0.58C1522.85,907.47,1501.73,886.93,1501.73,861.11L1501.73,861.11L1501.73,861.11
	L1501.73,861.11z M1362.67,861.11c0-25.82,20.54-46.35,45.77-46.93c25.23-0.59,46.35,20.54,46.94,45.77
	c0,25.82-20.54,46.35-45.77,46.94h-0.59C1383.79,907.47,1362.67,886.93,1362.67,861.11L1362.67,861.11L1362.67,861.11
	L1362.67,861.11z M1223.6,861.11c0-25.82,20.54-46.35,45.77-46.93c25.23-0.59,46.35,20.54,46.93,45.77
	c0,25.82-20.53,46.35-45.77,46.94h-0.59C1244.73,907.47,1223.61,886.93,1223.6,861.11L1223.6,861.11L1223.6,861.11L1223.6,861.11z
	 M1084.55,861.11c0-25.82,20.54-46.35,45.77-46.93c25.23-0.59,46.36,20.54,46.94,45.77c0,25.82-20.54,46.35-45.77,46.94h-0.58
	C1105.67,907.47,1084.55,886.93,1084.55,861.11L1084.55,861.11L1084.55,861.11L1084.55,861.11z M945.49,861.11
	c0-25.82,20.54-46.35,45.77-46.93c25.23-0.59,46.35,20.54,46.94,45.77c0,25.82-20.54,46.35-45.77,46.94h-0.59
	C966.61,907.47,945.49,886.93,945.49,861.11L945.49,861.11L945.49,861.11L945.49,861.11z M806.43,861.11
	c0-25.82,20.53-46.35,45.77-46.93c25.23-0.59,46.35,20.54,46.93,45.77c0,25.82-20.53,46.35-45.76,46.94h-0.59
	C827.55,907.47,806.43,886.93,806.43,861.11L806.43,861.11L806.43,861.11z"/>
<path class="st8" d="M3.75,1078.21c0,33.44,17.6,72.17,76.28,72.17h568.56c36.96,0,72.17-25.24,72.17-76.28V723.81
	c0-27.58-10.56-67.48-67.47-67.48H62.43c-16.43,0-35.8-13.49-35.8-31.69c0-5.28-22.3-10.56-22.3,8.8L3.75,1078.21L3.75,1078.21z"/>
<path class="st1" d="M2.58,1042.42c0,33.44,17.6,71.58,76.27,71.58h538.64c36.97,0,71.59-24.65,71.59-76.27V688.61
	c0-27.58-10.56-66.89-67.48-66.89c-56.92,0-546.86,0-563.28,0c-16.43,0-36.38-13.49-36.38-31.69c0-20.54-19.95-9.98-19.95,9.39
	v442.99L2.58,1042.42L2.58,1042.42z"/>
<path class="st2" d="M2.58,1041.83c0,33.45,17.6,72.17,76.27,72.17h538.64c36.97,0,71.59-25.23,71.59-76.27V698.58
	c0-27.58-10.56-67.48-67.48-67.48H60.67c-32.27,0-52.22-21.13-52.22-39.32c0-17.01-5.86-7.04-5.86,3.52
	C2.58,605.88,2.58,1008.39,2.58,1041.83L2.58,1041.83z"/>
<path class="st9" d="M20.18,1031.85c13.49,38.14,27.58,41.08,64.54,41.08h498.74c28.75,0,64.54-17.6,64.54-46.94V726.75
	c0-13.5-12.32-46.94-41.08-46.94H72.99c-22.88,0-64.54-12.91-64.54-41.07"/>
<path class="st10" d="M700.22,835.88c0.59-9.38-5.86-17.01-15.26-18.19c-1.17,0-1.76,0-2.93,0h-67.48
	c-41.07,1.18-72.76,35.2-72.17,76.28c0,51.63,39.32,76.27,72.17,76.27h67.48c9.39,0.59,17.6-6.46,18.19-16.43c0-0.59,0-1.17,0-1.75
	V835.88L700.22,835.88L700.22,835.88z"/>
<path class="st1" d="M706.68,821.22c0.58-9.39-6.46-17.02-15.26-18.2c-1.18,0-1.76,0-2.93,0H621.6
	c-41.07,1.18-73.93,35.2-72.76,76.28c0,51.63,39.9,76.27,72.76,76.27h67.48c9.39,0.59,17.6-6.46,18.19-15.84c0-0.59,0-1.18,0-1.76
	L706.68,821.22L706.68,821.22z"/>
<path class="st11" d="M706.68,832.95c0.58-9.39-6.46-17.02-15.26-18.19c-1.18,0-1.76,0-2.93,0h-68.06
	c-29.93,0-72.76,18.77-72.76,70.41c0,51.64,39.31,70.41,72.76,70.41h68.06c9.38,0.59,17.6-6.46,18.19-15.84c0-0.59,0-1.18,0-1.76
	V832.95L706.68,832.95z"/>
<ellipse class="st12" cx="599.3" cy="882.82" rx="20.54" ry="19.95"/>
<g>
	<g>
		<path class="st13" d="M299.33,1039.69c2.31,1.08,4.67,2.02,7.1,2.8l1.02,0.34c2.31,0.71,4.65,1.26,7.04,1.67h1.08
			c4.94,0.77,9.98,0.77,14.91,0h1.15c2.34-0.39,4.64-0.92,6.92-1.6l1.31-0.4c2.3-0.74,4.55-1.62,6.74-2.62l0.98-0.46
			c2.21-1.09,4.37-2.29,6.46-3.6l0.51-0.29c2.19-1.41,4.3-2.94,6.35-4.57l1.19-0.98c1.99-1.64,3.89-3.4,5.72-5.31l1.26-1.26
			c1.88-1.94,3.77-4,5.71-6.17l0.8-1.02c1.72-2.1,3.37-4.29,4.97-6.58l0.57-0.8c-18.42-1.06-36.62-4.47-54.17-10.18
			c-2.42-0.77-5.01-0.77-7.43,0c-17.56,5.74-35.78,9.2-54.23,10.28C273.79,1021.97,285.52,1032.56,299.33,1039.69L299.33,1039.69
			L299.33,1039.69z"/>
		<path class="st13" d="M177.62,942.55c0.23,2.42,0.58,4.82,1.09,7.19l0.28,1.32c0.55,2.3,1.22,4.58,2.06,6.79l0.46,1.09
			c1.8,4.64,4.3,8.98,7.43,12.86l0.75,0.92c1.48,1.82,3.09,3.53,4.79,5.14l1.03,0.97c1.82,1.6,3.72,3.1,5.72,4.46l0.92,0.62
			c1.94,1.33,3.97,2.55,6.05,3.66l0.74,0.41c2.23,1.14,4.58,2.17,6.92,3.14l1.59,0.63c2.37,0.87,4.81,1.65,7.32,2.34l1.88,0.46
			c2.58,0.68,5.21,1.25,7.94,1.71h1.37c2.51,0.42,5.09,0.74,7.72,0.97h1.26c-2.06-4-3.97-8.17-5.71-12.51
			c-1.34-2.86-0.12-6.25,2.74-7.6c1.66-0.78,3.6-0.72,5.2,0.17c1.17,0.62,2.1,1.6,2.63,2.8c1.52,3.62,3.14,7.12,4.85,10.46
			c2.27,4.45,6.97,7.11,11.96,6.74c10.03-0.68,20.01-2.15,29.82-4.4c1.65-0.44,2.62-2.13,2.18-3.77c-0.23-0.84-0.79-1.54-1.55-1.93
			c-8.46-3.83-16.86-8.05-25.09-12.86c-33.92-18.71-62.98-45.09-84.91-77.03l-0.35,0.74c-1.25,2.74-2.4,5.44-3.37,8.11v0.58
			c-1.04,2.74-1.89,5.71-2.63,8.23l-0.4,1.36c-0.69,2.63-1.24,5.24-1.66,7.83v1.37c-0.41,2.6-0.67,5.21-0.8,7.83c0,0,0,0.4,0,0.57
			c-0.13,2.47-0.13,4.95,0,7.43C177.58,941.75,177.58,942.03,177.62,942.55L177.62,942.55L177.62,942.55z"/>
		<path class="st13" d="M323.96,785.47h-0.8c-15.85,5.57-31.15,12.62-45.7,21.02c-32.96,18.24-61.08,44.1-82,75.43
			c-1.34,2.13-1.34,4.84,0,6.97c7.81,12.42,16.99,23.92,27.37,34.29c-1.62-12.52-2.42-25.15-2.4-37.77c0-3.55,0-7.09,0-10.57
			c0.06-1.34,0.58-2.61,1.49-3.59c2.2-2.28,5.81-2.34,8.08-0.15c1.13,1.1,1.77,2.62,1.75,4.21c0,3.39,0,6.79,0,10.22
			c-0.01,15.47,1.31,30.91,3.94,46.17c0.46,2.58,1.82,4.91,3.83,6.57c11.91,9.85,24.64,18.65,38.06,26.34
			c31.23,18.68,66.3,29.98,102.56,33.03c4.94,0.18,9.52-2.55,11.72-6.97c4.59-9.35,8.41-19.06,11.43-29.03
			c0.46-1.47-0.38-3.04-1.85-3.5c-0.88-0.26-1.83-0.09-2.55,0.48c-7.79,5.69-15.85,10.99-24.17,15.88
			c-2.57,1.49-5.19,2.86-7.82,4.23c-1.3,0.69-2.81,0.85-4.23,0.46c-2.99-1-4.6-4.24-3.59-7.24c0.45-1.34,1.39-2.47,2.62-3.16
			c2.51-1.33,5.01-2.72,7.48-4.17c13.53-7.81,26.36-16.77,38.34-26.8c1.75-1.46,2.97-3.48,3.43-5.71
			c2.6-15.43,3.86-31.05,3.76-46.69c0-4.15,0-8.29,0-12.4c-0.01-3.16,2.51-5.74,5.67-5.77c1.18-0.01,2.34,0.34,3.31,1.03
			c1.23,1.02,1.98,2.51,2.06,4.11c0,4.23,0.28,8.46,0.28,12.74c0.67,38.73-7.7,77.07-24.46,111.99h1.25
			c2.63-0.26,5.2-0.59,7.72-0.97h1.31c2.74-0.46,5.37-1.09,8-1.77l1.84-0.46c2.51-0.69,4.95-1.49,7.31-2.4l1.59-0.63
			c2.41-0.98,4.75-2,6.98-3.14l0.74-0.4c2.1-1.13,4.15-2.37,6.12-3.71l0.92-0.58c1.99-1.39,3.9-2.9,5.71-4.52l1.03-0.97
			c1.71-1.61,3.32-3.33,4.81-5.14l0.74-0.92c3.12-3.88,5.63-8.22,7.43-12.86l0.46-1.09c0.83-2.22,1.52-4.49,2.06-6.8l0.28-1.32
			c0.5-2.28,0.86-4.58,1.09-6.91c0-0.35,0-0.63,0-0.98c0.13-2.48,0.13-4.95,0-7.43c0,0,0-0.41,0-0.58
			c-0.06-2.73-0.27-5.46-0.63-8.17v-1.37c-0.41-2.59-0.98-5.2-1.66-7.83l-0.52-1.31c-0.73-2.68-1.6-5.43-2.62-8.17v-0.69
			c-0.98-2.69-2.11-5.37-3.37-8.06l-0.34-0.74c-3.83,5.94-7.96,11.65-12.4,17.14c-1.61,1.89-4.47,2.12-6.37,0.51
			c-0.93-0.8-1.5-1.92-1.57-3.14c0-1.37,0-2.63,0-3.83c-0.08-1.1,0.28-2.18,0.97-3.03c8.92-11.67,8.66-27.93-0.63-39.32
			c-19.7-24.02-43.72-44.14-70.79-59.37c-7.2-4.11-14.4-7.82-21.6-11.42c4.8-1.72,10.12-3.43,15.94-4.97
			c3.81,1.98,7.62,4.06,11.43,6.23c10.85,6.25,21.29,13.2,31.25,20.79c-3.51-13.27-8.42-26.15-14.62-38.39
			c-1.82-3.66-5.63-5.89-9.71-5.71c-19.62,1.23-38.97,5.21-57.48,11.83L323.96,785.47L323.96,785.47L323.96,785.47L323.96,785.47z
			 M277.57,836.55L277.57,836.55l18.8,6.46c1.28,0.45,1.94,1.85,1.49,3.14c-0.12,0.35-0.32,0.67-0.58,0.92l-12.34,12.34
			c-0.96,0.95-2.51,0.96-3.48,0.01c-0.26-0.27-0.46-0.58-0.58-0.93l-6.57-18.8c-0.49-1.27,0.14-2.69,1.4-3.17
			C276.32,836.29,276.98,836.31,277.57,836.55L277.57,836.55L277.57,836.55L277.57,836.55z M256.25,887.69L256.25,887.69
			c-1.21-0.6-1.71-2.08-1.11-3.29c0.25-0.48,0.63-0.87,1.11-1.11l17.83-8.74c1.21-0.6,2.68-0.1,3.29,1.12
			c0.16,0.33,0.25,0.7,0.26,1.06v17.48c-0.02,1.36-1.13,2.44-2.49,2.43c-0.37-0.01-0.74-0.1-1.05-0.26L256.25,887.69L256.25,887.69
			L256.25,887.69L256.25,887.69z M296.25,928.04L296.25,928.04l-18.68,6.4c-1.29,0.41-2.68-0.31-3.08-1.6c-0.16-0.48-0.16-1,0-1.48
			l6.46-18.81c0.45-1.27,1.85-1.94,3.13-1.49c0.35,0.12,0.66,0.32,0.92,0.59l12.34,12.34c0.94,0.98,0.9,2.54-0.08,3.47
			C296.98,927.72,296.63,927.93,296.25,928.04L296.25,928.04L296.25,928.04L296.25,928.04z M334.25,934.72L334.25,934.72
			l-8.74,17.83c-0.6,1.21-2.07,1.71-3.29,1.1c-0.48-0.24-0.87-0.63-1.1-1.1l-8.74-17.83c-0.6-1.21-0.1-2.69,1.12-3.29
			c0.32-0.16,0.68-0.25,1.05-0.25h17.48c1.36,0.02,2.44,1.13,2.43,2.49c-0.01,0.36-0.09,0.72-0.26,1.05H334.25L334.25,934.72z
			 M369.17,934.72L369.17,934.72l-18.8-6.47c-1.28-0.45-1.95-1.85-1.5-3.13c0.12-0.35,0.32-0.66,0.59-0.92l12.34-12.34
			c0.95-0.97,2.51-0.97,3.47-0.01c0.26,0.26,0.46,0.57,0.58,0.92l6.4,18.34c0.61,1.21,0.11,2.69-1.1,3.29
			c-0.68,0.34-1.47,0.34-2.15,0.02L369.17,934.72L369.17,934.72L369.17,934.72L369.17,934.72z M390.36,883.58L390.36,883.58
			c1.21,0.6,1.71,2.08,1.11,3.29c-0.24,0.48-0.63,0.87-1.11,1.11l-17.83,8.74c-1.21,0.6-2.69,0.1-3.29-1.12
			c-0.17-0.33-0.25-0.68-0.25-1.05v-17.77c0.01-1.36,1.13-2.44,2.49-2.42c0.37,0.01,0.72,0.09,1.05,0.25L390.36,883.58
			L390.36,883.58L390.36,883.58z M350.36,843.24L350.36,843.24l18.63-6.69c1.3-0.41,2.67,0.31,3.08,1.6c0.15,0.48,0.15,1,0,1.49
			l-6.45,18.8c-0.46,1.28-1.86,1.95-3.14,1.49c-0.35-0.12-0.66-0.32-0.92-0.58l-12.34-12.34c-0.92-1-0.85-2.55,0.16-3.47
			c0.26-0.25,0.58-0.43,0.92-0.53L350.36,843.24L350.36,843.24L350.36,843.24L350.36,843.24z M357.56,885.41L357.56,885.41
			c0,18.93-15.35,34.28-34.28,34.28c-18.94,0-34.28-15.35-34.28-34.28c0-18.94,15.35-34.28,34.28-34.28
			C342.21,851.13,357.56,866.47,357.56,885.41L357.56,885.41z M325.46,818.49L325.46,818.49l8.74,17.84c0.6,1.21,0.1,2.69-1.12,3.29
			c-0.33,0.16-0.69,0.24-1.06,0.25h-17.48c-1.36-0.02-2.44-1.14-2.42-2.49c0-0.37,0.09-0.72,0.26-1.05l8.74-17.84
			c0.63-1.19,2.11-1.65,3.32-1.02C324.86,817.7,325.22,818.06,325.46,818.49L325.46,818.49L325.46,818.49z"/>
		<path class="st13" d="M178.19,845.41v1.37c0.43,2.59,0.98,5.2,1.67,7.82l0.4,1.38c0.75,2.74,1.6,5.71,2.62,8.23v0.57
			c1.03,2.68,2.18,5.37,3.37,8.11l0.35,0.73c11.07-16.58,24.38-31.55,39.54-44.51c3.75-19.32,10.12-38.04,18.92-55.65
			c-18.22,0.74-35.69,7.4-49.77,18.97l-0.69,0.63c-1.79,1.67-3.47,3.47-5.02,5.37l-0.63,0.8c-3.13,3.9-5.63,8.25-7.43,12.91
			l-0.46,1.08c-0.84,2.22-1.52,4.49-2.06,6.81l-0.28,1.3c-0.49,2.28-0.85,4.59-1.09,6.92c0,0.28,0,0.62,0,0.91
			c-0.13,2.47-0.13,4.96,0,7.43c0,0,0,0.4,0,0.57C177.67,839.94,177.86,842.68,178.19,845.41L178.19,845.41L178.19,845.41z"/>
		<path class="st13" d="M271.85,796.33c8.23-4.75,16.57-9.03,25.03-12.8c1.49-0.96,1.91-2.94,0.96-4.42
			c-0.39-0.61-0.97-1.06-1.64-1.29c-4.76-1.06-9.47-1.96-14.12-2.68c-3.11-0.59-5.14-3.58-4.55-6.68c0.15-0.8,0.47-1.56,0.95-2.24
			c1.24-1.71,3.33-2.58,5.42-2.28c12.25,1.87,24.32,4.72,36.11,8.51c2.08,0.67,4.32,0.67,6.4,0c17.74-5.81,36.17-9.28,54.8-10.34
			l-0.33-0.46c-1.76-2.51-3.57-4.9-5.44-7.14l-0.51-0.69c-1.88-2.23-3.77-4.34-5.71-6.34l-1.09-1.09c-1.94-1.9-3.85-3.7-5.71-5.37
			l-1.08-0.86c-2.11-1.79-4.33-3.47-6.63-5.03h-0.4c-2.08-1.46-4.26-2.79-6.51-4l-0.92-0.46c-2.19-1.02-4.44-1.89-6.74-2.64
			l-1.31-0.39c-2.27-0.69-4.58-1.21-6.92-1.6h-1.14c-4.48-0.63-9.02-0.63-13.48,0h-1.61c-1.71,0-3.37,0.58-5.09,0.98h-0.91
			c-1.94,0.53-3.84,1.16-5.71,1.88l-1.37,0.57c-1.57,0.65-3.13,1.36-4.69,2.12l-1.2,0.57c-1.87,0.99-3.77,2.08-5.71,3.26l-0.85,0.58
			c-1.57,1.07-3.13,2.2-4.69,3.43l-1.09,0.85c-3.67,3.14-7.09,6.56-10.22,10.23l-0.8,0.92c-3.47,4-6.68,8.22-9.6,12.63l-0.4,0.57
			c-10.33,16.18-18.04,33.88-22.86,52.46C250.49,809.49,260.96,802.56,271.85,796.33L271.85,796.33L271.85,796.33z"/>
		<path class="st13" d="M422.19,830.55c14.28,12.62,26.83,27.06,37.31,42.97c2.72-5.8,4.94-11.82,6.62-17.99v-0.86
			c0.73-2.78,1.32-5.52,1.78-8.23v-0.98c0.43-2.7,0.72-5.43,0.85-8.17c0.15-2.59,0.15-5.18,0-7.77c0,0,0-0.52,0-0.75
			c-0.21-2.43-0.58-4.85-1.09-7.25v-1.25c-0.53-2.31-1.22-4.59-2.06-6.8l-0.46-1.03c-1.8-4.64-4.3-8.98-7.43-12.86l-0.69-0.92
			c-1.51-1.82-3.14-3.54-4.85-5.14l-1.03-0.97c-1.81-1.63-3.71-3.14-5.71-4.52l-0.92-0.63c-1.99-1.35-4.05-2.59-6.17-3.71l-0.8-0.63
			c-2.24-1.15-4.58-2.17-7.04-3.14l-1.54-0.63c-2.36-0.88-4.83-1.67-7.37-2.4l-1.83-0.45c-2.62-0.69-5.27-1.26-8-1.78h-1.31
			c-2.55-0.41-5.18-0.76-7.89-1.03h-1.14c8.51,16.98,14.73,35,18.52,53.6C420.34,828.55,421.12,829.7,422.19,830.55L422.19,830.55
			L422.19,830.55z"/>
	</g>
</g>
</svg>
