<?xml version="1.0" encoding="UTF-8"?>
<!DOCTYPE svg PUBLIC "-//W3C//DTD SVG 1.1//EN" "http://www.w3.org/Graphics/SVG/1.1/DTD/svg11.dtd">
<!-- Creator: CorelDRAW 2021 (64-Bit) -->
<svg xmlns="http://www.w3.org/2000/svg" xml:space="preserve" width="2480px" height="3508px" version="1.1" style="shape-rendering:geometricPrecision; text-rendering:geometricPrecision; image-rendering:optimizeQuality; fill-rule:evenodd; clip-rule:evenodd"
viewBox="0 0 2480 3507.43"
 xmlns:xlink="http://www.w3.org/1999/xlink"
 xmlns:xodm="http://www.corel.com/coreldraw/odm/2003">
 <defs>
  <style type="text/css">
   <![CDATA[
    .fil0 {fill:#C9D0DF;fill-rule:nonzero}
   ]]>
  </style>
 </defs>
 <g id="Layer_x0020_1">
  <metadata id="CorelCorpID_0Corel-Layer"/>
  <g id="_2524937452208">
   <g>
    <path class="fil0" d="M1092.72 2680.3c14.31,6.74 29.04,12.56 44.09,17.42l6.4 2.14c14.34,4.39 28.95,7.83 43.74,10.31l6.75 0c30.75,4.78 62.06,4.78 92.81,0l7.11 0c14.54,-2.39 28.91,-5.72 43.02,-9.96l8.18 -2.49c14.3,-4.6 28.31,-10.06 41.96,-16.35l6.04 -2.85c13.8,-6.72 27.21,-14.2 40.18,-22.4l3.2 -1.78c13.63,-8.8 26.8,-18.3 39.47,-28.44l7.47 -6.05c12.32,-10.19 24.17,-21.21 35.55,-33.06l7.82 -7.83c11.74,-12.09 23.47,-24.89 35.56,-38.4l4.98 -6.4c10.67,-13.04 20.98,-26.67 30.93,-40.89l3.56 -4.97c-114.61,-6.56 -227.9,-27.83 -337.08,-63.3 -15.04,-4.77 -31.18,-4.77 -46.22,0 -109.27,35.7 -222.68,57.21 -337.43,64 52.88,81.04 125.91,146.95 211.91,191.3z"/>
    <path class="fil0" d="M335.36 2075.84c1.34,15.05 3.6,30.01 6.76,44.8l1.78 8.17c3.35,14.37 7.62,28.5 12.8,42.32l2.84 6.75c11.21,28.89 26.8,55.87 46.23,80.01l4.62 5.69c9.26,11.29 19.24,21.98 29.87,32l6.4 6.04c11.28,9.96 23.15,19.22 35.55,27.74l5.69 3.91c12.16,8.24 24.74,15.83 37.69,22.75l4.63 2.49c13.86,7.11 28.44,13.51 43.02,19.56l9.95 3.91c14.7,5.45 29.87,10.31 45.52,14.58l11.73 2.84c16,4.27 32.36,7.82 49.43,10.67l8.53 0c15.64,2.61 31.64,4.62 48,6.04l7.82 0c-12.8,-24.89 -24.65,-50.84 -35.55,-77.87 -8.36,-17.77 -0.73,-38.95 17.04,-47.3 10.34,-4.87 22.39,-4.46 32.38,1.08 7.3,3.75 13.08,9.9 16.36,17.42 9.48,22.52 19.55,44.21 30.22,65.07 14.08,27.66 43.36,44.19 74.31,41.96 62.49,-4.25 124.55,-13.41 185.61,-27.38 10.24,-2.75 16.31,-13.29 13.56,-23.53 -1.4,-5.18 -4.9,-9.54 -9.65,-12.03 -52.62,-23.82 -104.89,-50.13 -156.09,-80 -211.05,-116.45 -391.98,-280.57 -528.38,-479.3l-2.13 4.62c-7.82,17.07 -14.93,33.78 -20.98,50.49l0 3.55c-6.4,17.07 -11.73,35.56 -16.36,51.21l-2.48 8.53c-4.27,16.36 -7.71,32.59 -10.31,48.71l0 8.54c-2.5,16.14 -4.16,32.4 -4.98,48.71l0 3.56c-0.86,15.39 -0.86,30.82 0,46.22 -1.78,2.49 -1.78,4.27 -1.43,7.47z"/>
    <path class="fil0" d="M1245.97 1098.38l-4.97 0c-98.68,34.7 -193.9,78.51 -284.46,130.85 -205.1,113.49 -380.06,274.42 -510.24,469.35 -8.3,13.27 -8.3,30.11 0,43.38 48.59,77.27 105.72,148.84 170.32,213.34 -10.07,-77.94 -15.05,-156.45 -14.94,-235.03l0 -65.78c0.37,-8.32 3.64,-16.25 9.25,-22.4 13.62,-14.14 36.13,-14.56 50.27,-0.94 7.11,6.85 11.05,16.33 10.89,26.18l0 63.65c-0.04,96.29 8.17,192.41 24.53,287.3 2.84,16.02 11.29,30.51 23.82,40.89 74.15,61.25 153.37,116.09 236.81,163.91 194.32,116.23 412.62,186.53 638.25,205.52 30.7,1.11 59.22,-15.86 72.89,-43.38 28.54,-58.19 52.32,-118.6 71.11,-180.63 2.82,-9.19 -2.34,-18.94 -11.54,-21.76 -5.44,-1.67 -11.35,-0.58 -15.84,2.92 -48.47,35.42 -98.66,68.41 -150.4,98.85 -16,9.24 -32.36,17.78 -48.72,26.31 -8.07,4.3 -17.5,5.32 -26.31,2.84 -18.61,-6.26 -28.62,-26.43 -22.35,-45.04 2.81,-8.35 8.62,-15.36 16.31,-19.67 15.64,-8.3 31.17,-16.95 46.58,-25.96 84.2,-48.58 164.02,-104.38 238.58,-166.76 10.95,-9.08 18.47,-21.62 21.34,-35.55 16.14,-95.98 24,-193.17 23.46,-290.5l0 -77.16c-0.16,-19.63 15.63,-35.69 35.26,-35.85 7.35,-0.06 14.53,2.15 20.57,6.34 7.66,6.36 12.31,15.65 12.8,25.6 0,26.31 1.78,52.62 1.78,79.29 4.22,240.98 -47.89,479.62 -152.19,696.91l7.83 0c16.35,-1.66 32.35,-3.67 48,-6.04l8.18 0c17.06,-2.85 33.42,-6.76 49.78,-11.03l11.37 -2.84c15.65,-4.27 30.82,-9.24 45.52,-14.93l9.95 -3.91c14.93,-6.05 29.51,-12.45 43.38,-19.56l4.62 -2.49c13.09,-7.02 25.79,-14.74 38.05,-23.11l5.69 -3.56c12.41,-8.63 24.28,-18.01 35.56,-28.09l6.4 -6.04c10.62,-10.02 20.6,-20.71 29.86,-32l4.62 -5.69c19.43,-24.14 35.02,-51.12 46.23,-80.01l2.84 -6.75c5.18,-13.81 9.45,-27.95 12.8,-42.31l1.78 -8.18c3.09,-14.2 5.35,-28.56 6.76,-43.02l0 -6.05c0.85,-15.39 0.85,-30.83 0,-46.22l0 -3.56c-0.4,-17 -1.71,-33.98 -3.91,-50.85l0 -8.53c-2.61,-16.12 -6.05,-32.35 -10.31,-48.71l-3.21 -8.18c-4.62,-16.71 -9.95,-33.78 -16.35,-50.85l0 -4.26c-6.05,-16.71 -13.16,-33.43 -20.98,-50.14l-2.13 -4.62c-23.77,36.93 -49.52,72.54 -77.16,106.67 -10.05,11.82 -27.78,13.25 -39.6,3.19 -5.78,-4.92 -9.33,-11.97 -9.83,-19.55l0 -23.82c-0.43,-6.82 1.72,-13.55 6.05,-18.84 55.5,-72.61 53.88,-173.83 -3.91,-244.63 -122.64,-149.43 -272.04,-274.71 -440.55,-369.44 -44.8,-25.6 -89.6,-48.71 -134.4,-71.11 29.86,-10.67 62.93,-21.33 99.2,-30.93 23.7,12.32 47.41,25.24 71.11,38.75 67.53,38.94 132.5,82.17 194.5,129.43 -21.91,-82.61 -52.42,-162.7 -91.03,-238.94 -11.35,-22.76 -35.04,-36.69 -60.44,-35.56 -122.1,7.67 -242.5,32.45 -357.71,73.6l-1.42 5.69zm-288.72 317.88l0 0 116.98 40.18c7.96,2.82 12.13,11.55 9.32,19.51 -0.77,2.16 -2.01,4.12 -3.63,5.73l-76.8 76.81c-5.96,5.98 -15.64,6 -21.62,0.04 -1.62,-1.62 -2.86,-3.57 -3.63,-5.73l-40.89 -116.99c-3.03,-7.87 0.9,-16.72 8.78,-19.76 3.71,-1.42 7.83,-1.35 11.49,0.21zm-132.63 318.23l0 0c-7.56,-3.76 -10.64,-12.94 -6.87,-20.5 1.48,-2.98 3.89,-5.39 6.87,-6.88l110.94 -54.4c7.58,-3.73 16.74,-0.61 20.48,6.96 1,2.04 1.54,4.28 1.57,6.55l0 108.81c-0.12,8.44 -7.05,15.19 -15.49,15.08 -2.28,-0.03 -4.52,-0.57 -6.56,-1.57l-110.94 -54.05zm248.9 251.03l0 0 -116.27 39.83c-8.05,2.55 -16.64,-1.9 -19.2,-9.95 -0.95,-3.01 -0.95,-6.24 0,-9.26l40.18 -116.98c2.82,-7.96 11.55,-12.13 19.51,-9.31 2.16,0.76 4.12,2 5.73,3.62l76.81 76.81c5.84,6.1 5.62,15.77 -0.48,21.61 -1.77,1.7 -3.93,2.94 -6.28,3.63zm236.46 41.6l0 0 -54.41 110.94c-3.76,7.56 -12.94,10.64 -20.5,6.88 -2.98,-1.48 -5.39,-3.9 -6.88,-6.88l-54.4 -110.94c-3.73,-7.57 -0.61,-16.74 6.96,-20.47 2.04,-1.01 4.28,-1.54 6.55,-1.57l108.81 0c8.44,0.11 15.19,7.05 15.08,15.49 -0.03,2.27 -0.57,4.51 -1.57,6.55l0.36 0zm217.25 0l0 0 -116.99 -40.18c-7.96,-2.81 -12.12,-11.55 -9.31,-19.51 0.77,-2.16 2,-4.12 3.63,-5.73l76.8 -76.81c5.96,-5.98 15.64,-5.99 21.62,-0.04 1.62,1.62 2.86,3.58 3.62,5.74l39.83 114.13c3.77,7.56 0.7,16.74 -6.86,20.51 -4.21,2.1 -9.16,2.14 -13.41,0.12l1.07 1.77zm131.91 -318.23l0 0c7.56,3.76 10.64,12.94 6.88,20.5 -1.48,2.98 -3.9,5.39 -6.88,6.88l-110.94 54.4c-7.57,3.73 -16.74,0.62 -20.47,-6.96 -1,-2.04 -1.54,-4.28 -1.57,-6.55l0 -110.58c0.11,-8.44 7.05,-15.2 15.49,-15.09 2.28,0.03 4.51,0.57 6.55,1.58l110.94 55.82zm-248.9 -251.03l0 0 115.92 -41.6c8.05,-2.56 16.64,1.89 19.2,9.94 0.96,3.01 0.96,6.25 0,9.26l-40.18 116.98c-2.82,7.96 -11.55,12.13 -19.51,9.31 -2.16,-0.76 -4.12,-2 -5.73,-3.62l-76.81 -76.8c-5.68,-6.24 -5.23,-15.92 1.02,-21.6 1.65,-1.5 3.61,-2.63 5.74,-3.29l0.35 1.42zm44.81 262.41l0 0c0,117.82 -95.52,213.34 -213.34,213.34 -117.83,0 -213.34,-95.52 -213.34,-213.34 0,-117.83 95.51,-213.34 213.34,-213.34 117.82,0 213.34,95.51 213.34,213.34zm-199.83 -416.37l0 0 54.4 110.94c3.73,7.57 0.62,16.74 -6.96,20.47 -2.04,1 -4.28,1.54 -6.55,1.57l-108.81 0c-8.44,-0.11 -15.19,-7.05 -15.08,-15.49 0.03,-2.27 0.57,-4.51 1.57,-6.55l54.4 -110.94c3.96,-7.46 13.21,-10.31 20.67,-6.36 2.71,1.44 4.92,3.65 6.36,6.36z"/>
    <path class="fil0" d="M338.92 1471.37l0 8.54c2.61,16.11 6.05,32.35 10.31,48.71l2.49 8.53c4.62,17.07 9.96,35.56 16.36,51.2l0 3.56c6.4,16.71 13.51,33.42 20.98,50.49l2.13 4.62c68.91,-103.19 151.7,-196.39 246.05,-276.99 23.35,-120.24 62.95,-236.75 117.69,-346.32 -113.33,4.56 -222.08,46.01 -309.7,118.05l-4.26 3.91c-11.17,10.43 -21.62,21.6 -31.29,33.43l-3.91 4.97c-19.45,24.25 -35.04,51.36 -46.23,80.36l-2.84 6.76c-5.17,13.81 -9.45,27.95 -12.8,42.31l-1.78 8.18c-3.09,14.2 -5.35,28.56 -6.76,43.02l0 5.69c-0.85,15.4 -0.85,30.83 0,46.22l0 3.56c0.27,17.12 1.46,34.21 3.56,51.2z"/>
    <path class="fil0" d="M921.69 1165.94c51.21,-29.51 103.12,-56.18 155.74,-79.65 9.25,-5.95 11.92,-18.27 5.96,-27.52 -2.41,-3.75 -6.01,-6.58 -10.22,-8.03 -29.63,-6.64 -58.91,-12.21 -87.83,-16.71 -19.29,-3.67 -31.97,-22.27 -28.31,-41.57 0.95,-5 2.97,-9.74 5.91,-13.91 7.76,-10.62 20.76,-16.09 33.78,-14.22 76.2,11.63 151.35,29.35 224.72,52.98 12.95,4.14 26.87,4.14 39.82,0 110.4,-36.13 225.02,-57.76 340.99,-64.35l-2.13 -2.85c-10.91,-15.64 -22.17,-30.46 -33.78,-44.45l-3.2 -4.26c-11.73,-13.87 -23.47,-27.03 -35.56,-39.47l-6.75 -6.76c-12.09,-11.85 -23.95,-22.99 -35.56,-33.42l-6.76 -5.33c-13.17,-11.17 -26.94,-21.61 -41.24,-31.29l-2.49 0c-13.03,-9.06 -26.56,-17.37 -40.54,-24.89l-5.68 -2.85c-13.65,-6.29 -27.66,-11.75 -41.96,-16.35l-8.18 -2.49c-14.11,-4.24 -28.48,-7.57 -43.02,-9.96l-7.11 0c-27.84,-3.94 -56.09,-3.94 -83.92,0l-9.95 0c-10.67,0 -20.98,3.56 -31.65,6.05l-5.69 0c-12.05,3.28 -23.92,7.2 -35.56,11.73l-8.53 3.56c-9.72,4.03 -19.44,8.41 -29.16,13.15l-7.46 3.56c-11.62,6.16 -23.47,12.92 -35.56,20.27l-5.33 3.55c-9.72,6.64 -19.44,13.75 -29.16,21.33l-6.76 5.34c-22.82,19.55 -44.1,40.82 -63.64,63.64l-4.98 5.69c-21.61,24.86 -41.57,51.11 -59.74,78.58l-2.48 3.56c-64.25,100.66 -112.25,210.82 -142.23,326.41 62.24,-47.16 127.44,-90.27 195.2,-129.07z"/>
    <path class="fil0" d="M1857.19 1378.92c88.86,78.49 166.94,168.4 232.19,267.39 16.91,-36.09 30.71,-73.56 41.24,-112l0 -5.34c4.51,-17.3 8.18,-34.37 11.03,-51.2l0 -6.04c2.68,-16.84 4.46,-33.82 5.33,-50.85 0.94,-16.1 0.94,-32.25 0,-48.35l0 -4.63c-1.33,-15.17 -3.58,-30.26 -6.76,-45.16l0 -7.82c-3.34,-14.36 -7.62,-28.5 -12.8,-42.31l-2.84 -6.4c-11.21,-28.88 -26.8,-55.86 -46.22,-80l-4.27 -5.69c-9.38,-11.31 -19.47,-22 -30.22,-32l-6.4 -6.05c-11.27,-10.07 -23.15,-19.46 -35.56,-28.09l-5.69 -3.91c-12.38,-8.39 -25.2,-16.1 -38.4,-23.11l-4.98 -3.91c-13.87,-7.11 -28.45,-13.51 -43.73,-19.56l-9.6 -3.91c-14.7,-5.45 -29.99,-10.43 -45.87,-14.93l-11.38 -2.85c-16.36,-4.26 -32.71,-7.82 -49.78,-11.02l-8.18 0c-15.88,-2.61 -32.24,-4.74 -49.07,-6.4l-7.11 0c52.93,105.61 91.67,217.76 115.21,333.52 2.39,8.14 7.23,15.34 13.86,20.62z"/>
   </g>
  </g>
 </g>
</svg>
