<svg width="292.414" height="320.488" xmlns:xlink="http://www.w3.org/1999/xlink" xmlns="http://www.w3.org/2000/svg">
  <defs>
    <linearGradient xlink:href="#a" id="d" gradientTransform="scale(1.5702 .63686)" x1="13.915" y1="81.21" x2="26.825" y2="81.21" gradientUnits="userSpaceOnUse"/>
    <linearGradient xlink:href="#a" id="e" gradientTransform="scale(1.10034 .9088)" x1="5.912" y1="37.5" x2="25.174" y2="37.5" gradientUnits="userSpaceOnUse"/>
    <linearGradient xlink:href="#a" id="f" gradientTransform="scale(1.10488 .90507)" x1="8.557" y1="13.566" x2="52.049" y2="13.566" gradientUnits="userSpaceOnUse"/>
    <linearGradient xlink:href="#a" id="g" gradientTransform="scale(.82107 1.21792)" x1="7.907" y1="10.19" x2="22.3" y2="10.19" gradientUnits="userSpaceOnUse"/>
    <linearGradient xlink:href="#a" id="h" gradientTransform="scale(1.2402 .80632)" x1="14.119" y1="4.994" x2="33.978" y2="4.994" gradientUnits="userSpaceOnUse"/>
    <linearGradient xlink:href="#a" id="i" gradientTransform="scale(.82161 1.21712)" x1="55.598" y1="10.221" x2="69.96" y2="10.221" gradientUnits="userSpaceOnUse"/>
    <linearGradient xlink:href="#a" id="c" gradientTransform="scale(.9552 1.0469)" x1="6.796" y1="3.846" x2="60.205" y2="3.846" gradientUnits="userSpaceOnUse"/>
    <linearGradient xlink:href="#a" id="b" gradientTransform="scale(.9552 1.0469)" x1="6.796" y1="3.846" x2="60.205" y2="3.846" gradientUnits="userSpaceOnUse"/>
    <linearGradient id="a">
      <stop stop-color="#ef4136" offset="0"/>
      <stop stop-color="#fbb040" offset="1"/>
    </linearGradient>
  </defs>
  <path fill="none" style="fill:#fff;fill-opacity:0;stroke-width:.67517" d="M-49.55-76.413h1437.231v473.315H-49.55z"/>
  <g transform="translate(-37.21 -23.08) scale(5.7318)" fill="url(#a)" style="fill:url(#b)">
    <g data-name="Layer 2" style="fill:url(#c)">
      <path d="M27.81 59a10.43 10.43 0 0 0 1.24.49l.18.06a9.6 9.6 0 0 0 1.23.29h.19a8.5 8.5 0 0 0 2.61 0h.2a9.66 9.66 0 0 0 1.21-.28l.23-.07a10.48 10.48 0 0 0 1.18-.46l.17-.08a11.74 11.74 0 0 0 1.13-.63l.09-.05a13.52 13.52 0 0 0 1.11-.8l.21-.17q.52-.43 1-.93l.22-.22c.33-.34.66-.7 1-1.08l.14-.18q.45-.55.87-1.15l.1-.14a37.64 37.64 0 0 1-9.48-1.78 2.15 2.15 0 0 0-1.3 0 37.75 37.75 0 0 1-9.49 1.8A15.72 15.72 0 0 0 27.81 59z" style="fill:url(#d)"/>
      <path d="M6.51 42a10.46 10.46 0 0 0 .19 1.26l.05.23a9.61 9.61 0 0 0 .36 1.19l.08.19a8.48 8.48 0 0 0 1.3 2.25l.13.16a9.63 9.63 0 0 0 .84.9l.18.17a10.44 10.44 0 0 0 1 .78l.16.11a11.75 11.75 0 0 0 1.06.64l.13.07c.39.2.8.38 1.21.55l.28.11q.62.23 1.28.41l.33.08c.45.12.91.22 1.39.3h.24q.66.11 1.35.17h.22q-.54-1.05-1-2.19a1 1 0 0 1 1.39-1.3 1 1 0 0 1 .46.49q.4.95.85 1.83a2.17 2.17 0 0 0 2.09 1.18 33.65 33.65 0 0 0 5.22-.77.54.54 0 0 0 .11-1c-1.48-.67-2.95-1.41-4.39-2.25A43.53 43.53 0 0 1 8.16 34.08l-.06.13c-.22.48-.42.95-.59 1.42v.1c-.18.48-.33 1-.46 1.44l-.07.24q-.18.69-.29 1.37v.24a13.45 13.45 0 0 0-.14 1.37v.1a11.73 11.73 0 0 0 0 1.3c-.05.07-.05.12-.04.21Z" style="fill:url(#e)"/>
      <path d="M32.12 14.51h-.14a47.43 47.43 0 0 0-8 3.68 41.3 41.3 0 0 0-14.35 13.2 1.15 1.15 0 0 0 0 1.22 34.22 34.22 0 0 0 4.79 6A51 51 0 0 1 14 32v-1.85a1 1 0 0 1 .26-.63 1 1 0 0 1 1.72.71v1.79a47.46 47.46 0 0 0 .69 8.08 1.93 1.93 0 0 0 .67 1.15A47.71 47.71 0 0 0 24 45.86a41.8 41.8 0 0 0 17.95 5.78A2.2 2.2 0 0 0 44 50.42a33.77 33.77 0 0 0 2-5.08.49.49 0 0 0-.77-.53A51 51 0 0 1 41 47.59c-.45.26-.91.5-1.37.74a1 1 0 0 1-.74.08 1 1 0 0 1-.17-1.82q.66-.35 1.31-.73a47.29 47.29 0 0 0 6.71-4.69 1.76 1.76 0 0 0 .6-1A47.67 47.67 0 0 0 48 32v-2.17a1 1 0 0 1 1.57-.83 1 1 0 0 1 .36.72c0 .74.05 1.48.05 2.23a43.53 43.53 0 0 1-4.28 19.6h.22q.69-.07 1.35-.17h.23c.48-.08.94-.19 1.4-.31l.32-.08q.66-.18 1.28-.42l.28-.11c.42-.17.83-.35 1.22-.55l.13-.07a11.74 11.74 0 0 0 1.07-.65l.16-.1a10.48 10.48 0 0 0 1-.79l.18-.17a9.65 9.65 0 0 0 .84-.9l.13-.16a8.49 8.49 0 0 0 1.3-2.25l.08-.19a9.63 9.63 0 0 0 .36-1.19l.05-.23a10.46 10.46 0 0 0 .19-1.21v-.17a11.73 11.73 0 0 0 0-1.3v-.1a13.47 13.47 0 0 0-.11-1.43v-.24q-.11-.68-.29-1.37l-.09-.23c-.13-.47-.28-.95-.46-1.43v-.12c-.17-.47-.37-.94-.59-1.41l-.06-.13a34 34 0 0 1-2.17 3 .79.79 0 0 1-1.39-.46v-.67a.76.76 0 0 1 .17-.53 5.55 5.55 0 0 0-.11-6.88A43.78 43.78 0 0 0 40 18.14c-1.26-.72-2.52-1.37-3.78-2 .84-.3 1.77-.6 2.79-.87q1 .52 2 1.09A51.28 51.28 0 0 1 46.48 20a34.37 34.37 0 0 0-2.56-6.72 1.81 1.81 0 0 0-1.7-1 36.75 36.75 0 0 0-10.06 2.07zM24 23.45l3.29 1.13a.43.43 0 0 1 .16.71l-2.16 2.16a.43.43 0 0 1-.71-.16L23.43 24a.43.43 0 0 1 .57-.55Zm-3.73 8.95a.43.43 0 0 1 0-.77l3.12-1.53a.43.43 0 0 1 .62.38v3.06a.43.43 0 0 1-.62.38zm7 7.06L24 40.58a.43.43 0 0 1-.54-.54l1.13-3.29a.43.43 0 0 1 .71-.16l2.16 2.16a.43.43 0 0 1-.19.71zm6.65 1.17-1.53 3.12a.43.43 0 0 1-.77 0l-1.53-3.12a.43.43 0 0 1 .38-.62h3.06a.43.43 0 0 1 .38.62zm6.11 0-3.29-1.13a.43.43 0 0 1-.16-.71l2.16-2.16a.43.43 0 0 1 .71.16L40.57 40a.43.43 0 0 1-.57.58Zm3.71-8.95a.43.43 0 0 1 0 .77l-3.12 1.53a.43.43 0 0 1-.62-.38v-3.11a.43.43 0 0 1 .62-.38zm-7-7.06L40 23.45a.43.43 0 0 1 .54.54l-1.13 3.29a.43.43 0 0 1-.71.16l-2.16-2.16a.43.43 0 0 1 .19-.7zM38 32a6 6 0 1 1-6-6 6 6 0 0 1 6 6zm-5.62-11.71 1.53 3.12a.43.43 0 0 1-.38.62h-3.06a.43.43 0 0 1-.38-.62l1.53-3.12a.43.43 0 0 1 .76 0z" style="fill:url(#f)"/>
      <path d="M6.61 25v.24q.11.68.29 1.37l.07.24c.13.48.28 1 .46 1.44v.1c.18.47.38.94.59 1.42l.06.13A38 38 0 0 1 15 22.15a38 38 0 0 1 3.31-9.74 14.64 14.64 0 0 0-8.71 3.32l-.12.11a9.57 9.57 0 0 0-.88.94l-.11.14a8.5 8.5 0 0 0-1.3 2.26l-.08.19a9.64 9.64 0 0 0-.36 1.19l-.05.23A10.47 10.47 0 0 0 6.51 22v.16a11.73 11.73 0 0 0 0 1.3v.1a13.44 13.44 0 0 0 .1 1.44Z" style="fill:url(#g)"/>
      <path d="M23 16.41c1.44-.83 2.9-1.58 4.38-2.24a.56.56 0 0 0-.12-1q-1.25-.28-2.47-.47a1 1 0 0 1-.63-1.56 1 1 0 0 1 .95-.4 40.56 40.56 0 0 1 6.32 1.49 1.84 1.84 0 0 0 1.12 0 37.72 37.72 0 0 1 9.59-1.81l-.06-.08q-.46-.66-.95-1.25l-.09-.12c-.33-.39-.66-.76-1-1.11l-.19-.19q-.51-.5-1-.94l-.19-.15a13.5 13.5 0 0 0-1.16-.88h-.07a11.74 11.74 0 0 0-1.14-.7l-.16-.08a10.46 10.46 0 0 0-1.18-.46l-.23-.07a9.64 9.64 0 0 0-1.21-.28h-.2a8.41 8.41 0 0 0-2.36 0h-.28c-.3 0-.59.1-.89.17h-.16a10 10 0 0 0-1 .33l-.24.1q-.41.17-.82.37l-.21.1q-.49.26-1 .57l-.15.1q-.41.28-.82.6l-.19.15a16.43 16.43 0 0 0-1.79 1.79l-.14.16a21.13 21.13 0 0 0-1.68 2.21l-.07.1a32 32 0 0 0-4 9.18A51.28 51.28 0 0 1 23 16.41z" style="fill:url(#h)"/>
      <path d="M49.31 22.4a37.76 37.76 0 0 1 6.53 7.52A19.66 19.66 0 0 0 57 26.77v-.15q.19-.73.31-1.44v-.17a13.47 13.47 0 0 0 .15-1.43 11.72 11.72 0 0 0 0-1.36v-.13a10.47 10.47 0 0 0-.19-1.27v-.22a9.61 9.61 0 0 0-.36-1.19l-.08-.18a8.49 8.49 0 0 0-1.3-2.25l-.12-.16a9.64 9.64 0 0 0-.85-.9l-.18-.17a10.47 10.47 0 0 0-1-.79l-.16-.11a11.73 11.73 0 0 0-1.08-.65l-.14-.11c-.39-.2-.8-.38-1.23-.55l-.27-.11q-.62-.23-1.29-.42l-.32-.08c-.46-.12-.92-.22-1.4-.31h-.23q-.67-.11-1.38-.18h-.2a37.71 37.71 0 0 1 3.24 9.38 1.16 1.16 0 0 0 .39.58z" style="fill:url(#i)"/>
    </g>
  </g>
</svg>
