<?xml version="1.0" encoding="utf-8"?>
<!DOCTYPE svg PUBLIC "-//W3C//DTD SVG 1.1//EN" "http://www.w3.org/Graphics/SVG/1.1/DTD/svg11.dtd">
<!-- Creator: CorelDRAW 2021 (64-Bit) -->
<svg xmlns="http://www.w3.org/2000/svg" xml:space="preserve" width="85" height="85" version="1.1" style="shape-rendering:geometricPrecision; text-rendering:geometricPrecision; image-rendering:optimizeQuality; fill-rule:evenodd; clip-rule:evenodd" viewBox="650 550 2480 3507.43" xmlns:xlink="http://www.w3.org/1999/xlink" xmlns:xodm="http://www.corel.com/coreldraw/odm/2003">
 <defs>
  <style type="text/css">
   <![CDATA[
    .fil0 {fill:#3C4052;fill-rule:nonzero}
   ]]>
  </style>
 </defs>
 <g id="Layer_x0020_1">
  <metadata id="CorelCorpID_0Corel-Layer"/>
  <g id="_2205377582384">
   <g>
    <path class="fil0" d="M1059.46 2951.74c17.7,8.3 35.83,15.5 54.46,21.49l7.86 2.64c17.69,5.44 35.72,9.67 54.02,12.75l8.3 0c37.97,5.88 76.6,5.88 114.52,0l8.79 0c17.97,-2.97 35.67,-7.09 53.09,-12.31l10.11 -3.08c17.64,-5.66 34.95,-12.42 51.76,-20.17l7.48 -3.51c17.03,-8.3 33.57,-17.53 49.62,-27.65l3.9 -2.19c16.82,-10.89 33.09,-22.59 48.75,-35.12l9.18 -7.47c15.22,-12.59 29.84,-26.16 43.9,-40.78l9.68 -9.67c14.45,-14.95 28.96,-30.72 43.85,-47.43l6.15 -7.86c13.19,-16.1 25.89,-32.91 38.2,-50.5l4.39 -6.1c-141.5,-8.13 -281.3,-34.34 -416.05,-78.14 -18.57,-5.88 -38.47,-5.88 -57.04,0 -134.86,44.07 -274.82,70.61 -416.44,78.97 65.29,100.01 155.41,181.4 261.53,236.13l-0.01 0z"/>
    <path class="fil0" d="M124.7 2205.7c1.71,18.57 4.45,37.03 8.36,55.28l2.2 10.11c4.17,17.69 9.39,35.17 15.82,52.2l3.52 8.36c13.79,35.66 33.02,68.96 57.04,98.69l5.72 7.04c11.37,13.96 23.74,27.14 36.82,39.51l7.91 7.47c13.9,12.26 28.57,23.74 43.91,34.24l7.03 4.78c14.95,10.22 30.5,19.56 46.49,28.14l5.72 3.08c17.09,8.74 35.11,16.65 53.08,24.12l12.26 4.84c18.19,6.7 36.87,12.69 56.21,17.97l14.46 3.51c19.78,5.28 39.95,9.62 61,13.14l10.55 0c19.29,3.24 39.07,5.71 59.24,7.47l9.67 0c-15.83,-30.72 -30.44,-62.76 -43.91,-96.11 -10.27,-21.93 -0.88,-48.03 21.05,-58.37 12.75,-5.99 27.64,-5.49 39.95,1.32 9.01,4.68 16.16,12.26 20.23,21.49 11.7,27.81 24.12,54.63 37.25,80.34 17.42,34.13 53.53,54.57 91.78,51.77 77.1,-5.22 153.7,-16.54 229.04,-33.8 12.64,-3.35 20.11,-16.37 16.76,-29.01 -1.76,-6.43 -6.04,-11.76 -11.92,-14.84 -64.96,-29.4 -129.47,-61.88 -192.67,-98.75 -260.48,-143.71 -483.75,-346.27 -652.13,-591.58l-2.64 5.72c-9.61,21.05 -18.41,41.71 -25.88,62.32l0 4.39c-7.91,21.05 -14.51,43.86 -20.17,63.2l-3.08 10.5c-5.27,20.22 -9.5,40.28 -12.75,60.12l0 10.55c-3.07,19.94 -5.11,40 -6.15,60.11 0,0 0,3.08 0,4.4 -1.04,19.02 -1.04,38.03 0,57.04 -2.14,3.08 -2.14,5.28 -1.76,9.24l-0.01 0z"/>
    <path class="fil0" d="M1248.61 999.3l-6.15 0c-121.78,42.81 -239.27,96.89 -351.05,161.51 -253.17,140.08 -469.08,338.68 -629.76,579.27 -10.22,16.37 -10.22,37.14 0,53.52 60.01,95.4 130.51,183.71 210.19,263.34 -12.42,-96.23 -18.57,-193.11 -18.41,-290.1 0,-27.21 0,-54.41 0,-81.17 0.44,-10.28 4.51,-20.06 11.38,-27.64 16.87,-17.48 44.62,-17.97 62.1,-1.16 8.74,8.47 13.63,20.12 13.41,32.32 0,26.04 0,52.2 0,78.52 -0.06,118.87 10.11,237.46 30.28,354.62 3.51,19.78 13.95,37.64 29.4,50.45 91.49,75.61 189.31,143.26 292.29,202.28 239.82,143.49 509.2,230.25 787.71,253.67 37.86,1.37 73.09,-19.57 89.95,-53.53 35.23,-71.82 64.58,-146.39 87.77,-222.94 3.51,-11.32 -2.92,-23.36 -14.24,-26.87 -6.7,-2.04 -14.01,-0.72 -19.56,3.62 -59.79,43.75 -121.78,84.41 -185.63,122 -19.73,11.43 -39.9,21.93 -60.12,32.48 -9.95,5.27 -21.6,6.54 -32.48,3.51 -22.97,-7.75 -35.33,-32.64 -27.59,-55.61 3.47,-10.33 10.67,-18.96 20.17,-24.29 19.29,-10.22 38.47,-20.88 57.48,-32.04 103.92,-59.95 202.4,-128.81 294.44,-205.8 13.52,-11.21 22.81,-26.7 26.33,-43.85 19.94,-118.48 29.62,-238.44 28.96,-358.57 0,-31.88 0,-63.64 0,-95.18 -0.17,-24.29 19.29,-44.07 43.52,-44.29 9.07,-0.06 17.97,2.63 25.39,7.86 9.45,7.86 15.22,19.29 15.83,31.6 0,32.47 2.19,64.95 2.19,97.81 5.17,297.47 -59.12,591.96 -187.83,860.13l9.62 0c20.22,-2.03 39.95,-4.5 59.29,-7.41l10.06 0c21.05,-3.52 41.27,-8.36 61.44,-13.63l14.07 -3.52c19.29,-5.28 38.02,-11.43 56.16,-18.41l12.25 -4.84c18.47,-7.47 36.44,-15.33 53.58,-24.12l5.66 -3.08c16.16,-8.68 31.87,-18.19 46.99,-28.52l7.03 -4.4c15.28,-10.66 29.95,-22.25 43.85,-34.67l7.92 -7.47c13.13,-12.37 25.44,-25.56 36.87,-39.46l5.72 -7.04c23.96,-29.78 43.19,-63.08 57.04,-98.75l3.52 -8.35c6.37,-17.04 11.65,-34.51 15.77,-52.21l2.2 -10.11c3.84,-17.53 6.59,-35.22 8.35,-53.08 0,-2.64 0,-4.84 0,-7.48 1.05,-19.01 1.05,-38.02 0,-57.04 0,0 0,-3.08 0,-4.39 -0.49,-21 -2.09,-41.93 -4.83,-62.76l0 -10.55c-3.19,-19.84 -7.48,-39.9 -12.75,-60.12l-3.96 -10.06c-5.66,-20.6 -12.25,-41.71 -20.17,-62.75l0 -5.28c-7.47,-20.61 -16.21,-41.27 -25.88,-61.87l-2.64 -5.72c-29.34,45.61 -61.11,89.52 -95.23,131.67 -12.37,14.56 -34.29,16.32 -48.85,3.95 -7.15,-6.1 -11.54,-14.78 -12.15,-24.12 0,-10.55 0,-20.22 0,-29.4 -0.55,-8.46 2.14,-16.76 7.47,-23.3 68.53,-89.57 66.5,-214.48 -4.83,-301.91 -151.34,-184.43 -335.77,-339.01 -543.71,-455.95 -55.28,-31.6 -110.62,-60.12 -165.91,-87.76 36.88,-13.19 77.71,-26.33 122.44,-38.2 29.24,15.23 58.53,31.16 87.76,47.87 83.37,48.03 163.54,101.39 240.04,159.69 -26.98,-101.94 -64.68,-200.8 -112.33,-294.88 -14.01,-28.08 -43.25,-45.28 -74.62,-43.85 -150.69,9.4 -299.28,40.01 -441.44,90.84l-1.76 6.98 -0.01 -0.01zm-356.32 392.37l0 0 144.37 49.57c9.83,3.46 14.95,14.23 11.48,24.07 -0.93,2.69 -2.47,5.11 -4.45,7.09l-94.79 94.79c-7.37,7.37 -19.29,7.42 -26.71,0.06 -1.98,-2.04 -3.52,-4.4 -4.45,-7.09l-50.45 -144.36c-3.79,-9.73 1.1,-20.67 10.77,-24.41 4.62,-1.75 9.67,-1.64 14.23,0.28l0 0zm-163.7 392.7l0 0c-9.35,-4.62 -13.14,-15.94 -8.52,-25.22 1.87,-3.69 4.83,-6.71 8.52,-8.52l136.94 -67.16c9.34,-4.61 20.66,-0.76 25.22,8.58 1.27,2.53 1.93,5.33 1.98,8.13l0 134.25c-0.16,10.39 -8.68,18.74 -19.12,18.63 -2.8,-0.05 -5.61,-0.71 -8.08,-1.92l-136.94 -66.77 0 0zm307.19 309.88l0 0 -143.49 49.13c-9.94,3.13 -20.55,-2.36 -23.68,-12.31 -1.21,-3.68 -1.21,-7.64 0,-11.38l49.56 -144.41c3.47,-9.79 14.24,-14.95 24.07,-11.49 2.69,0.93 5.06,2.47 7.09,4.51l94.8 94.79c7.2,7.53 6.92,19.46 -0.61,26.65 -2.19,2.09 -4.83,3.63 -7.75,4.51l0.01 0zm291.8 51.33l0 0 -67.15 136.94c-4.62,9.29 -15.94,13.14 -25.23,8.47 -3.73,-1.87 -6.7,-4.84 -8.51,-8.47l-67.16 -136.94c-4.61,-9.34 -0.77,-20.66 8.58,-25.28 2.52,-1.27 5.27,-1.93 8.07,-1.93l134.31 0c10.39,0.12 18.74,8.69 18.63,19.13 -0.06,2.8 -0.72,5.55 -1.98,8.08l0.44 0zm268.17 0l0 0 -144.42 -49.63c-9.78,-3.46 -14.94,-14.23 -11.48,-24.07 0.93,-2.63 2.47,-5.05 4.51,-7.03l94.79 -94.8c7.31,-7.41 19.29,-7.41 26.65,-0.05 1.98,1.98 3.57,4.4 4.45,7.03l49.19 140.91c4.67,9.28 0.88,20.66 -8.47,25.27 -5.22,2.64 -11.32,2.64 -16.54,0.17l1.32 2.2 0 0zm162.77 -392.75l0 0c9.35,4.61 13.14,15.93 8.52,25.27 -1.81,3.69 -4.83,6.65 -8.52,8.52l-136.89 67.1c-9.34,4.62 -20.66,0.77 -25.28,-8.57 -1.26,-2.53 -1.92,-5.28 -1.92,-8.08l0 -136.45c0.11,-10.44 8.68,-18.8 19.13,-18.63 2.8,0.06 5.55,0.72 8.07,1.92l136.89 68.92 0 0zm-307.19 -309.83l0 0 143.1 -51.33c9.95,-3.19 20.5,2.31 23.69,12.26 1.15,3.68 1.15,7.69 0,11.42l-49.57 144.37c-3.51,9.83 -14.29,15 -24.12,11.48 -2.64,-0.93 -5.06,-2.47 -7.04,-4.45l-94.79 -94.79c-7.04,-7.7 -6.49,-19.62 1.21,-26.65 2.03,-1.87 4.45,-3.25 7.09,-4.07l0.44 1.76 -0.01 0zm55.29 323.84l0 0c0,145.41 -117.88,263.33 -263.28,263.33 -145.41,0 -263.29,-117.93 -263.29,-263.33 0,-145.41 117.88,-263.28 263.29,-263.28 145.4,0 263.28,117.87 263.28,263.28zm-246.58 -513.87l0 0 67.1 136.94c4.62,9.34 0.77,20.66 -8.57,25.28 -2.53,1.21 -5.28,1.87 -8.08,1.92l-134.31 0c-10.38,-0.16 -18.73,-8.73 -18.57,-19.12 0,-2.8 0.66,-5.55 1.92,-8.08l67.16 -136.94c4.89,-9.18 16.26,-12.7 25.5,-7.86 3.35,1.76 6.04,4.51 7.85,7.86l0 0z"/>
    <path class="fil0" d="M129.1 1459.65l0 10.55c3.24,19.89 7.47,39.95 12.75,60.12l3.08 10.55c5.71,21.05 12.31,43.85 20.16,63.2l0 4.39c7.92,20.61 16.71,41.22 25.89,62.32l2.63 5.66c85.07,-127.33 187.29,-242.34 303.73,-341.86 28.8,-148.38 77.65,-292.19 145.24,-427.43 -139.91,5.66 -274.11,56.82 -382.25,145.68l-5.28 4.83c-13.79,12.86 -26.65,26.66 -38.58,41.27l-4.83 6.16c-24.02,29.95 -43.25,63.36 -57.04,99.19l-3.52 8.29c-6.43,17.04 -11.65,34.52 -15.83,52.27l-2.19 10.05c-3.8,17.53 -6.6,35.28 -8.36,53.14 0,2.15 0,4.78 0,6.98 -1.04,19.02 -1.04,38.08 0,57.04 0,0 0,3.14 0,4.4 0.33,21.16 1.82,42.26 4.4,63.2l0 0z"/>
    <path class="fil0" d="M848.39 1082.72c63.19,-36.43 127.27,-69.35 192.22,-98.31 11.43,-7.36 14.67,-22.58 7.37,-33.96 -2.97,-4.67 -7.42,-8.13 -12.64,-9.95 -36.55,-8.18 -72.71,-15.05 -108.37,-20.6 -23.85,-4.51 -39.46,-27.48 -34.95,-51.33 1.15,-6.15 3.62,-11.98 7.31,-17.15 9.56,-13.13 25.55,-19.83 41.65,-17.53 94.08,14.35 186.79,36.22 277.35,65.34 15.99,5.11 33.14,5.11 49.13,0 136.28,-44.56 277.73,-71.27 420.83,-79.4l-2.58 -3.52c-13.46,-19.29 -27.37,-37.59 -41.71,-54.84l-3.96 -5.28c-14.45,-17.09 -28.96,-33.35 -43.9,-48.69l-8.3 -8.35c-14.95,-14.62 -29.57,-28.36 -43.91,-41.22l-8.3 -6.64c-16.27,-13.74 -33.24,-26.66 -50.94,-38.58l-3.08 0c-16.04,-11.21 -32.75,-21.43 -50.01,-30.72l-7.03 -3.52c-16.82,-7.8 -34.13,-14.51 -51.77,-20.22l-10.11 -3.02c-17.42,-5.28 -35.17,-9.34 -53.08,-12.31l-8.79 0c-34.35,-4.84 -69.19,-4.84 -103.54,0l-12.31 0c-13.13,0 -25.88,4.39 -39.07,7.47l-6.98 0c-14.89,4.07 -29.51,8.85 -43.91,14.45l-10.49 4.4c-12.04,5 -24.02,10.39 -36,16.27l-9.23 4.39c-14.34,7.59 -28.96,15.94 -43.91,25.01l-6.54 4.4c-12.03,8.18 -24.01,16.92 -35.99,26.32l-8.35 6.54c-28.2,24.12 -54.46,50.39 -78.53,78.58l-6.16 7.04c-26.71,30.66 -51.32,63.08 -73.75,96.99l-3.07 4.34c-79.3,124.25 -138.54,260.21 -175.52,402.87 76.82,-58.2 157.27,-111.4 240.91,-159.26l0.01 -0.01z"/>
    <path class="fil0" d="M2003.01 1345.57c109.63,96.88 206.02,207.83 286.53,329.99 20.88,-44.51 37.92,-90.78 50.89,-138.21l0 -6.59c5.6,-21.32 10.11,-42.43 13.63,-63.2l0 -7.47c3.29,-20.77 5.55,-41.71 6.59,-62.76 1.15,-19.83 1.15,-39.78 0,-59.68 0,0 0,-3.95 0,-5.71 -1.65,-18.69 -4.45,-37.32 -8.35,-55.73l0 -9.61c-4.12,-17.75 -9.4,-35.23 -15.78,-52.26l-3.51 -7.86c-13.85,-35.67 -33.09,-68.97 -57.04,-98.75l-5.28 -7.04c-11.6,-13.96 -24.07,-27.15 -37.31,-39.51l-7.92 -7.42c-13.9,-12.48 -28.52,-24.07 -43.85,-34.68l-7.03 -4.83c-15.28,-10.39 -31.11,-19.9 -47.37,-28.52l-6.16 -4.84c-17.14,-8.79 -35.11,-16.7 -54.02,-24.12l-11.81 -4.84c-18.14,-6.76 -37.04,-12.86 -56.61,-18.46l-14.06 -3.46c-20.17,-5.28 -40.39,-9.68 -61.44,-13.63l-10.11 0c-19.56,-3.19 -39.79,-5.83 -60.56,-7.92l-8.74 0c65.29,130.35 113.1,268.78 142.17,411.66 2.96,10.06 8.9,18.9 17.14,25.44l0 0.01z"/>
   </g>
  </g>
 </g>
</svg>

